SplineFontDB: 3.2
FontName: OpenSans
FullName: Open Sans
FamilyName: Open Sans
Weight: Book
Copyright: Digitized data copyright (c) 2010-2011, Google Corporation.
Version: 1.10
ItalicAngle: 0
UnderlinePosition: -205
UnderlineWidth: 102
Ascent: 1638
Descent: 410
InvalidEm: 0
LayerCount: 3
Layer: 0 0 "Warstwa t+AUIA-a" 1
Layer: 1 0 "Plan pierwszy" 0
Layer: 2 0 "Warstwa t+AUIA-a 2" 1
FSType: 8
OS2Version: 0
OS2_WeightWidthSlopeOnly: 0
OS2_UseTypoMetrics: 0
CreationTime: 1698302651
ModificationTime: 1698302918
OS2TypoAscent: 0
OS2TypoAOffset: 1
OS2TypoDescent: 0
OS2TypoDOffset: 1
OS2TypoLinegap: 0
OS2WinAscent: 0
OS2WinAOffset: 1
OS2WinDescent: 0
OS2WinDOffset: 1
HheadAscent: 0
HheadAOffset: 1
HheadDescent: 0
HheadDOffset: 1
OS2Vendor: 'PfEd'
DEI: 91125
Encoding: Custom
UnicodeInterp: none
NameList: AGL For New Fonts
DisplaySize: -48
AntiAlias: 1
FitToEm: 0
WinInfo: 0 25 13
BeginPrivate: 3
BlueValues 28 [-20 0 1094 1116 1462 1556 ]
OtherBlues 12 [-492 -492 ]
BlueScale 6 0.0125
EndPrivate
BeginChars: 1002 938

StartChar: .notdef
Encoding: 0 -1 0
Width: 1229
LayerCount: 3
Fore
SplineSet
193 1462 m 1
 1034 1462 l 1
 1034 0 l 1
 193 0 l 1
 193 1462 l 1
297 104 m 1
 930 104 l 1
 930 1358 l 1
 297 1358 l 1
 297 104 l 1
EndSplineSet
EndChar

StartChar: exclam
Encoding: 33 33 4
Width: 547
Flags: W
LayerCount: 3
Fore
SplineSet
326 403 m 1
 221 403 l 1
 170 1462 l 1
 377 1462 l 1
 326 403 l 1
152 106 m 0
 152 197 192 242 272 242 c 0
 311 242 340 230 362 207 c 0
 382 184 393 150 393 106 c 0
 393 63 382 30 361 6 c 0
 340 -17 310 -29 272 -29 c 0
 237 -29 209 -18 186 2 c 0
 163 24 152 58 152 106 c 0
EndSplineSet
EndChar

StartChar: quotedbl
Encoding: 34 34 5
Width: 821
Flags: W
LayerCount: 3
Fore
SplineSet
319 1462 m 1
 279 934 l 1
 174 934 l 1
 133 1462 l 1
 319 1462 l 1
688 1462 m 1
 647 934 l 1
 543 934 l 1
 502 1462 l 1
 688 1462 l 1
EndSplineSet
EndChar

StartChar: numbersign
Encoding: 35 35 6
Width: 1323
Flags: W
LayerCount: 3
Fore
SplineSet
981 899 m 1
 915 559 l 1
 1198 559 l 1
 1198 430 l 1
 891 430 l 1
 807 0 l 1
 670 0 l 1
 754 430 l 1
 451 430 l 1
 369 0 l 1
 233 0 l 1
 313 430 l 1
 51 430 l 1
 51 559 l 1
 338 559 l 1
 406 899 l 1
 129 899 l 1
 129 1026 l 1
 428 1026 l 1
 510 1462 l 1
 649 1462 l 1
 567 1026 l 1
 872 1026 l 1
 956 1462 l 1
 1090 1462 l 1
 1006 1026 l 1
 1270 1026 l 1
 1270 899 l 1
 981 899 l 1
475 559 m 1
 778 559 l 1
 844 899 l 1
 541 899 l 1
 475 559 l 1
EndSplineSet
EndChar

StartChar: dollar
Encoding: 36 36 7
Width: 1171
Flags: W
LayerCount: 3
Fore
SplineSet
1036 449 m 0
 1036 358 1002 284 934 224 c 0
 866 166 771 128 649 113 c 1
 649 -119 l 1
 520 -119 l 1
 520 104 l 1
 445 104 373 110 303 122 c 0
 233 133 176 149 131 170 c 1
 131 326 l 1
 186 301 250 281 322 266 c 0
 395 250 461 242 520 242 c 1
 520 682 l 1
 383 725 288 776 232 833 c 0
 178 890 150 964 150 1055 c 0
 150 1142 184 1214 252 1270 c 0
 319 1326 409 1360 520 1372 c 1
 520 1554 l 1
 649 1554 l 1
 649 1374 l 1
 772 1371 890 1346 1004 1300 c 1
 952 1169 l 1
 853 1208 752 1232 649 1239 c 1
 649 805 l 1
 754 772 832 739 884 708 c 0
 936 676 974 640 999 598 c 0
 1024 558 1036 508 1036 449 c 0
866 436 m 0
 866 484 851 523 822 552 c 0
 792 582 734 612 649 641 c 1
 649 252 l 1
 794 272 866 333 866 436 c 0
319 1057 m 0
 319 1006 334 966 364 935 c 0
 394 904 446 875 520 848 c 1
 520 1235 l 1
 454 1224 404 1204 370 1172 c 0
 336 1142 319 1103 319 1057 c 0
EndSplineSet
EndChar

StartChar: percent
Encoding: 37 37 8
Width: 1686
Flags: W
LayerCount: 3
Fore
SplineSet
242 1026 m 0
 242 913 254 828 279 771 c 0
 304 714 344 686 399 686 c 0
 508 686 563 799 563 1026 c 0
 563 1251 508 1364 399 1364 c 0
 344 1364 304 1336 279 1280 c 0
 254 1224 242 1139 242 1026 c 0
700 1026 m 0
 700 874 674 759 624 682 c 0
 572 604 498 565 399 565 c 0
 306 565 233 605 182 684 c 0
 130 763 104 877 104 1026 c 0
 104 1177 129 1291 178 1368 c 0
 228 1445 302 1483 399 1483 c 0
 496 1483 570 1443 622 1364 c 0
 674 1285 700 1172 700 1026 c 0
1122 440 m 0
 1122 326 1134 241 1159 184 c 0
 1184 128 1224 100 1280 100 c 0
 1336 100 1377 128 1404 184 c 0
 1431 239 1444 325 1444 440 c 0
 1444 554 1431 638 1404 694 c 0
 1377 748 1336 776 1280 776 c 0
 1224 776 1184 748 1159 694 c 0
 1134 638 1122 554 1122 440 c 0
1581 440 m 0
 1581 289 1556 174 1504 96 c 0
 1454 19 1379 -20 1280 -20 c 0
 1185 -20 1112 20 1062 99 c 0
 1010 178 985 292 985 440 c 0
 985 591 1010 705 1060 782 c 0
 1109 859 1183 897 1280 897 c 0
 1375 897 1448 858 1502 780 c 0
 1554 701 1581 588 1581 440 c 0
1323 1462 m 1
 512 0 l 1
 365 0 l 1
 1176 1462 l 1
 1323 1462 l 1
EndSplineSet
EndChar

StartChar: ampersand
Encoding: 38 38 9
Width: 1495
Flags: W
LayerCount: 3
Fore
SplineSet
414 1171 m 0
 414 1125 426 1081 450 1040 c 0
 474 998 515 948 573 889 c 1
 659 939 719 985 752 1028 c 0
 786 1070 803 1119 803 1174 c 0
 803 1225 786 1267 752 1300 c 0
 717 1332 671 1348 614 1348 c 0
 555 1348 506 1332 470 1300 c 0
 432 1268 414 1225 414 1171 c 0
569 129 m 0
 730 129 863 180 969 283 c 1
 532 707 l 1
 458 662 406 624 375 594 c 0
 344 565 322 533 307 499 c 0
 292 465 285 426 285 383 c 0
 285 305 311 243 362 198 c 0
 414 152 483 129 569 129 c 0
113 379 m 0
 113 466 136 542 182 609 c 0
 229 676 312 743 432 811 c 1
 375 874 337 922 316 955 c 0
 296 988 280 1022 268 1057 c 0
 256 1092 250 1129 250 1167 c 0
 250 1267 283 1345 348 1401 c 0
 413 1457 504 1485 621 1485 c 0
 729 1485 814 1457 876 1402 c 0
 938 1346 969 1268 969 1169 c 0
 969 1098 946 1032 901 972 c 0
 856 911 781 850 676 788 c 1
 1083 397 l 1
 1120 438 1150 487 1172 542 c 0
 1195 598 1214 659 1229 725 c 1
 1397 725 l 1
 1352 534 1283 390 1192 291 c 1
 1491 0 l 1
 1262 0 l 1
 1077 178 l 1
 998 107 918 57 837 26 c 0
 756 -5 665 -20 565 -20 c 0
 422 -20 310 15 232 86 c 0
 152 157 113 254 113 379 c 0
EndSplineSet
EndChar

StartChar: quotesingle
Encoding: 39 39 10
Width: 453
Flags: W
LayerCount: 3
Fore
SplineSet
319 1462 m 1
 279 934 l 1
 174 934 l 1
 133 1462 l 1
 319 1462 l 1
EndSplineSet
EndChar

StartChar: parenleft
Encoding: 40 40 11
Width: 606
Flags: W
LayerCount: 3
Fore
SplineSet
82 561 m 0
 82 738 108 903 160 1057 c 0
 211 1211 286 1346 383 1462 c 1
 545 1462 l 1
 449 1333 377 1192 328 1038 c 0
 280 884 256 726 256 563 c 0
 256 403 281 247 330 94 c 0
 379 -59 450 -198 543 -324 c 1
 383 -324 l 1
 285 -211 210 -78 159 73 c 0
 108 224 82 387 82 561 c 0
EndSplineSet
EndChar

StartChar: parenright
Encoding: 41 41 12
Width: 606
Flags: W
LayerCount: 3
Fore
SplineSet
524 561 m 0
 524 386 498 222 446 71 c 0
 395 -80 320 -212 223 -324 c 1
 63 -324 l 1
 156 -199 227 -60 276 94 c 0
 325 246 350 403 350 563 c 0
 350 726 326 884 278 1038 c 0
 229 1192 157 1333 61 1462 c 1
 223 1462 l 1
 321 1345 396 1210 447 1056 c 0
 498 901 524 736 524 561 c 0
EndSplineSet
EndChar

StartChar: asterisk
Encoding: 42 42 13
Width: 1130
Flags: W
LayerCount: 3
Fore
SplineSet
657 1556 m 1
 614 1161 l 1
 1012 1272 l 1
 1038 1090 l 1
 657 1059 l 1
 905 733 l 1
 733 639 l 1
 557 1001 l 1
 397 639 l 1
 221 733 l 1
 463 1059 l 1
 86 1090 l 1
 115 1272 l 1
 506 1161 l 1
 463 1556 l 1
 657 1556 l 1
EndSplineSet
EndChar

StartChar: plus
Encoding: 43 43 14
Width: 1171
Flags: W
LayerCount: 3
Fore
SplineSet
653 791 m 1
 1065 791 l 1
 1065 653 l 1
 653 653 l 1
 653 227 l 1
 514 227 l 1
 514 653 l 1
 104 653 l 1
 104 791 l 1
 514 791 l 1
 514 1219 l 1
 653 1219 l 1
 653 791 l 1
EndSplineSet
EndChar

StartChar: comma
Encoding: 44 44 15
Width: 502
Flags: W
LayerCount: 3
Fore
SplineSet
350 238 m 1
 365 215 l 1
 348 148 323 71 290 -18 c 0
 257 -106 223 -188 188 -264 c 1
 63 -264 l 1
 81 -195 101 -109 122 -7 c 0
 144 95 159 177 168 238 c 1
 350 238 l 1
EndSplineSet
EndChar

StartChar: hyphen
Encoding: 45 45 16
Width: 659
Flags: W
LayerCount: 3
Fore
SplineSet
84 473 m 1
 84 625 l 1
 575 625 l 1
 575 473 l 1
 84 473 l 1
EndSplineSet
EndChar

StartChar: period
Encoding: 46 46 17
Width: 545
Flags: W
LayerCount: 3
Fore
SplineSet
152 106 m 0
 152 151 162 184 182 208 c 0
 203 230 232 242 270 242 c 0
 309 242 339 230 360 208 c 0
 382 184 393 151 393 106 c 0
 393 63 382 29 360 6 c 0
 338 -17 308 -29 270 -29 c 0
 236 -29 208 -18 186 2 c 0
 163 24 152 58 152 106 c 0
EndSplineSet
EndChar

StartChar: slash
Encoding: 47 47 18
Width: 752
Flags: W
LayerCount: 3
Fore
SplineSet
731 1462 m 1
 186 0 l 1
 20 0 l 1
 565 1462 l 1
 731 1462 l 1
EndSplineSet
EndChar

StartChar: zero
Encoding: 48 48 19
Width: 1171
Flags: W
LayerCount: 3
Fore
SplineSet
1069 733 m 0
 1069 480 1029 292 950 167 c 0
 870 42 748 -20 584 -20 c 0
 427 -20 307 44 225 172 c 0
 143 299 102 486 102 733 c 0
 102 988 142 1177 221 1300 c 0
 300 1423 421 1485 584 1485 c 0
 743 1485 863 1421 946 1292 c 0
 1028 1163 1069 977 1069 733 c 0
270 733 m 0
 270 520 295 366 345 268 c 0
 395 172 475 123 584 123 c 0
 695 123 775 172 824 270 c 0
 874 369 899 523 899 733 c 0
 899 943 874 1097 824 1194 c 0
 775 1292 695 1341 584 1341 c 0
 475 1341 395 1293 345 1196 c 0
 295 1100 270 946 270 733 c 0
EndSplineSet
EndChar

StartChar: one
Encoding: 49 49 20
Width: 1171
Flags: W
LayerCount: 3
Fore
SplineSet
715 0 m 1
 553 0 l 1
 553 1042 l 2
 553 1129 556 1211 561 1288 c 1
 547 1274 531 1259 514 1244 c 0
 497 1229 417 1164 276 1049 c 1
 188 1163 l 1
 575 1462 l 1
 715 1462 l 1
 715 0 l 1
EndSplineSet
EndChar

StartChar: two
Encoding: 50 50 21
Width: 1171
Flags: W
LayerCount: 3
Fore
SplineSet
1061 0 m 1
 100 0 l 1
 100 143 l 1
 485 530 l 2
 602 649 680 733 717 784 c 0
 754 835 782 884 801 932 c 0
 820 980 829 1032 829 1087 c 0
 829 1165 805 1227 758 1272 c 0
 711 1318 645 1341 561 1341 c 0
 500 1341 443 1331 388 1311 c 0
 334 1291 274 1255 207 1202 c 1
 119 1315 l 1
 254 1427 400 1483 559 1483 c 0
 696 1483 804 1448 882 1378 c 0
 960 1307 999 1213 999 1094 c 0
 999 1001 973 910 921 819 c 0
 869 728 772 614 629 475 c 2
 309 162 l 1
 309 154 l 1
 1061 154 l 1
 1061 0 l 1
EndSplineSet
EndChar

StartChar: three
Encoding: 51 51 22
Width: 1171
Flags: W
LayerCount: 3
Fore
SplineSet
1006 1118 m 0
 1006 1025 980 948 928 889 c 0
 875 830 801 790 705 770 c 1
 705 762 l 1
 822 747 909 710 966 650 c 0
 1023 590 1051 511 1051 414 c 0
 1051 275 1003 168 906 92 c 0
 809 18 672 -20 494 -20 c 0
 417 -20 346 -14 282 -2 c 0
 217 9 155 30 94 59 c 1
 94 217 l 1
 157 186 225 162 296 146 c 0
 368 129 436 121 500 121 c 0
 753 121 879 220 879 418 c 0
 879 595 740 684 461 684 c 2
 317 684 l 1
 317 827 l 1
 463 827 l 2
 577 827 667 852 734 902 c 0
 801 953 834 1023 834 1112 c 0
 834 1183 810 1239 760 1280 c 0
 712 1321 645 1341 561 1341 c 0
 497 1341 437 1332 380 1315 c 0
 323 1298 259 1266 186 1219 c 1
 102 1331 l 1
 162 1378 231 1416 310 1442 c 0
 388 1470 470 1483 557 1483 c 0
 699 1483 809 1450 888 1386 c 0
 967 1320 1006 1231 1006 1118 c 0
EndSplineSet
EndChar

StartChar: four
Encoding: 52 52 23
Width: 1171
Flags: W
LayerCount: 3
Fore
SplineSet
1130 336 m 1
 913 336 l 1
 913 0 l 1
 754 0 l 1
 754 336 l 1
 43 336 l 1
 43 481 l 1
 737 1470 l 1
 913 1470 l 1
 913 487 l 1
 1130 487 l 1
 1130 336 l 1
754 487 m 1
 754 973 l 2
 754 1068 757 1176 764 1296 c 1
 756 1296 l 1
 724 1232 694 1179 666 1137 c 2
 209 487 l 1
 754 487 l 1
EndSplineSet
EndChar

StartChar: five
Encoding: 53 53 24
Width: 1171
Flags: W
LayerCount: 3
Fore
SplineSet
557 893 m 0
 711 893 832 855 920 778 c 0
 1009 702 1053 598 1053 465 c 0
 1053 314 1005 195 908 109 c 0
 812 23 679 -20 510 -20 c 0
 345 -20 220 6 133 59 c 1
 133 219 l 1
 180 189 238 166 307 148 c 0
 376 132 445 123 512 123 c 0
 629 123 720 151 786 206 c 0
 850 261 883 341 883 446 c 0
 883 650 758 752 508 752 c 0
 445 752 360 742 254 723 c 1
 168 778 l 1
 223 1462 l 1
 950 1462 l 1
 950 1309 l 1
 365 1309 l 1
 328 870 l 1
 405 885 481 893 557 893 c 0
EndSplineSet
EndChar

StartChar: six
Encoding: 54 54 25
Width: 1171
Flags: W
LayerCount: 3
Fore
SplineSet
117 625 m 0
 117 912 173 1127 284 1270 c 0
 396 1412 561 1483 780 1483 c 0
 855 1483 915 1477 958 1464 c 1
 958 1321 l 1
 907 1338 848 1346 782 1346 c 0
 625 1346 506 1297 423 1200 c 0
 340 1102 295 948 287 739 c 1
 299 739 l 1
 372 854 488 911 647 911 c 0
 778 911 882 871 958 792 c 0
 1033 713 1071 605 1071 469 c 0
 1071 317 1030 198 946 110 c 0
 864 24 751 -20 610 -20 c 0
 459 -20 339 37 250 150 c 0
 161 264 117 422 117 625 c 0
608 121 m 0
 703 121 776 151 828 210 c 0
 881 270 907 356 907 469 c 0
 907 566 883 642 834 697 c 0
 785 752 713 780 616 780 c 0
 556 780 501 768 451 743 c 0
 401 718 361 684 332 641 c 0
 302 598 287 553 287 506 c 0
 287 437 300 373 327 314 c 0
 354 255 392 208 440 173 c 0
 490 138 545 121 608 121 c 0
EndSplineSet
EndChar

StartChar: seven
Encoding: 55 55 26
Width: 1171
Flags: W
LayerCount: 3
Fore
SplineSet
285 0 m 1
 891 1309 l 1
 94 1309 l 1
 94 1462 l 1
 1067 1462 l 1
 1067 1329 l 1
 469 0 l 1
 285 0 l 1
EndSplineSet
EndChar

StartChar: eight
Encoding: 56 56 27
Width: 1171
Flags: W
LayerCount: 3
Fore
SplineSet
584 1483 m 0
 717 1483 823 1452 901 1390 c 0
 979 1328 1018 1242 1018 1133 c 0
 1018 1061 996 995 951 936 c 0
 906 877 835 823 737 774 c 1
 856 717 940 658 990 596 c 0
 1040 533 1065 461 1065 379 c 0
 1065 258 1023 161 938 88 c 0
 853 16 737 -20 590 -20 c 0
 434 -20 314 14 230 82 c 0
 146 151 104 248 104 373 c 0
 104 540 206 671 410 764 c 1
 318 816 252 872 212 932 c 0
 172 993 152 1060 152 1135 c 0
 152 1241 191 1326 270 1388 c 0
 348 1452 453 1483 584 1483 c 0
268 369 m 0
 268 289 296 227 352 182 c 0
 407 137 485 115 586 115 c 0
 685 115 763 138 818 185 c 0
 873 232 901 296 901 377 c 0
 901 442 875 499 823 550 c 0
 771 600 680 649 551 696 c 1
 452 653 380 606 335 554 c 0
 290 503 268 441 268 369 c 0
582 1348 m 0
 499 1348 433 1328 386 1288 c 0
 339 1248 315 1195 315 1128 c 0
 315 1067 335 1014 374 970 c 0
 413 926 486 882 592 838 c 1
 687 878 755 921 794 967 c 0
 834 1013 854 1067 854 1128 c 0
 854 1195 830 1249 782 1288 c 0
 733 1328 667 1348 582 1348 c 0
EndSplineSet
EndChar

StartChar: nine
Encoding: 57 57 28
Width: 1171
Flags: W
LayerCount: 3
Fore
SplineSet
1061 838 m 0
 1061 266 840 -20 397 -20 c 0
 320 -20 258 -13 213 0 c 1
 213 143 l 1
 266 126 327 117 395 117 c 0
 555 117 676 166 758 266 c 0
 839 364 884 516 891 721 c 1
 879 721 l 1
 842 666 794 624 733 594 c 0
 672 566 604 551 528 551 c 0
 399 551 296 590 220 667 c 0
 144 744 106 852 106 991 c 0
 106 1143 148 1263 234 1351 c 0
 318 1439 430 1483 569 1483 c 0
 668 1483 755 1458 830 1406 c 0
 904 1356 961 1281 1001 1184 c 0
 1041 1086 1061 971 1061 838 c 0
569 1341 m 0
 474 1341 400 1310 348 1249 c 0
 296 1188 270 1102 270 993 c 0
 270 897 294 822 342 766 c 0
 390 712 463 684 561 684 c 0
 622 684 678 696 728 721 c 0
 780 746 820 779 849 822 c 0
 878 865 893 909 893 956 c 0
 893 1026 879 1091 852 1150 c 0
 825 1209 786 1256 738 1290 c 0
 688 1324 632 1341 569 1341 c 0
EndSplineSet
EndChar

StartChar: colon
Encoding: 58 58 29
Width: 545
Flags: W
LayerCount: 3
Fore
SplineSet
152 106 m 0
 152 151 162 184 182 208 c 0
 203 230 232 242 270 242 c 0
 309 242 339 230 360 208 c 0
 382 184 393 151 393 106 c 0
 393 63 382 29 360 6 c 0
 338 -17 308 -29 270 -29 c 0
 236 -29 208 -18 186 2 c 0
 163 24 152 58 152 106 c 0
152 989 m 0
 152 1079 191 1124 270 1124 c 0
 352 1124 393 1079 393 989 c 0
 393 946 382 912 360 889 c 0
 338 866 308 854 270 854 c 0
 236 854 208 864 186 886 c 0
 163 906 152 941 152 989 c 0
EndSplineSet
EndChar

StartChar: semicolon
Encoding: 59 59 30
Width: 545
Flags: W
LayerCount: 3
Fore
SplineSet
350 238 m 1
 365 215 l 1
 348 148 323 71 290 -18 c 0
 257 -106 223 -188 188 -264 c 1
 63 -264 l 1
 81 -195 101 -109 122 -7 c 0
 144 95 159 177 168 238 c 1
 350 238 l 1
147 989 m 0
 147 1079 187 1124 266 1124 c 0
 348 1124 389 1079 389 989 c 0
 389 946 378 912 356 889 c 0
 334 866 304 854 266 854 c 0
 227 854 198 866 178 889 c 0
 157 912 147 946 147 989 c 0
EndSplineSet
EndChar

StartChar: less
Encoding: 60 60 31
Width: 1171
Flags: W
LayerCount: 3
Fore
SplineSet
1065 242 m 1
 104 664 l 1
 104 762 l 1
 1065 1241 l 1
 1065 1092 l 1
 283 721 l 1
 1065 393 l 1
 1065 242 l 1
EndSplineSet
EndChar

StartChar: equal
Encoding: 61 61 32
Width: 1171
Flags: W
LayerCount: 3
Fore
SplineSet
119 858 m 1
 119 995 l 1
 1049 995 l 1
 1049 858 l 1
 119 858 l 1
119 449 m 1
 119 586 l 1
 1049 586 l 1
 1049 449 l 1
 119 449 l 1
EndSplineSet
EndChar

StartChar: greater
Encoding: 62 62 33
Width: 1171
Flags: W
LayerCount: 3
Fore
SplineSet
104 393 m 1
 887 719 l 1
 104 1092 l 1
 104 1241 l 1
 1065 762 l 1
 1065 664 l 1
 104 242 l 1
 104 393 l 1
EndSplineSet
EndChar

StartChar: question
Encoding: 63 63 34
Width: 879
Flags: W
LayerCount: 3
Fore
SplineSet
289 403 m 1
 289 457 l 2
 289 535 301 599 325 650 c 0
 349 700 394 753 459 809 c 0
 550 886 607 943 630 982 c 0
 654 1021 666 1067 666 1122 c 0
 666 1190 644 1242 600 1280 c 0
 557 1316 494 1335 412 1335 c 0
 359 1335 308 1329 258 1316 c 0
 208 1304 151 1282 86 1249 c 1
 27 1384 l 1
 153 1450 285 1483 422 1483 c 0
 549 1483 648 1452 719 1389 c 0
 790 1326 825 1238 825 1124 c 0
 825 1075 818 1032 806 996 c 0
 792 958 773 924 748 890 c 0
 723 858 668 804 584 731 c 0
 517 674 472 626 450 588 c 0
 429 550 418 499 418 436 c 2
 418 403 l 1
 289 403 l 1
240 106 m 0
 240 197 280 242 360 242 c 0
 399 242 428 230 450 207 c 0
 470 184 481 150 481 106 c 0
 481 63 470 30 449 6 c 0
 428 -17 398 -29 360 -29 c 0
 325 -29 297 -18 274 2 c 0
 251 24 240 58 240 106 c 0
EndSplineSet
EndChar

StartChar: at
Encoding: 64 64 35
Width: 1841
Flags: W
LayerCount: 3
Fore
SplineSet
1720 729 m 0
 1720 634 1705 548 1676 469 c 0
 1647 390 1605 329 1552 286 c 0
 1499 243 1437 221 1368 221 c 0
 1311 221 1262 238 1223 273 c 0
 1184 308 1160 352 1153 406 c 1
 1145 406 l 1
 1118 348 1080 303 1030 270 c 0
 981 237 922 221 854 221 c 0
 754 221 676 255 620 324 c 0
 563 392 535 485 535 602 c 0
 535 738 574 848 653 934 c 0
 732 1018 835 1061 963 1061 c 0
 1008 1061 1060 1057 1117 1048 c 0
 1174 1040 1226 1029 1272 1014 c 1
 1247 544 l 1
 1247 522 l 2
 1247 403 1291 344 1380 344 c 0
 1441 344 1490 380 1528 452 c 0
 1566 523 1585 616 1585 731 c 0
 1585 852 1560 957 1511 1048 c 0
 1462 1139 1392 1208 1300 1258 c 0
 1210 1306 1105 1331 987 1331 c 0
 838 1331 709 1300 599 1238 c 0
 489 1177 405 1089 347 974 c 0
 289 860 260 728 260 578 c 0
 260 375 314 218 421 109 c 0
 528 0 683 -55 885 -55 c 0
 1025 -55 1170 -26 1321 31 c 1
 1321 -102 l 1
 1193 -158 1048 -186 885 -186 c 0
 643 -186 455 -120 322 14 c 0
 188 146 121 332 121 571 c 0
 121 744 157 899 228 1034 c 0
 299 1169 401 1274 533 1348 c 0
 665 1423 816 1460 987 1460 c 0
 1130 1460 1258 1430 1370 1370 c 0
 1481 1309 1568 1224 1628 1112 c 0
 1690 1002 1720 874 1720 729 c 0
686 598 m 0
 686 429 751 344 881 344 c 0
 1019 344 1094 448 1106 657 c 2
 1120 918 l 1
 1072 931 1020 938 963 938 c 0
 876 938 808 908 760 848 c 0
 710 788 686 705 686 598 c 0
EndSplineSet
EndChar

StartChar: A
Encoding: 65 65 36
Width: 1296
Flags: HW
LayerCount: 3
Fore
SplineSet
1077 123 m 1
 938 465 l 1
 352 465 l 1
 222 111 l 1
 50 111 l 1
 578 1468 l 1
 721 1468 l 1
 1245 123 l 1
 1077 123 l 1
885 618 m 1
 715 1071 l 2
 693 1128 670 1199 647 1282 c 1
 632 1218 611 1148 584 1071 c 2
 412 618 l 1
 885 618 l 1
EndSplineSet
EndChar

StartChar: B
Encoding: 66 66 37
Width: 1327
Flags: HW
LayerCount: 3
Fore
SplineSet
201 1462 m 1
 614 1462 l 2
 808 1462 948 1433 1035 1375 c 0
 1122 1317 1165 1225 1165 1100 c 0
 1165 1013 1141 942 1092 886 c 0
 1044 829 974 793 881 776 c 1
 881 766 l 1
 1103 728 1190 652 1209 450 c 0
 1219.82875748 334.873209988 1262 328 1175 226 c 0
 1055.19056011 85.5337601293 961.865379788 81.2432406941 809 82 c 2
 203 85 l 1
 201 1462 l 1
371 836 m 1
 651 836 l 2
 771 836 857 855 910 892 c 0
 963 930 989 994 989 1083 c 0
 989 1165 960 1224 901 1260 c 0
 842 1297 749 1315 621 1315 c 2
 371 1315 l 1
 371 836 l 1
371 692 m 1
 371 145 l 1
 676 145 l 2
 794 145 883 168 942 214 c 0
 1002 259 1032 331 1032 428 c 0
 1032 519 1002 585 940 628 c 0
 880 671 787 692 662 692 c 2
 371 692 l 1
EndSplineSet
EndChar

StartChar: C
Encoding: 67 67 38
Width: 1292
Flags: HW
LayerCount: 3
Fore
SplineSet
827 1331 m 0
 666 1331 540 1278 446 1170 c 0
 354 1064 307 917 307 731 c 0
 307 540 353.070491338 392.916836062 442 288 c 0
 531 183 668 228 834 228 c 0
 936 228 1045 242 1176 279 c 1
 1173 171 l 1
 1072 133 959 102 810 102 c 0
 595 102 452.8828125 90.0029296875 336 222 c 0
 220 353 125 492 125 733 c 0
 125 884 153 1016 210 1129 c 0
 266 1242 347 1330 454 1391 c 0
 560 1452 685 1483 829 1483 c 0
 982 1483 1116 1455 1231 1399 c 1
 1159 1253 l 1
 1048 1305 938 1331 827 1331 c 0
EndSplineSet
EndChar

StartChar: D
Encoding: 68 68 39
Width: 1493
Flags: W
LayerCount: 3
Fore
SplineSet
1368 745 m 0
 1368 504 1302 319 1172 192 c 0
 1040 64 852 0 606 0 c 2
 201 0 l 1
 201 1462 l 1
 649 1462 l 2
 876 1462 1053 1399 1179 1273 c 0
 1305 1147 1368 971 1368 745 c 0
1188 739 m 0
 1188 930 1140 1073 1044 1170 c 0
 949 1267 807 1315 618 1315 c 2
 371 1315 l 1
 371 147 l 1
 578 147 l 2
 781 147 933 197 1035 296 c 0
 1137 396 1188 544 1188 739 c 0
EndSplineSet
EndChar

StartChar: E
Encoding: 69 69 40
Width: 1139
Flags: W
LayerCount: 3
Fore
SplineSet
1016 0 m 1
 201 0 l 1
 201 1462 l 1
 1016 1462 l 1
 1016 1311 l 1
 371 1311 l 1
 371 840 l 1
 977 840 l 1
 977 690 l 1
 371 690 l 1
 371 152 l 1
 1016 152 l 1
 1016 0 l 1
EndSplineSet
EndChar

StartChar: F
Encoding: 70 70 41
Width: 1057
Flags: W
LayerCount: 3
Fore
SplineSet
371 0 m 1
 201 0 l 1
 201 1462 l 1
 1016 1462 l 1
 1016 1311 l 1
 371 1311 l 1
 371 776 l 1
 977 776 l 1
 977 625 l 1
 371 625 l 1
 371 0 l 1
EndSplineSet
EndChar

StartChar: G
Encoding: 71 71 42
Width: 1491
Flags: W
LayerCount: 3
Fore
SplineSet
844 766 m 1
 1341 766 l 1
 1341 55 l 1
 1264 30 1185 12 1105 -1 c 0
 1025 -14 932 -20 827 -20 c 0
 606 -20 433 46 310 178 c 0
 187 309 125 494 125 731 c 0
 125 883 156 1016 216 1130 c 0
 278 1245 365 1332 480 1392 c 0
 595 1453 729 1483 883 1483 c 0
 1039 1483 1184 1454 1319 1397 c 1
 1253 1247 l 1
 1121 1303 994 1331 872 1331 c 0
 694 1331 555 1278 455 1172 c 0
 355 1066 305 919 305 731 c 0
 305 534 353 384 450 282 c 0
 546 180 687 129 874 129 c 0
 975 129 1074 141 1171 164 c 1
 1171 614 l 1
 844 614 l 1
 844 766 l 1
EndSplineSet
EndChar

StartChar: H
Encoding: 72 72 43
Width: 1511
Flags: W
LayerCount: 3
Fore
SplineSet
1311 0 m 1
 1141 0 l 1
 1141 688 l 1
 371 688 l 1
 371 0 l 1
 201 0 l 1
 201 1462 l 1
 371 1462 l 1
 371 840 l 1
 1141 840 l 1
 1141 1462 l 1
 1311 1462 l 1
 1311 0 l 1
EndSplineSet
EndChar

StartChar: I.alt
Encoding: 258 -1 44
Width: 682
Flags: W
LayerCount: 3
Fore
SplineSet
598 0 m 1
 84 0 l 1
 84 98 l 1
 256 133 l 1
 256 1327 l 1
 84 1364 l 1
 84 1462 l 1
 598 1462 l 1
 598 1364 l 1
 426 1327 l 1
 426 133 l 1
 598 98 l 1
 598 0 l 1
EndSplineSet
EndChar

StartChar: J
Encoding: 74 74 45
Width: 547
Flags: W
LayerCount: 3
Fore
SplineSet
-12 -385 m 0
 -75 -385 -124 -376 -160 -358 c 1
 -160 -213 l 1
 -113 -226 -63 -233 -12 -233 c 0
 54 -233 104 -213 138 -173 c 0
 173 -133 190 -75 190 0 c 2
 190 1462 l 1
 360 1462 l 1
 360 14 l 2
 360 -113 328 -211 264 -280 c 0
 200 -350 108 -385 -12 -385 c 0
EndSplineSet
EndChar

StartChar: K
Encoding: 75 75 46
Width: 1257
Flags: W
LayerCount: 3
Fore
SplineSet
1257 0 m 1
 1057 0 l 1
 524 709 l 1
 371 573 l 1
 371 0 l 1
 201 0 l 1
 201 1462 l 1
 371 1462 l 1
 371 737 l 1
 1034 1462 l 1
 1235 1462 l 1
 647 827 l 1
 1257 0 l 1
EndSplineSet
EndChar

StartChar: L
Encoding: 76 76 47
Width: 1063
Flags: W
LayerCount: 3
Fore
SplineSet
201 0 m 1
 201 1462 l 1
 371 1462 l 1
 371 154 l 1
 1016 154 l 1
 1016 0 l 1
 201 0 l 1
EndSplineSet
EndChar

StartChar: M
Encoding: 77 77 48
Width: 1849
Flags: W
LayerCount: 3
Fore
SplineSet
848 0 m 1
 352 1296 l 1
 344 1296 l 1
 353 1193 358 1071 358 930 c 2
 358 0 l 1
 201 0 l 1
 201 1462 l 1
 457 1462 l 1
 920 256 l 1
 928 256 l 1
 1395 1462 l 1
 1649 1462 l 1
 1649 0 l 1
 1479 0 l 1
 1479 942 l 2
 1479 1050 1484 1167 1493 1294 c 1
 1485 1294 l 1
 985 0 l 1
 848 0 l 1
EndSplineSet
EndChar

StartChar: N
Encoding: 78 78 49
Width: 1544
Flags: W
LayerCount: 3
Fore
SplineSet
1343 0 m 1
 1149 0 l 1
 350 1227 l 1
 342 1227 l 1
 353 1083 358 951 358 831 c 2
 358 0 l 1
 201 0 l 1
 201 1462 l 1
 393 1462 l 1
 1190 240 l 1
 1198 240 l 1
 1197 258 1194 316 1189 414 c 0
 1184 511 1183 581 1184 623 c 2
 1184 1462 l 1
 1343 1462 l 1
 1343 0 l 1
EndSplineSet
EndChar

StartChar: O
Encoding: 79 79 50
Width: 1595
Flags: W
LayerCount: 3
Fore
SplineSet
1470 733 m 0
 1470 499 1411 315 1292 181 c 0
 1174 47 1010 -20 799 -20 c 0
 584 -20 418 46 300 178 c 0
 184 309 125 495 125 735 c 0
 125 973 184 1158 301 1288 c 0
 418 1420 585 1485 801 1485 c 0
 1011 1485 1175 1418 1293 1285 c 0
 1411 1152 1470 968 1470 733 c 0
305 733 m 0
 305 535 347 385 432 282 c 0
 516 180 638 129 799 129 c 0
 961 129 1083 180 1166 282 c 0
 1249 384 1290 534 1290 733 c 0
 1290 930 1249 1079 1166 1180 c 0
 1084 1282 962 1333 801 1333 c 0
 639 1333 516 1282 432 1180 c 0
 347 1077 305 928 305 733 c 0
EndSplineSet
EndChar

StartChar: P
Encoding: 80 80 51
Width: 1233
Flags: W
LayerCount: 3
Fore
SplineSet
1128 1036 m 0
 1128 888 1078 774 976 694 c 0
 876 615 731 575 543 575 c 2
 371 575 l 1
 371 0 l 1
 201 0 l 1
 201 1462 l 1
 580 1462 l 2
 945 1462 1128 1320 1128 1036 c 0
371 721 m 1
 524 721 l 2
 675 721 784 745 851 794 c 0
 918 843 952 921 952 1028 c 0
 952 1125 920 1197 857 1244 c 0
 794 1291 695 1315 561 1315 c 2
 371 1315 l 1
 371 721 l 1
EndSplineSet
EndChar

StartChar: Q
Encoding: 81 81 52
Width: 1595
Flags: W
LayerCount: 3
Fore
SplineSet
1470 733 m 0
 1470 546 1432 390 1357 266 c 0
 1282 142 1175 58 1038 14 c 1
 1386 -348 l 1
 1139 -348 l 1
 854 -18 l 1
 799 -20 l 1
 584 -20 418 46 300 178 c 0
 184 309 125 495 125 735 c 0
 125 973 184 1158 301 1288 c 0
 418 1420 585 1485 801 1485 c 0
 1011 1485 1175 1418 1293 1285 c 0
 1411 1152 1470 968 1470 733 c 0
305 733 m 0
 305 535 347 385 432 282 c 0
 516 180 638 129 799 129 c 0
 961 129 1083 180 1166 282 c 0
 1249 384 1290 534 1290 733 c 0
 1290 930 1249 1079 1166 1180 c 0
 1084 1282 962 1333 801 1333 c 0
 639 1333 516 1282 432 1180 c 0
 347 1077 305 928 305 733 c 0
EndSplineSet
EndChar

StartChar: R
Encoding: 82 82 53
Width: 1266
Flags: W
LayerCount: 3
Fore
SplineSet
371 608 m 1
 371 0 l 1
 201 0 l 1
 201 1462 l 1
 602 1462 l 2
 781 1462 914 1428 1000 1359 c 0
 1085 1290 1128 1187 1128 1049 c 0
 1128 856 1030 725 834 657 c 1
 1231 0 l 1
 1030 0 l 1
 676 608 l 1
 371 608 l 1
371 754 m 1
 604 754 l 2
 724 754 812 778 868 826 c 0
 924 873 952 945 952 1040 c 0
 952 1137 924 1206 866 1249 c 0
 810 1292 718 1313 592 1313 c 2
 371 1313 l 1
 371 754 l 1
EndSplineSet
EndChar

StartChar: S
Encoding: 83 83 54
Width: 1124
Flags: W
LayerCount: 3
Fore
SplineSet
1026 389 m 0
 1026 260 979 160 886 88 c 0
 793 16 666 -20 506 -20 c 0
 333 -20 199 2 106 47 c 1
 106 211 l 1
 166 186 231 166 302 151 c 0
 373 136 443 129 512 129 c 0
 625 129 711 150 768 194 c 0
 825 236 854 296 854 373 c 0
 854 424 844 465 824 498 c 0
 803 530 769 560 722 587 c 0
 674 614 601 645 504 680 c 0
 368 729 271 786 212 853 c 0
 154 920 125 1007 125 1114 c 0
 125 1227 167 1316 252 1383 c 0
 337 1450 449 1483 588 1483 c 0
 733 1483 867 1456 989 1403 c 1
 936 1255 l 1
 815 1306 698 1331 584 1331 c 0
 494 1331 424 1312 373 1273 c 0
 322 1234 297 1181 297 1112 c 0
 297 1061 306 1020 325 988 c 0
 344 955 375 926 420 898 c 0
 464 872 532 842 623 809 c 0
 776 754 882 696 940 633 c 0
 997 570 1026 489 1026 389 c 0
EndSplineSet
EndChar

StartChar: T
Encoding: 84 84 55
Width: 1133
Flags: W
LayerCount: 3
Fore
SplineSet
651 0 m 1
 481 0 l 1
 481 1311 l 1
 18 1311 l 1
 18 1462 l 1
 1114 1462 l 1
 1114 1311 l 1
 651 1311 l 1
 651 0 l 1
EndSplineSet
EndChar

StartChar: U
Encoding: 85 85 56
Width: 1491
Flags: W
LayerCount: 3
Fore
SplineSet
1305 1462 m 1
 1305 516 l 2
 1305 349 1255 218 1154 123 c 0
 1053 28 915 -20 739 -20 c 0
 563 -20 427 28 330 124 c 0
 234 220 186 352 186 520 c 2
 186 1462 l 1
 356 1462 l 1
 356 508 l 2
 356 386 389 292 456 227 c 0
 523 162 621 129 750 129 c 0
 873 129 968 162 1035 228 c 0
 1102 293 1135 387 1135 510 c 2
 1135 1462 l 1
 1305 1462 l 1
EndSplineSet
EndChar

StartChar: V
Encoding: 86 86 57
Width: 1219
Flags: W
LayerCount: 3
Fore
SplineSet
1036 1462 m 1
 1219 1462 l 1
 692 0 l 1
 524 0 l 1
 0 1462 l 1
 180 1462 l 1
 516 516 l 2
 555 407 585 302 608 199 c 1
 632 307 663 415 702 522 c 2
 1036 1462 l 1
EndSplineSet
EndChar

StartChar: W
Encoding: 87 87 58
Width: 1896
Flags: W
LayerCount: 3
Fore
SplineSet
1477 0 m 1
 1309 0 l 1
 1014 979 l 2
 1000 1022 984 1077 967 1143 c 0
 950 1209 941 1249 940 1262 c 1
 925 1174 902 1078 870 973 c 2
 584 0 l 1
 416 0 l 1
 27 1462 l 1
 207 1462 l 1
 438 559 l 2
 470 432 493 318 508 215 c 1
 526 337 553 456 588 573 c 2
 850 1462 l 1
 1030 1462 l 1
 1305 565 l 2
 1337 462 1364 345 1386 215 c 1
 1399 310 1423 425 1458 561 c 2
 1688 1462 l 1
 1868 1462 l 1
 1477 0 l 1
EndSplineSet
EndChar

StartChar: X
Encoding: 88 88 59
Width: 1182
Flags: W
LayerCount: 3
Fore
SplineSet
1174 0 m 1
 981 0 l 1
 588 643 l 1
 188 0 l 1
 8 0 l 1
 494 764 l 1
 41 1462 l 1
 229 1462 l 1
 592 883 l 1
 958 1462 l 1
 1139 1462 l 1
 686 770 l 1
 1174 0 l 1
EndSplineSet
EndChar

StartChar: Y
Encoding: 89 89 60
Width: 1147
Flags: W
LayerCount: 3
Fore
SplineSet
573 731 m 1
 963 1462 l 1
 1147 1462 l 1
 659 567 l 1
 659 0 l 1
 487 0 l 1
 487 559 l 1
 0 1462 l 1
 186 1462 l 1
 573 731 l 1
EndSplineSet
EndChar

StartChar: Z
Encoding: 90 90 61
Width: 1169
Flags: W
LayerCount: 3
Fore
SplineSet
1087 0 m 1
 82 0 l 1
 82 133 l 1
 858 1309 l 1
 106 1309 l 1
 106 1462 l 1
 1065 1462 l 1
 1065 1329 l 1
 289 154 l 1
 1087 154 l 1
 1087 0 l 1
EndSplineSet
EndChar

StartChar: bracketleft
Encoding: 91 91 62
Width: 674
Flags: W
LayerCount: 3
Fore
SplineSet
623 -324 m 1
 166 -324 l 1
 166 1462 l 1
 623 1462 l 1
 623 1321 l 1
 334 1321 l 1
 334 -182 l 1
 623 -182 l 1
 623 -324 l 1
EndSplineSet
EndChar

StartChar: backslash
Encoding: 92 92 63
Width: 752
Flags: W
LayerCount: 3
Fore
SplineSet
186 1462 m 1
 733 0 l 1
 567 0 l 1
 23 1462 l 1
 186 1462 l 1
EndSplineSet
EndChar

StartChar: bracketright
Encoding: 93 93 64
Width: 674
Flags: W
LayerCount: 3
Fore
SplineSet
51 -182 m 1
 340 -182 l 1
 340 1321 l 1
 51 1321 l 1
 51 1462 l 1
 508 1462 l 1
 508 -324 l 1
 51 -324 l 1
 51 -182 l 1
EndSplineSet
EndChar

StartChar: asciicircum
Encoding: 94 94 65
Width: 1110
Flags: W
LayerCount: 3
Fore
SplineSet
49 551 m 1
 483 1473 l 1
 582 1473 l 1
 1059 551 l 1
 907 551 l 1
 535 1296 l 1
 201 551 l 1
 49 551 l 1
EndSplineSet
EndChar

StartChar: underscore
Encoding: 95 95 66
Width: 918
Flags: W
LayerCount: 3
Fore
SplineSet
922 -315 m 1
 -4 -315 l 1
 -4 -184 l 1
 922 -184 l 1
 922 -315 l 1
EndSplineSet
EndChar

StartChar: grave
Encoding: 96 96 67
Width: 1182
Flags: W
LayerCount: 3
Fore
SplineSet
786 1241 m 1
 676 1241 l 1
 633 1276 581 1325 522 1389 c 0
 463 1453 420 1506 393 1548 c 1
 393 1569 l 1
 596 1569 l 1
 617 1523 647 1470 685 1410 c 0
 723 1349 757 1301 786 1266 c 1
 786 1241 l 1
EndSplineSet
EndChar

StartChar: a
Encoding: 97 97 68
Width: 1139
Flags: W
LayerCount: 3
Fore
SplineSet
850 0 m 1
 817 156 l 1
 809 156 l 1
 754 87 700 41 646 16 c 0
 591 -8 523 -20 442 -20 c 0
 333 -20 248 8 186 64 c 0
 125 120 94 200 94 303 c 0
 94 524 271 640 625 651 c 2
 811 657 l 1
 811 725 l 2
 811 811 792 874 756 916 c 0
 718 956 659 977 578 977 c 0
 487 977 383 949 268 893 c 1
 217 1020 l 1
 271 1049 330 1072 394 1089 c 0
 459 1106 523 1114 588 1114 c 0
 719 1114 816 1085 878 1027 c 0
 942 969 973 876 973 748 c 2
 973 0 l 1
 850 0 l 1
475 117 m 0
 578 117 660 145 718 202 c 0
 778 259 807 338 807 440 c 2
 807 539 l 1
 641 532 l 2
 509 527 414 507 356 470 c 0
 297 434 268 378 268 301 c 0
 268 241 286 195 322 164 c 0
 359 133 410 117 475 117 c 0
EndSplineSet
EndChar

StartChar: b
Encoding: 98 98 69
Width: 1255
Flags: W
LayerCount: 3
Fore
SplineSet
686 1114 m 0
 830 1114 942 1065 1022 966 c 0
 1101 868 1141 729 1141 549 c 0
 1141 369 1101 229 1020 130 c 0
 940 30 829 -20 686 -20 c 0
 615 -20 550 -7 490 20 c 0
 432 46 382 86 342 141 c 1
 330 141 l 1
 295 0 l 1
 176 0 l 1
 176 1556 l 1
 342 1556 l 1
 342 1178 l 2
 342 1093 339 1017 334 950 c 1
 342 950 l 1
 419 1059 534 1114 686 1114 c 0
662 975 m 0
 549 975 467 942 417 878 c 0
 367 812 342 703 342 549 c 0
 342 395 368 285 419 218 c 0
 470 152 553 119 666 119 c 0
 768 119 844 156 894 230 c 0
 944 305 969 412 969 551 c 0
 969 694 944 800 894 870 c 0
 844 940 767 975 662 975 c 0
EndSplineSet
EndChar

StartChar: c
Encoding: 99 99 70
Width: 975
Flags: W
LayerCount: 3
Fore
SplineSet
614 -20 m 0
 455 -20 332 29 246 126 c 0
 158 224 115 362 115 541 c 0
 115 724 159 866 248 966 c 0
 336 1066 462 1116 625 1116 c 0
 678 1116 730 1110 783 1099 c 0
 836 1088 877 1074 907 1059 c 1
 856 918 l 1
 819 933 779 945 736 954 c 0
 693 964 654 969 621 969 c 0
 398 969 287 827 287 543 c 0
 287 408 314 305 368 233 c 0
 423 161 503 125 610 125 c 0
 701 125 795 145 891 184 c 1
 891 37 l 1
 818 -1 725 -20 614 -20 c 0
EndSplineSet
EndChar

StartChar: d
Encoding: 100 100 71
Width: 1255
Flags: W
LayerCount: 3
Fore
SplineSet
922 147 m 1
 913 147 l 1
 836 36 722 -20 569 -20 c 0
 426 -20 314 29 234 127 c 0
 155 225 115 364 115 545 c 0
 115 726 155 866 235 966 c 0
 315 1066 426 1116 569 1116 c 0
 718 1116 832 1062 911 954 c 1
 924 954 l 1
 917 1033 l 1
 913 1110 l 1
 913 1556 l 1
 1079 1556 l 1
 1079 0 l 1
 944 0 l 1
 922 147 l 1
590 119 m 0
 703 119 786 150 836 212 c 0
 888 273 913 373 913 510 c 2
 913 545 l 2
 913 700 887 811 836 878 c 0
 784 944 701 977 588 977 c 0
 491 977 416 939 364 864 c 0
 313 788 287 681 287 543 c 0
 287 403 313 297 364 226 c 0
 415 155 491 119 590 119 c 0
EndSplineSet
EndChar

StartChar: e
Encoding: 101 101 72
Width: 1149
Flags: W
LayerCount: 3
Fore
SplineSet
639 -20 m 0
 477 -20 349 29 256 128 c 0
 162 227 115 364 115 539 c 0
 115 716 158 856 246 960 c 0
 332 1064 449 1116 596 1116 c 0
 733 1116 842 1071 922 980 c 0
 1002 890 1042 771 1042 623 c 2
 1042 518 l 1
 287 518 l 1
 290 389 323 292 384 225 c 0
 446 158 533 125 645 125 c 0
 763 125 880 150 995 199 c 1
 995 51 l 1
 936 26 881 8 828 -4 c 0
 776 -14 713 -20 639 -20 c 0
594 977 m 0
 506 977 436 948 384 891 c 0
 331 834 300 754 291 653 c 1
 864 653 l 1
 864 758 841 838 794 894 c 0
 747 949 681 977 594 977 c 0
EndSplineSet
EndChar

StartChar: f
Encoding: 102 102 73
Width: 694
Flags: W
LayerCount: 3
Fore
SplineSet
670 967 m 1
 391 967 l 1
 391 0 l 1
 225 0 l 1
 225 967 l 1
 29 967 l 1
 29 1042 l 1
 225 1102 l 1
 225 1163 l 2
 225 1432 343 1567 578 1567 c 0
 636 1567 704 1555 782 1532 c 1
 739 1399 l 1
 675 1420 620 1430 575 1430 c 0
 512 1430 466 1409 436 1368 c 0
 406 1326 391 1259 391 1167 c 2
 391 1096 l 1
 670 1096 l 1
 670 967 l 1
EndSplineSet
EndChar

StartChar: g
Encoding: 103 103 74
Width: 1122
Flags: W
LayerCount: 3
Fore
SplineSet
1073 1096 m 1
 1073 991 l 1
 870 967 l 1
 889 944 905 913 920 876 c 0
 935 838 942 795 942 748 c 0
 942 641 905 555 832 491 c 0
 759 427 658 395 530 395 c 0
 497 395 467 398 438 403 c 1
 367 366 332 319 332 262 c 0
 332 232 344 210 369 196 c 0
 394 181 436 174 496 174 c 2
 690 174 l 2
 809 174 900 149 964 99 c 0
 1027 49 1059 -24 1059 -119 c 0
 1059 -240 1010 -333 913 -396 c 0
 816 -460 674 -492 487 -492 c 0
 344 -492 233 -465 156 -412 c 0
 78 -359 39 -283 39 -186 c 0
 39 -119 60 -62 103 -13 c 0
 146 36 206 69 283 86 c 1
 255 99 232 118 212 145 c 0
 194 172 184 203 184 238 c 0
 184 278 195 313 216 343 c 0
 237 373 271 402 317 430 c 1
 260 453 214 493 178 549 c 0
 143 605 125 669 125 741 c 0
 125 861 161 954 233 1018 c 0
 305 1084 407 1116 539 1116 c 0
 596 1116 648 1109 694 1096 c 1
 1073 1096 l 1
199 -184 m 0
 199 -243 224 -288 274 -319 c 0
 324 -350 396 -365 489 -365 c 0
 628 -365 732 -344 798 -302 c 0
 866 -261 899 -204 899 -133 c 0
 899 -74 881 -32 844 -10 c 0
 807 14 738 25 637 25 c 2
 438 25 l 2
 363 25 304 7 262 -29 c 0
 220 -65 199 -117 199 -184 c 0
289 745 m 0
 289 668 311 610 354 571 c 0
 397 532 458 512 535 512 c 0
 697 512 778 591 778 748 c 0
 778 913 696 995 532 995 c 0
 454 995 394 974 352 932 c 0
 310 890 289 828 289 745 c 0
EndSplineSet
EndChar

StartChar: h
Encoding: 104 104 75
Width: 1257
Flags: W
LayerCount: 3
Fore
SplineSet
926 0 m 1
 926 709 l 2
 926 798 906 865 865 909 c 0
 824 953 761 975 674 975 c 0
 559 975 474 944 422 881 c 0
 368 818 342 716 342 573 c 2
 342 0 l 1
 176 0 l 1
 176 1556 l 1
 342 1556 l 1
 342 1085 l 2
 342 1028 339 981 334 944 c 1
 344 944 l 1
 377 997 423 1038 484 1068 c 0
 544 1099 613 1114 690 1114 c 0
 824 1114 924 1082 992 1018 c 0
 1058 955 1092 854 1092 715 c 2
 1092 0 l 1
 926 0 l 1
EndSplineSet
EndChar

StartChar: i
Encoding: 105 105 76
Width: 518
Flags: W
LayerCount: 3
Fore
SplineSet
342 0 m 1
 176 0 l 1
 176 1096 l 1
 342 1096 l 1
 342 0 l 1
162 1393 m 0
 162 1431 171 1459 190 1476 c 0
 209 1494 232 1503 260 1503 c 0
 287 1503 310 1494 329 1476 c 0
 348 1458 358 1430 358 1393 c 0
 358 1356 348 1328 329 1310 c 0
 310 1291 287 1282 260 1282 c 0
 232 1282 209 1291 190 1310 c 0
 171 1328 162 1356 162 1393 c 0
EndSplineSet
EndChar

StartChar: j
Encoding: 106 106 77
Width: 518
Flags: W
LayerCount: 3
Fore
SplineSet
43 -492 m 0
 -20 -492 -72 -484 -111 -467 c 1
 -111 -332 l 1
 -65 -345 -20 -352 25 -352 c 0
 77 -352 115 -338 140 -310 c 0
 164 -281 176 -238 176 -180 c 2
 176 1096 l 1
 342 1096 l 1
 342 -168 l 2
 342 -384 242 -492 43 -492 c 0
162 1393 m 0
 162 1431 171 1459 190 1476 c 0
 209 1494 232 1503 260 1503 c 0
 287 1503 310 1494 329 1476 c 0
 348 1458 358 1430 358 1393 c 0
 358 1356 348 1328 329 1310 c 0
 310 1291 287 1282 260 1282 c 0
 232 1282 209 1291 190 1310 c 0
 171 1328 162 1356 162 1393 c 0
EndSplineSet
EndChar

StartChar: k
Encoding: 107 107 78
Width: 1075
Flags: W
LayerCount: 3
Fore
SplineSet
340 561 m 1
 369 602 412 655 471 721 c 2
 825 1096 l 1
 1022 1096 l 1
 578 629 l 1
 1053 0 l 1
 852 0 l 1
 465 518 l 1
 340 410 l 1
 340 0 l 1
 176 0 l 1
 176 1556 l 1
 340 1556 l 1
 340 731 l 2
 340 694 337 638 332 561 c 1
 340 561 l 1
EndSplineSet
EndChar

StartChar: l
Encoding: 108 108 79
Width: 518
Flags: W
LayerCount: 3
Fore
SplineSet
342 0 m 1
 176 0 l 1
 176 1556 l 1
 342 1556 l 1
 342 0 l 1
EndSplineSet
EndChar

StartChar: m
Encoding: 109 109 80
Width: 1905
Flags: W
LayerCount: 3
Fore
SplineSet
1573 0 m 1
 1573 713 l 2
 1573 800 1554 866 1517 910 c 0
 1480 953 1422 975 1343 975 c 0
 1240 975 1163 945 1114 886 c 0
 1065 827 1040 735 1040 612 c 2
 1040 0 l 1
 874 0 l 1
 874 713 l 2
 874 800 855 866 818 910 c 0
 781 953 722 975 643 975 c 0
 539 975 463 944 414 882 c 0
 366 819 342 717 342 575 c 2
 342 0 l 1
 176 0 l 1
 176 1096 l 1
 311 1096 l 1
 338 946 l 1
 346 946 l 1
 377 999 422 1041 478 1071 c 0
 536 1101 599 1116 670 1116 c 0
 841 1116 953 1054 1006 930 c 1
 1014 930 l 1
 1047 987 1094 1033 1156 1066 c 0
 1218 1099 1289 1116 1368 1116 c 0
 1492 1116 1585 1084 1646 1020 c 0
 1708 957 1739 855 1739 715 c 2
 1739 0 l 1
 1573 0 l 1
EndSplineSet
EndChar

StartChar: n
Encoding: 110 110 81
Width: 1257
Flags: W
LayerCount: 3
Fore
SplineSet
926 0 m 1
 926 709 l 2
 926 798 906 865 865 909 c 0
 824 953 761 975 674 975 c 0
 559 975 475 944 422 882 c 0
 369 820 342 718 342 575 c 2
 342 0 l 1
 176 0 l 1
 176 1096 l 1
 311 1096 l 1
 338 946 l 1
 346 946 l 1
 380 1000 428 1042 489 1072 c 0
 550 1101 619 1116 694 1116 c 0
 826 1116 925 1084 992 1020 c 0
 1059 957 1092 855 1092 715 c 2
 1092 0 l 1
 926 0 l 1
EndSplineSet
EndChar

StartChar: o
Encoding: 111 111 82
Width: 1237
Flags: W
LayerCount: 3
Fore
SplineSet
1122 549 m 0
 1122 370 1077 231 987 130 c 0
 897 30 773 -20 614 -20 c 0
 516 -20 429 3 353 49 c 0
 277 95 218 161 177 247 c 0
 136 333 115 434 115 549 c 0
 115 728 160 867 249 966 c 0
 338 1066 462 1116 621 1116 c 0
 774 1116 896 1065 986 963 c 0
 1077 861 1122 723 1122 549 c 0
287 549 m 0
 287 409 315 302 371 229 c 0
 427 156 509 119 618 119 c 0
 727 119 809 156 866 228 c 0
 922 302 950 408 950 549 c 0
 950 688 922 794 866 866 c 0
 809 939 726 975 616 975 c 0
 507 975 425 939 370 868 c 0
 315 797 287 690 287 549 c 0
EndSplineSet
EndChar

StartChar: p
Encoding: 112 112 83
Width: 1255
Flags: W
LayerCount: 3
Fore
SplineSet
686 -20 m 0
 615 -20 550 -7 490 20 c 0
 432 46 382 86 342 141 c 1
 330 141 l 1
 338 77 342 16 342 -41 c 2
 342 -492 l 1
 176 -492 l 1
 176 1096 l 1
 311 1096 l 1
 334 946 l 1
 342 946 l 1
 385 1006 434 1049 491 1076 c 0
 548 1103 613 1116 686 1116 c 0
 831 1116 944 1066 1022 967 c 0
 1102 868 1141 728 1141 549 c 0
 1141 369 1101 229 1020 130 c 0
 940 30 829 -20 686 -20 c 0
662 975 m 0
 550 975 469 944 419 882 c 0
 369 820 343 721 342 586 c 2
 342 549 l 2
 342 395 368 285 419 218 c 0
 470 152 553 119 666 119 c 0
 761 119 835 157 888 234 c 0
 942 311 969 416 969 551 c 0
 969 688 942 792 888 866 c 0
 835 938 759 975 662 975 c 0
EndSplineSet
EndChar

StartChar: q
Encoding: 113 113 84
Width: 1255
Flags: W
LayerCount: 3
Fore
SplineSet
590 119 m 0
 701 119 781 149 832 208 c 0
 883 267 910 367 913 508 c 2
 913 545 l 2
 913 698 887 809 835 876 c 0
 783 943 701 977 588 977 c 0
 491 977 416 939 364 864 c 0
 313 788 287 681 287 543 c 0
 287 405 312 300 364 228 c 0
 414 155 490 119 590 119 c 0
565 -20 m 0
 424 -20 313 30 234 129 c 0
 155 228 115 367 115 545 c 0
 115 724 155 864 235 965 c 0
 315 1066 426 1116 569 1116 c 0
 719 1116 834 1059 915 946 c 1
 924 946 l 1
 948 1096 l 1
 1079 1096 l 1
 1079 -492 l 1
 913 -492 l 1
 913 -23 l 2
 913 44 917 100 924 147 c 1
 911 147 l 1
 834 36 719 -20 565 -20 c 0
EndSplineSet
EndChar

StartChar: r
Encoding: 114 114 85
Width: 836
Flags: W
LayerCount: 3
Fore
SplineSet
676 1116 m 0
 725 1116 768 1112 807 1104 c 1
 784 950 l 1
 739 960 699 965 664 965 c 0
 575 965 500 929 436 857 c 0
 374 785 342 695 342 588 c 2
 342 0 l 1
 176 0 l 1
 176 1096 l 1
 313 1096 l 1
 332 893 l 1
 340 893 l 1
 381 964 430 1019 487 1058 c 0
 544 1097 607 1116 676 1116 c 0
EndSplineSet
EndChar

StartChar: s
Encoding: 115 115 86
Width: 977
Flags: W
LayerCount: 3
Fore
SplineSet
883 299 m 0
 883 197 845 118 769 63 c 0
 693 8 586 -20 449 -20 c 0
 304 -20 190 3 109 49 c 1
 109 203 l 1
 162 176 218 155 278 140 c 0
 339 125 397 117 453 117 c 0
 540 117 606 131 653 158 c 0
 700 186 723 228 723 285 c 0
 723 328 704 364 668 394 c 0
 630 425 558 461 451 502 c 0
 349 540 276 573 234 602 c 0
 190 630 158 662 138 698 c 0
 116 734 106 777 106 827 c 0
 106 916 142 987 215 1038 c 0
 288 1090 387 1116 514 1116 c 0
 632 1116 747 1092 860 1044 c 1
 801 909 l 1
 691 954 591 977 502 977 c 0
 423 977 364 965 324 940 c 0
 284 915 264 881 264 838 c 0
 264 809 272 784 286 763 c 0
 302 742 326 723 359 704 c 0
 392 685 456 658 551 623 c 0
 681 576 769 528 814 480 c 0
 860 432 883 372 883 299 c 0
EndSplineSet
EndChar

StartChar: t
Encoding: 116 116 87
Width: 723
Flags: W
LayerCount: 3
Fore
SplineSet
530 117 m 0
 559 117 588 119 615 124 c 0
 642 128 664 132 680 137 c 1
 680 10 l 1
 662 1 636 -6 600 -12 c 0
 566 -17 534 -20 506 -20 c 0
 294 -20 188 92 188 315 c 2
 188 967 l 1
 31 967 l 1
 31 1047 l 1
 188 1116 l 1
 258 1350 l 1
 354 1350 l 1
 354 1096 l 1
 672 1096 l 1
 672 967 l 1
 354 967 l 1
 354 322 l 2
 354 256 370 205 401 170 c 0
 432 135 475 117 530 117 c 0
EndSplineSet
EndChar

StartChar: u
Encoding: 117 117 88
Width: 1257
Flags: W
LayerCount: 3
Fore
SplineSet
332 1096 m 1
 332 385 l 2
 332 296 352 229 393 185 c 0
 434 141 497 119 584 119 c 0
 699 119 782 150 836 213 c 0
 888 276 915 378 915 520 c 2
 915 1096 l 1
 1081 1096 l 1
 1081 0 l 1
 944 0 l 1
 920 147 l 1
 911 147 l 1
 877 93 830 52 770 23 c 0
 709 -6 640 -20 563 -20 c 0
 430 -20 330 12 264 75 c 0
 197 138 164 240 164 379 c 2
 164 1096 l 1
 332 1096 l 1
EndSplineSet
EndChar

StartChar: v
Encoding: 118 118 89
Width: 1026
Flags: W
LayerCount: 3
Fore
SplineSet
416 0 m 1
 0 1096 l 1
 178 1096 l 1
 414 446 l 2
 467 294 499 195 508 150 c 1
 516 150 l 1
 523 185 546 258 586 370 c 0
 624 480 712 723 848 1096 c 1
 1026 1096 l 1
 610 0 l 1
 416 0 l 1
EndSplineSet
EndChar

StartChar: w
Encoding: 119 119 90
Width: 1593
Flags: W
LayerCount: 3
Fore
SplineSet
1071 0 m 1
 870 643 l 2
 857 682 834 772 799 911 c 1
 791 911 l 1
 764 794 741 704 721 641 c 2
 514 0 l 1
 322 0 l 1
 23 1096 l 1
 197 1096 l 1
 268 821 322 611 358 467 c 0
 396 323 417 226 422 176 c 1
 430 176 l 1
 437 214 449 263 466 324 c 0
 482 384 496 432 508 467 c 2
 709 1096 l 1
 889 1096 l 1
 1085 467 l 2
 1122 352 1148 256 1161 178 c 1
 1169 178 l 1
 1172 202 1179 239 1190 289 c 0
 1202 339 1272 608 1399 1096 c 1
 1571 1096 l 1
 1268 0 l 1
 1071 0 l 1
EndSplineSet
EndChar

StartChar: x
Encoding: 120 120 91
Width: 1073
Flags: W
LayerCount: 3
Fore
SplineSet
440 561 m 1
 59 1096 l 1
 248 1096 l 1
 537 676 l 1
 825 1096 l 1
 1012 1096 l 1
 631 561 l 1
 1032 0 l 1
 844 0 l 1
 537 444 l 1
 227 0 l 1
 39 0 l 1
 440 561 l 1
EndSplineSet
EndChar

StartChar: y
Encoding: 121 121 92
Width: 1032
Flags: W
LayerCount: 3
Fore
SplineSet
2 1096 m 1
 180 1096 l 1
 420 471 l 2
 473 328 505 225 518 162 c 1
 526 162 l 1
 535 196 553 254 580 336 c 0
 608 419 699 672 852 1096 c 1
 1030 1096 l 1
 559 -152 l 2
 512 -275 458 -363 396 -414 c 0
 333 -466 257 -492 166 -492 c 0
 115 -492 65 -486 16 -475 c 1
 16 -342 l 1
 53 -350 94 -354 139 -354 c 0
 253 -354 334 -290 383 -162 c 2
 444 -6 l 1
 2 1096 l 1
EndSplineSet
EndChar

StartChar: z
Encoding: 122 122 93
Width: 958
Flags: W
LayerCount: 3
Fore
SplineSet
877 0 m 1
 82 0 l 1
 82 113 l 1
 680 967 l 1
 119 967 l 1
 119 1096 l 1
 862 1096 l 1
 862 967 l 1
 272 129 l 1
 877 129 l 1
 877 0 l 1
EndSplineSet
EndChar

StartChar: braceleft
Encoding: 123 123 94
Width: 776
Flags: W
LayerCount: 3
Fore
SplineSet
475 12 m 2
 475 -56 494 -105 534 -136 c 0
 572 -167 630 -183 705 -184 c 1
 705 -324 l 1
 578 -323 480 -294 411 -237 c 0
 342 -180 307 -101 307 2 c 2
 307 305 l 2
 307 374 286 424 244 454 c 0
 202 483 141 498 61 498 c 1
 61 639 l 1
 148 640 210 656 249 687 c 0
 288 718 307 765 307 829 c 2
 307 1135 l 2
 307 1238 343 1319 415 1376 c 0
 487 1433 584 1462 705 1462 c 1
 705 1323 l 1
 552 1319 475 1253 475 1124 c 2
 475 829 l 2
 475 686 401 601 252 575 c 1
 252 563 l 1
 401 537 475 452 475 309 c 2
 475 12 l 2
EndSplineSet
EndChar

StartChar: bar
Encoding: 124 124 95
Width: 1128
Flags: W
LayerCount: 3
Fore
SplineSet
494 1556 m 1
 635 1556 l 1
 635 -496 l 1
 494 -496 l 1
 494 1556 l 1
EndSplineSet
EndChar

StartChar: braceright
Encoding: 125 125 96
Width: 776
Flags: W
LayerCount: 3
Fore
SplineSet
522 575 m 1
 373 601 299 686 299 829 c 2
 299 1124 l 2
 299 1253 223 1319 72 1323 c 1
 72 1462 l 1
 195 1462 291 1433 362 1375 c 0
 432 1317 467 1237 467 1135 c 2
 467 829 l 2
 467 764 487 717 526 686 c 0
 565 656 628 640 715 639 c 1
 715 498 l 1
 634 498 572 483 530 454 c 0
 488 424 467 374 467 305 c 2
 467 2 l 2
 467 -100 433 -180 364 -236 c 0
 296 -294 199 -323 72 -324 c 1
 72 -184 l 1
 146 -183 202 -167 241 -136 c 0
 280 -105 299 -56 299 12 c 2
 299 309 l 2
 299 385 317 443 354 483 c 0
 391 523 447 550 522 563 c 1
 522 575 l 1
EndSplineSet
EndChar

StartChar: asciitilde
Encoding: 126 126 97
Width: 1171
Flags: W
LayerCount: 3
Fore
SplineSet
338 713 m 0
 303 713 264 702 222 680 c 0
 179 657 140 628 104 592 c 1
 104 743 l 1
 171 816 252 852 348 852 c 0
 393 852 435 847 472 838 c 0
 510 829 559 811 618 786 c 0
 662 767 700 754 733 744 c 0
 766 736 798 731 829 731 c 0
 865 731 904 742 947 763 c 0
 990 784 1029 814 1065 852 c 1
 1065 702 l 1
 997 629 916 592 821 592 c 0
 773 592 728 598 686 608 c 0
 644 620 599 636 551 657 c 0
 501 678 461 693 431 701 c 0
 401 709 370 713 338 713 c 0
EndSplineSet
EndChar

StartChar: exclamdown
Encoding: 161 161 99
Width: 547
Flags: W
LayerCount: 3
Fore
SplineSet
219 684 m 1
 324 684 l 1
 375 -373 l 1
 168 -373 l 1
 219 684 l 1
393 983 m 0
 393 893 353 848 272 848 c 0
 232 848 202 860 182 884 c 0
 162 907 152 940 152 983 c 0
 152 1025 162 1058 184 1082 c 0
 204 1106 234 1118 272 1118 c 0
 306 1118 335 1107 358 1086 c 0
 381 1065 393 1030 393 983 c 0
EndSplineSet
EndChar

StartChar: cent
Encoding: 162 162 100
Width: 1171
Flags: W
LayerCount: 3
Fore
SplineSet
971 240 m 1
 901 204 817 184 719 180 c 1
 719 -20 l 1
 586 -20 l 1
 586 186 l 1
 451 207 351 264 286 354 c 0
 222 446 190 574 190 741 c 0
 190 1080 322 1270 586 1311 c 1
 586 1483 l 1
 721 1483 l 1
 721 1319 l 1
 771 1317 820 1310 867 1300 c 0
 914 1288 954 1275 987 1260 c 1
 938 1120 l 1
 849 1154 769 1171 696 1171 c 0
 581 1171 497 1136 443 1066 c 0
 389 995 362 888 362 743 c 0
 362 602 388 497 442 430 c 0
 494 362 577 328 688 328 c 0
 782 328 876 348 971 387 c 1
 971 240 l 1
EndSplineSet
EndChar

StartChar: sterling
Encoding: 163 163 101
Width: 1171
Flags: W
LayerCount: 3
Fore
SplineSet
682 1481 m 0
 809 1481 929 1453 1042 1397 c 1
 981 1264 l 1
 878 1315 779 1341 684 1341 c 0
 602 1341 540 1320 498 1279 c 0
 457 1238 436 1170 436 1077 c 2
 436 782 l 1
 858 782 l 1
 858 655 l 1
 436 655 l 1
 436 434 l 2
 436 367 425 311 404 266 c 0
 382 221 346 183 297 154 c 1
 1092 154 l 1
 1092 0 l 1
 63 0 l 1
 63 141 l 1
 200 172 268 269 268 432 c 2
 268 655 l 1
 70 655 l 1
 70 782 l 1
 268 782 l 1
 268 1098 l 2
 268 1217 305 1310 380 1378 c 0
 455 1447 555 1481 682 1481 c 0
EndSplineSet
EndChar

StartChar: currency
Encoding: 164 164 102
Width: 1171
Flags: W
LayerCount: 3
Fore
SplineSet
184 723 m 0
 184 804 209 881 258 952 c 1
 123 1092 l 1
 217 1184 l 1
 352 1051 l 1
 421 1100 499 1124 586 1124 c 0
 671 1124 747 1100 815 1051 c 1
 952 1184 l 1
 1047 1092 l 1
 913 954 l 1
 962 879 987 802 987 723 c 0
 987 636 962 558 913 489 c 1
 1044 354 l 1
 952 262 l 1
 815 395 l 1
 747 348 671 324 586 324 c 0
 497 324 419 348 352 397 c 1
 217 264 l 1
 125 356 l 1
 258 492 l 1
 209 563 184 640 184 723 c 0
313 723 m 0
 313 648 339 584 392 531 c 0
 444 478 509 451 586 451 c 0
 663 451 728 478 781 530 c 0
 834 584 860 648 860 723 c 0
 860 799 833 864 780 918 c 0
 727 972 662 999 586 999 c 0
 509 999 444 972 392 917 c 0
 339 862 313 798 313 723 c 0
EndSplineSet
EndChar

StartChar: yen
Encoding: 165 165 103
Width: 1171
Flags: W
LayerCount: 3
Fore
SplineSet
584 735 m 1
 963 1462 l 1
 1137 1462 l 1
 721 692 l 1
 983 692 l 1
 983 565 l 1
 666 565 l 1
 666 395 l 1
 983 395 l 1
 983 268 l 1
 666 268 l 1
 666 0 l 1
 502 0 l 1
 502 268 l 1
 186 268 l 1
 186 395 l 1
 502 395 l 1
 502 565 l 1
 186 565 l 1
 186 692 l 1
 442 692 l 1
 31 1462 l 1
 209 1462 l 1
 584 735 l 1
EndSplineSet
EndChar

StartChar: brokenbar
Encoding: 166 166 104
Width: 1128
Flags: W
LayerCount: 3
Fore
SplineSet
494 1556 m 1
 635 1556 l 1
 635 780 l 1
 494 780 l 1
 494 1556 l 1
494 281 m 1
 635 281 l 1
 635 -496 l 1
 494 -496 l 1
 494 281 l 1
EndSplineSet
EndChar

StartChar: section
Encoding: 167 167 105
Width: 1057
Flags: W
LayerCount: 3
Fore
SplineSet
139 809 m 0
 139 866 153 918 182 964 c 0
 211 1009 251 1044 303 1069 c 1
 254 1096 215 1128 187 1164 c 0
 159 1202 145 1248 145 1305 c 0
 145 1386 180 1449 248 1496 c 0
 318 1542 418 1565 549 1565 c 0
 612 1565 670 1560 722 1550 c 0
 776 1541 834 1523 899 1497 c 1
 846 1366 l 1
 781 1392 726 1410 680 1418 c 0
 636 1428 588 1432 537 1432 c 0
 460 1432 402 1422 363 1402 c 0
 324 1383 305 1352 305 1309 c 0
 305 1269 326 1235 366 1207 c 0
 408 1179 479 1147 582 1110 c 0
 706 1065 793 1017 843 966 c 0
 893 916 918 855 918 784 c 0
 918 724 904 670 877 624 c 0
 850 576 811 539 762 512 c 1
 864 458 915 382 915 285 c 0
 915 192 876 120 798 68 c 0
 720 18 610 -8 469 -8 c 0
 324 -8 208 14 123 57 c 1
 123 205 l 1
 175 180 233 160 298 146 c 0
 363 130 422 123 477 123 c 0
 566 123 634 136 682 161 c 0
 728 186 752 223 752 270 c 0
 752 301 744 326 728 345 c 0
 712 364 686 384 650 403 c 0
 614 422 558 446 481 475 c 0
 386 510 317 542 272 572 c 0
 227 602 194 636 172 674 c 0
 150 712 139 757 139 809 c 0
285 829 m 0
 285 778 307 734 351 700 c 0
 395 664 473 627 584 586 c 2
 633 567 l 1
 724 620 770 684 770 758 c 0
 770 813 746 860 696 897 c 0
 648 934 561 972 438 1010 c 1
 393 997 356 974 328 941 c 0
 299 908 285 870 285 829 c 0
EndSplineSet
EndChar

StartChar: dieresis
Encoding: 168 168 106
Width: 1182
Flags: W
LayerCount: 3
Fore
SplineSet
309 1393 m 0
 309 1428 318 1453 336 1468 c 0
 353 1483 374 1491 399 1491 c 0
 424 1491 446 1483 464 1468 c 0
 483 1453 492 1428 492 1393 c 0
 492 1360 483 1335 464 1318 c 0
 446 1302 424 1294 399 1294 c 0
 374 1294 353 1302 336 1318 c 0
 318 1335 309 1360 309 1393 c 0
690 1393 m 0
 690 1428 699 1453 716 1468 c 0
 734 1483 755 1491 780 1491 c 0
 805 1491 826 1483 844 1468 c 0
 863 1453 872 1428 872 1393 c 0
 872 1360 863 1335 844 1318 c 0
 826 1302 805 1294 780 1294 c 0
 755 1294 734 1302 716 1318 c 0
 699 1335 690 1360 690 1393 c 0
EndSplineSet
EndChar

StartChar: copyright
Encoding: 169 169 107
Width: 1704
Flags: W
LayerCount: 3
Fore
SplineSet
893 1059 m 0
 810 1059 746 1030 700 972 c 0
 656 914 633 834 633 731 c 0
 633 619 654 536 696 482 c 0
 739 428 804 401 891 401 c 0
 948 401 1019 416 1102 446 c 1
 1102 322 l 1
 1070 309 1037 297 1004 288 c 0
 970 279 930 274 883 274 c 0
 754 274 654 314 585 394 c 0
 516 475 481 587 481 731 c 0
 481 870 518 981 592 1063 c 0
 665 1145 766 1186 893 1186 c 0
 978 1186 1060 1166 1139 1126 c 1
 1081 1008 l 1
 1009 1042 946 1059 893 1059 c 0
100 731 m 0
 100 864 133 989 200 1106 c 0
 267 1223 358 1315 475 1382 c 0
 592 1449 717 1483 852 1483 c 0
 985 1483 1110 1450 1227 1383 c 0
 1344 1316 1436 1225 1503 1108 c 0
 1570 991 1604 866 1604 731 c 0
 1604 600 1572 476 1507 361 c 0
 1442 246 1352 153 1235 84 c 0
 1118 15 991 -20 852 -20 c 0
 714 -20 587 14 470 84 c 0
 353 152 262 245 198 360 c 0
 132 475 100 599 100 731 c 0
205 731 m 0
 205 616 234 508 292 408 c 0
 350 307 429 228 530 170 c 0
 630 113 737 84 852 84 c 0
 968 84 1076 113 1175 171 c 0
 1274 229 1353 308 1412 406 c 0
 1470 506 1499 614 1499 731 c 0
 1499 847 1470 955 1412 1054 c 0
 1354 1153 1276 1232 1176 1290 c 0
 1078 1349 969 1378 852 1378 c 0
 736 1378 628 1349 529 1291 c 0
 430 1233 351 1154 292 1056 c 0
 234 956 205 848 205 731 c 0
EndSplineSet
EndChar

StartChar: ordfeminine
Encoding: 170 170 108
Width: 725
Flags: W
LayerCount: 3
Fore
SplineSet
532 801 m 1
 508 885 l 1
 447 820 369 788 276 788 c 0
 213 788 162 804 126 838 c 0
 88 870 70 921 70 989 c 0
 70 1057 96 1108 147 1144 c 0
 198 1178 279 1198 389 1202 c 2
 506 1206 l 1
 506 1245 l 2
 506 1334 457 1378 358 1378 c 0
 291 1378 223 1361 154 1327 c 1
 111 1423 l 1
 187 1460 269 1479 358 1479 c 0
 445 1479 511 1462 556 1426 c 0
 602 1392 625 1334 625 1253 c 2
 625 801 l 1
 532 801 l 1
193 989 m 0
 193 922 230 889 305 889 c 0
 439 889 506 949 506 1069 c 2
 506 1118 l 1
 408 1114 l 2
 333 1111 279 1100 244 1082 c 0
 210 1062 193 1032 193 989 c 0
EndSplineSet
EndChar

StartChar: guillemotleft
Encoding: 171 171 109
Width: 1018
Flags: W
LayerCount: 3
Fore
SplineSet
82 551 m 1
 424 958 l 1
 543 889 l 1
 254 539 l 1
 543 188 l 1
 424 117 l 1
 82 524 l 1
 82 551 l 1
477 551 m 1
 821 958 l 1
 938 889 l 1
 651 539 l 1
 938 188 l 1
 821 117 l 1
 477 524 l 1
 477 551 l 1
EndSplineSet
EndChar

StartChar: logicalnot
Encoding: 172 172 110
Width: 1171
Flags: W
LayerCount: 3
Fore
SplineSet
1065 791 m 1
 1065 264 l 1
 928 264 l 1
 928 653 l 1
 104 653 l 1
 104 791 l 1
 1065 791 l 1
EndSplineSet
EndChar

StartChar: registered
Encoding: 174 174 112
Width: 1704
Flags: W
LayerCount: 3
Fore
SplineSet
723 762 m 1
 831 762 l 2
 884 762 927 776 960 804 c 0
 992 831 1008 866 1008 909 c 0
 1008 959 994 995 965 1016 c 0
 936 1038 891 1049 829 1049 c 2
 723 1049 l 1
 723 762 l 1
1157 913 m 0
 1157 860 1143 812 1114 772 c 0
 1086 730 1046 700 995 680 c 1
 1233 285 l 1
 1065 285 l 1
 858 639 l 1
 723 639 l 1
 723 285 l 1
 575 285 l 1
 575 1176 l 1
 836 1176 l 2
 947 1176 1028 1154 1080 1111 c 0
 1131 1068 1157 1002 1157 913 c 0
100 731 m 0
 100 864 133 989 200 1106 c 0
 267 1223 358 1315 475 1382 c 0
 592 1449 717 1483 852 1483 c 0
 985 1483 1110 1450 1227 1383 c 0
 1344 1316 1436 1225 1503 1108 c 0
 1570 991 1604 866 1604 731 c 0
 1604 600 1572 476 1507 361 c 0
 1442 246 1352 153 1235 84 c 0
 1118 15 991 -20 852 -20 c 0
 714 -20 587 14 470 84 c 0
 353 152 262 245 198 360 c 0
 132 475 100 599 100 731 c 0
205 731 m 0
 205 616 234 508 292 408 c 0
 350 307 429 228 530 170 c 0
 630 113 737 84 852 84 c 0
 968 84 1076 113 1175 171 c 0
 1274 229 1353 308 1412 406 c 0
 1470 506 1499 614 1499 731 c 0
 1499 847 1470 955 1412 1054 c 0
 1354 1153 1276 1232 1176 1290 c 0
 1078 1349 969 1378 852 1378 c 0
 736 1378 628 1349 529 1291 c 0
 430 1233 351 1154 292 1056 c 0
 234 956 205 848 205 731 c 0
EndSplineSet
EndChar

StartChar: overscore
Encoding: 175 175 113
Width: 1024
Flags: W
LayerCount: 3
Fore
SplineSet
1030 1556 m 1
 -6 1556 l 1
 -6 1683 l 1
 1030 1683 l 1
 1030 1556 l 1
EndSplineSet
EndChar

StartChar: degree
Encoding: 176 176 114
Width: 877
Flags: W
LayerCount: 3
Fore
SplineSet
127 1171 m 0
 127 1258 157 1331 218 1392 c 0
 278 1453 351 1483 438 1483 c 0
 525 1483 598 1453 659 1392 c 0
 720 1332 750 1258 750 1171 c 0
 750 1115 736 1063 709 1016 c 0
 682 968 644 930 595 902 c 0
 546 874 494 860 438 860 c 0
 351 860 278 890 218 950 c 0
 157 1010 127 1084 127 1171 c 0
242 1171 m 0
 242 1116 262 1070 300 1032 c 0
 340 994 386 975 440 975 c 0
 493 975 539 994 578 1032 c 0
 616 1069 635 1116 635 1171 c 0
 635 1227 616 1274 578 1312 c 0
 541 1349 495 1368 440 1368 c 0
 385 1368 338 1349 300 1311 c 0
 261 1273 242 1226 242 1171 c 0
EndSplineSet
EndChar

StartChar: plusminus
Encoding: 177 177 115
Width: 1171
Flags: W
LayerCount: 3
Fore
SplineSet
653 791 m 1
 1065 791 l 1
 1065 653 l 1
 653 653 l 1
 653 227 l 1
 514 227 l 1
 514 653 l 1
 104 653 l 1
 104 791 l 1
 514 791 l 1
 514 1219 l 1
 653 1219 l 1
 653 791 l 1
104 1 m 1
 104 139 l 1
 1065 139 l 1
 1065 1 l 1
 104 1 l 1
EndSplineSet
EndChar

StartChar: twosuperior
Encoding: 178 178 116
Width: 711
Flags: W
LayerCount: 3
Fore
SplineSet
653 586 m 1
 49 586 l 1
 49 690 l 1
 285 920 l 2
 344 977 388 1022 415 1054 c 0
 442 1087 462 1116 472 1141 c 0
 484 1166 489 1197 489 1233 c 0
 489 1278 476 1312 449 1336 c 0
 422 1358 388 1370 346 1370 c 0
 311 1370 278 1364 245 1351 c 0
 212 1338 173 1315 127 1282 c 1
 61 1370 l 1
 148 1444 243 1481 344 1481 c 0
 432 1481 500 1459 550 1416 c 0
 598 1373 623 1314 623 1239 c 0
 623 1186 608 1134 578 1084 c 0
 549 1033 485 962 387 870 c 2
 213 705 l 1
 653 705 l 1
 653 586 l 1
EndSplineSet
EndChar

StartChar: threesuperior
Encoding: 179 179 117
Width: 711
Flags: W
LayerCount: 3
Fore
SplineSet
627 1255 m 0
 627 1202 613 1158 586 1124 c 0
 559 1089 522 1064 477 1049 c 1
 594 1018 653 948 653 840 c 0
 653 755 622 688 561 640 c 0
 500 593 413 569 301 569 c 0
 200 569 110 588 33 625 c 1
 33 748 l 1
 131 703 221 680 303 680 c 0
 444 680 514 734 514 842 c 0
 514 939 437 987 283 987 c 2
 166 987 l 1
 166 1094 l 1
 285 1094 l 2
 354 1094 404 1107 438 1134 c 0
 470 1160 487 1196 487 1241 c 0
 487 1282 474 1313 447 1336 c 0
 420 1359 385 1370 340 1370 c 0
 296 1370 255 1363 218 1348 c 0
 181 1334 143 1315 106 1292 c 1
 37 1382 l 1
 79 1412 123 1436 170 1454 c 0
 217 1472 271 1481 334 1481 c 0
 425 1481 496 1461 548 1422 c 0
 601 1382 627 1326 627 1255 c 0
EndSplineSet
EndChar

StartChar: acute
Encoding: 180 180 118
Width: 1182
Flags: W
LayerCount: 3
Fore
SplineSet
393 1266 m 1
 425 1307 460 1357 496 1416 c 0
 534 1475 563 1526 584 1569 c 1
 786 1569 l 1
 786 1548 l 1
 757 1505 713 1451 655 1388 c 0
 597 1325 547 1276 504 1241 c 1
 393 1241 l 1
 393 1266 l 1
EndSplineSet
EndChar

StartChar: mu
Encoding: 181 181 119
Width: 1268
Flags: W
LayerCount: 3
Fore
SplineSet
342 381 m 2
 342 206 427 119 596 119 c 0
 710 119 794 150 846 214 c 0
 900 276 926 379 926 520 c 2
 926 1096 l 1
 1092 1096 l 1
 1092 0 l 1
 956 0 l 1
 930 147 l 1
 920 147 l 1
 846 36 733 -20 580 -20 c 0
 480 -20 401 11 342 72 c 1
 332 72 l 1
 339 16 342 -65 342 -172 c 2
 342 -492 l 1
 176 -492 l 1
 176 1096 l 1
 342 1096 l 1
 342 381 l 2
EndSplineSet
EndChar

StartChar: paragraph
Encoding: 182 182 120
Width: 1341
Flags: W
LayerCount: 3
Fore
SplineSet
1120 -260 m 1
 1006 -260 l 1
 1006 1452 l 1
 793 1452 l 1
 793 -260 l 1
 678 -260 l 1
 678 559 l 1
 637 547 588 541 532 541 c 0
 388 541 282 583 214 666 c 0
 147 749 113 875 113 1042 c 0
 113 1215 149 1344 222 1429 c 0
 295 1514 408 1556 563 1556 c 2
 1120 1556 l 1
 1120 -260 l 1
EndSplineSet
EndChar

StartChar: periodcentered
Encoding: 183 183 121
Width: 545
Flags: W
LayerCount: 3
Fore
SplineSet
152 723 m 0
 152 767 162 800 183 824 c 0
 204 846 233 858 270 858 c 0
 309 858 339 846 360 824 c 0
 382 800 393 767 393 723 c 0
 393 680 382 646 360 623 c 0
 338 600 308 588 270 588 c 0
 236 588 208 598 186 620 c 0
 163 640 152 675 152 723 c 0
EndSplineSet
EndChar

StartChar: cedilla
Encoding: 184 184 122
Width: 465
Flags: W
LayerCount: 3
Fore
SplineSet
436 -289 m 0
 436 -354 410 -404 360 -439 c 0
 308 -474 233 -492 133 -492 c 0
 99 -492 67 -489 37 -483 c 1
 37 -377 l 1
 67 -382 102 -385 141 -385 c 0
 194 -385 234 -378 260 -365 c 0
 288 -352 301 -327 301 -291 c 0
 301 -262 288 -239 262 -222 c 0
 235 -204 186 -189 113 -178 c 1
 201 0 l 1
 311 0 l 1
 256 -115 l 1
 376 -141 436 -199 436 -289 c 0
EndSplineSet
EndChar

StartChar: onesuperior
Encoding: 185 185 123
Width: 711
Flags: W
LayerCount: 3
Fore
SplineSet
338 1462 m 1
 481 1462 l 1
 481 586 l 1
 348 586 l 1
 348 1165 l 2
 348 1226 350 1286 354 1346 c 1
 339 1331 323 1316 305 1302 c 0
 287 1286 233 1247 143 1184 c 1
 76 1280 l 1
 338 1462 l 1
EndSplineSet
EndChar

StartChar: ordmasculine
Encoding: 186 186 124
Width: 768
Flags: W
LayerCount: 3
Fore
SplineSet
702 1135 m 0
 702 1026 674 940 616 880 c 0
 560 818 481 788 381 788 c 0
 284 788 207 819 150 881 c 0
 94 943 66 1028 66 1135 c 0
 66 1244 94 1328 150 1388 c 0
 206 1449 284 1479 385 1479 c 0
 486 1479 564 1449 620 1388 c 0
 674 1327 702 1243 702 1135 c 0
188 1135 m 0
 188 1054 203 993 234 952 c 0
 264 911 314 891 383 891 c 0
 453 891 503 911 534 952 c 0
 565 993 580 1054 580 1135 c 0
 580 1217 565 1278 534 1317 c 0
 503 1356 453 1376 383 1376 c 0
 314 1376 265 1356 234 1317 c 0
 203 1278 188 1217 188 1135 c 0
EndSplineSet
EndChar

StartChar: guillemotright
Encoding: 187 187 125
Width: 1018
Flags: W
LayerCount: 3
Fore
SplineSet
936 524 m 1
 592 117 l 1
 475 188 l 1
 762 539 l 1
 475 889 l 1
 592 958 l 1
 936 551 l 1
 936 524 l 1
541 524 m 1
 197 117 l 1
 80 188 l 1
 367 539 l 1
 80 889 l 1
 197 958 l 1
 541 551 l 1
 541 524 l 1
EndSplineSet
EndChar

StartChar: onequarter
Encoding: 188 188 126
Width: 1597
Flags: W
LayerCount: 3
Fore
SplineSet
1298 1462 m 1
 395 0 l 1
 252 0 l 1
 1155 1462 l 1
 1298 1462 l 1
337 1462 m 1
 480 1462 l 1
 480 586 l 1
 347 586 l 1
 347 1165 l 2
 347 1226 349 1286 353 1346 c 1
 338 1331 322 1316 304 1302 c 0
 286 1286 232 1247 142 1184 c 1
 75 1280 l 1
 337 1462 l 1
1489 203 m 1
 1364 203 l 1
 1364 1 l 1
 1219 1 l 1
 1219 203 l 1
 817 203 l 1
 817 304 l 1
 1225 883 l 1
 1364 883 l 1
 1364 320 l 1
 1489 320 l 1
 1489 203 l 1
1219 320 m 1
 1219 515 l 2
 1219 604 1221 674 1225 724 c 1
 1222 716 1216 706 1208 692 c 0
 1200 680 1191 666 1181 650 c 2
 1151 606 l 2
 1141 590 1132 577 1125 566 c 2
 957 320 l 1
 1219 320 l 1
EndSplineSet
EndChar

StartChar: onehalf
Encoding: 189 189 127
Width: 1597
Flags: W
LayerCount: 3
Fore
SplineSet
1230 1462 m 1
 327 0 l 1
 184 0 l 1
 1087 1462 l 1
 1230 1462 l 1
308 1462 m 1
 451 1462 l 1
 451 586 l 1
 318 586 l 1
 318 1165 l 2
 318 1226 320 1286 324 1346 c 1
 309 1331 293 1316 275 1302 c 0
 257 1286 203 1247 113 1184 c 1
 46 1280 l 1
 308 1462 l 1
1499 1 m 1
 895 1 l 1
 895 105 l 1
 1131 335 l 2
 1190 392 1234 437 1261 470 c 0
 1288 502 1308 531 1318 556 c 0
 1330 581 1335 612 1335 648 c 0
 1335 693 1322 728 1295 750 c 0
 1268 774 1234 785 1192 785 c 0
 1157 785 1124 779 1091 766 c 0
 1058 753 1019 730 973 697 c 1
 907 785 l 1
 994 859 1089 896 1190 896 c 0
 1278 896 1346 874 1396 831 c 0
 1444 788 1469 729 1469 654 c 0
 1469 601 1454 549 1424 498 c 0
 1395 448 1331 377 1233 285 c 2
 1059 120 l 1
 1499 120 l 1
 1499 1 l 1
EndSplineSet
EndChar

StartChar: threequarters
Encoding: 190 190 128
Width: 1597
Flags: W
LayerCount: 3
Fore
SplineSet
620 1255 m 0
 620 1202 606 1158 579 1124 c 0
 552 1089 515 1064 470 1049 c 1
 587 1018 646 948 646 840 c 0
 646 755 615 688 554 640 c 0
 493 593 406 569 294 569 c 0
 193 569 103 588 26 625 c 1
 26 748 l 1
 124 703 214 680 296 680 c 0
 437 680 507 734 507 842 c 0
 507 939 430 987 276 987 c 2
 159 987 l 1
 159 1094 l 1
 278 1094 l 2
 347 1094 398 1107 430 1134 c 0
 464 1160 480 1196 480 1241 c 0
 480 1282 467 1313 440 1336 c 0
 413 1359 378 1370 333 1370 c 0
 289 1370 248 1363 211 1348 c 0
 174 1334 136 1315 99 1292 c 1
 30 1382 l 1
 72 1412 116 1436 163 1454 c 0
 210 1472 264 1481 327 1481 c 0
 418 1481 489 1461 542 1422 c 0
 594 1382 620 1326 620 1255 c 0
1390 1462 m 1
 487 0 l 1
 344 0 l 1
 1247 1462 l 1
 1390 1462 l 1
1569 203 m 1
 1444 203 l 1
 1444 1 l 1
 1299 1 l 1
 1299 203 l 1
 897 203 l 1
 897 304 l 1
 1305 883 l 1
 1444 883 l 1
 1444 320 l 1
 1569 320 l 1
 1569 203 l 1
1299 320 m 1
 1299 515 l 2
 1299 604 1301 674 1305 724 c 1
 1302 716 1296 706 1288 692 c 0
 1280 680 1271 666 1261 650 c 2
 1231 606 l 2
 1221 590 1212 577 1205 566 c 2
 1037 320 l 1
 1299 320 l 1
EndSplineSet
EndChar

StartChar: questiondown
Encoding: 191 191 129
Width: 879
Flags: W
LayerCount: 3
Fore
SplineSet
590 684 m 1
 590 633 l 2
 590 552 578 486 552 437 c 0
 528 388 483 335 418 279 c 0
 337 208 287 160 266 136 c 0
 246 110 232 85 224 60 c 0
 215 34 211 2 211 -35 c 0
 211 -102 233 -154 277 -192 c 0
 321 -229 384 -248 465 -248 c 0
 518 -248 570 -242 620 -229 c 0
 670 -216 728 -194 793 -162 c 1
 852 -297 l 1
 721 -361 589 -393 457 -393 c 0
 330 -393 231 -362 159 -300 c 0
 87 -238 51 -150 51 -37 c 0
 51 10 57 50 68 86 c 0
 80 120 97 153 118 182 c 0
 139 212 165 241 194 268 c 0
 224 295 257 325 293 356 c 0
 360 415 405 463 426 502 c 0
 448 541 459 591 459 653 c 2
 459 684 l 1
 590 684 l 1
639 983 m 0
 639 893 599 848 518 848 c 0
 479 848 449 860 428 882 c 0
 407 906 397 939 397 983 c 0
 397 1026 408 1059 430 1082 c 0
 452 1106 481 1118 518 1118 c 0
 552 1118 581 1107 604 1086 c 0
 627 1065 639 1030 639 983 c 0
EndSplineSet
EndChar

StartChar: AE
Encoding: 198 198 136
Width: 1788
Flags: W
LayerCount: 3
Fore
SplineSet
1665 0 m 1
 915 0 l 1
 915 465 l 1
 401 465 l 1
 174 0 l 1
 -2 0 l 1
 696 1462 l 1
 1665 1462 l 1
 1665 1311 l 1
 1085 1311 l 1
 1085 840 l 1
 1626 840 l 1
 1626 690 l 1
 1085 690 l 1
 1085 152 l 1
 1665 152 l 1
 1665 0 l 1
469 618 m 1
 915 618 l 1
 915 1311 l 1
 797 1311 l 1
 469 618 l 1
EndSplineSet
EndChar

StartChar: Igrave.alt
Encoding: 259 -1 142
Width: 682
Flags: W
LayerCount: 3
Fore
SplineSet
598 0 m 1
 84 0 l 1
 84 98 l 1
 256 133 l 1
 256 1327 l 1
 84 1364 l 1
 84 1462 l 1
 598 1462 l 1
 598 1364 l 1
 426 1327 l 1
 426 133 l 1
 598 98 l 1
 598 0 l 1
453 1579 m 1
 343 1579 l 1
 300 1614 248 1663 189 1727 c 0
 130 1791 87 1844 60 1886 c 1
 60 1907 l 1
 263 1907 l 1
 284 1861 314 1808 352 1748 c 0
 390 1687 424 1639 453 1604 c 1
 453 1579 l 1
EndSplineSet
EndChar

StartChar: Iacute.alt
Encoding: 260 -1 143
Width: 682
Flags: W
LayerCount: 3
Fore
SplineSet
598 0 m 1
 84 0 l 1
 84 98 l 1
 256 133 l 1
 256 1327 l 1
 84 1364 l 1
 84 1462 l 1
 598 1462 l 1
 598 1364 l 1
 426 1327 l 1
 426 133 l 1
 598 98 l 1
 598 0 l 1
234 1604 m 1
 266 1645 300 1695 338 1754 c 0
 374 1813 404 1864 425 1907 c 1
 627 1907 l 1
 627 1886 l 1
 598 1843 554 1789 496 1726 c 0
 438 1663 388 1614 345 1579 c 1
 234 1579 l 1
 234 1604 l 1
EndSplineSet
EndChar

StartChar: Icircumflex.alt
Encoding: 261 -1 144
Width: 682
Flags: W
LayerCount: 3
Fore
SplineSet
598 0 m 1
 84 0 l 1
 84 98 l 1
 256 133 l 1
 256 1327 l 1
 84 1364 l 1
 84 1462 l 1
 598 1462 l 1
 598 1364 l 1
 426 1327 l 1
 426 133 l 1
 598 98 l 1
 598 0 l 1
-1 1602 m 1
 84 1693 143 1759 177 1802 c 0
 211 1845 236 1880 251 1907 c 1
 417 1907 l 1
 432 1879 457 1843 494 1798 c 0
 530 1754 590 1689 673 1602 c 1
 673 1579 l 1
 554 1579 l 1
 495 1616 422 1678 333 1765 c 1
 242 1676 169 1614 114 1579 c 1
 -1 1579 l 1
 -1 1602 l 1
EndSplineSet
EndChar

StartChar: Idieresis.alt
Encoding: 262 -1 145
Width: 682
Flags: W
LayerCount: 3
Fore
SplineSet
598 0 m 1
 84 0 l 1
 84 98 l 1
 256 133 l 1
 256 1327 l 1
 84 1364 l 1
 84 1462 l 1
 598 1462 l 1
 598 1364 l 1
 426 1327 l 1
 426 133 l 1
 598 98 l 1
 598 0 l 1
60 1731 m 0
 60 1766 69 1791 86 1806 c 0
 104 1821 125 1829 150 1829 c 0
 175 1829 197 1821 216 1806 c 0
 234 1791 243 1766 243 1731 c 0
 243 1698 234 1673 216 1656 c 0
 197 1640 175 1632 150 1632 c 0
 125 1632 104 1640 86 1656 c 0
 69 1673 60 1698 60 1731 c 0
441 1731 m 0
 441 1766 450 1791 468 1806 c 0
 485 1821 506 1829 531 1829 c 0
 556 1829 577 1821 596 1806 c 0
 614 1791 623 1766 623 1731 c 0
 623 1698 614 1673 596 1656 c 0
 577 1640 556 1632 531 1632 c 0
 506 1632 485 1640 468 1656 c 0
 450 1673 441 1698 441 1731 c 0
EndSplineSet
EndChar

StartChar: Eth
Encoding: 208 208 146
Width: 1479
Flags: W
LayerCount: 3
Fore
SplineSet
1352 745 m 0
 1352 504 1286 319 1156 192 c 0
 1024 64 836 0 590 0 c 2
 201 0 l 1
 201 649 l 1
 47 649 l 1
 47 799 l 1
 201 799 l 1
 201 1462 l 1
 635 1462 l 2
 860 1462 1035 1400 1162 1274 c 0
 1289 1150 1352 973 1352 745 c 0
1171 739 m 0
 1171 1123 981 1315 602 1315 c 2
 371 1315 l 1
 371 799 l 1
 750 799 l 1
 750 649 l 1
 371 649 l 1
 371 147 l 1
 561 147 l 2
 968 147 1171 344 1171 739 c 0
EndSplineSet
EndChar

StartChar: multiply
Encoding: 215 215 153
Width: 1171
Flags: W
LayerCount: 3
Fore
SplineSet
940 1176 m 1
 1036 1077 l 1
 684 723 l 1
 1034 371 l 1
 938 272 l 1
 584 623 l 1
 236 272 l 1
 135 371 l 1
 485 723 l 1
 133 1075 l 1
 233 1176 l 1
 586 821 l 1
 940 1176 l 1
EndSplineSet
EndChar

StartChar: Oslash
Encoding: 216 216 154
Width: 1595
Flags: W
LayerCount: 3
Fore
SplineSet
1470 733 m 0
 1470 499 1411 315 1292 181 c 0
 1174 47 1010 -20 799 -20 c 0
 642 -20 515 13 416 80 c 1
 315 -61 l 1
 195 18 l 1
 303 172 l 1
 184 304 125 492 125 735 c 0
 125 973 184 1158 301 1288 c 0
 418 1420 585 1485 801 1485 c 0
 940 1485 1062 1454 1167 1391 c 1
 1264 1526 l 1
 1384 1446 l 1
 1278 1298 l 1
 1406 1163 1470 975 1470 733 c 0
1290 733 m 0
 1290 914 1253 1056 1180 1159 c 1
 508 211 l 1
 585 156 682 129 799 129 c 0
 961 129 1083 180 1166 282 c 0
 1249 384 1290 534 1290 733 c 0
305 733 m 0
 305 558 339 420 406 317 c 1
 1075 1260 l 1
 1004 1309 913 1333 801 1333 c 0
 639 1333 516 1282 432 1180 c 0
 347 1077 305 928 305 733 c 0
EndSplineSet
EndChar

StartChar: Thorn
Encoding: 222 222 160
Width: 1251
Flags: W
LayerCount: 3
Fore
SplineSet
1145 784 m 0
 1145 633 1094 517 994 438 c 0
 892 359 746 319 555 319 c 2
 371 319 l 1
 371 0 l 1
 201 0 l 1
 201 1462 l 1
 371 1462 l 1
 371 1206 l 1
 586 1206 l 2
 773 1206 913 1172 1006 1102 c 0
 1099 1034 1145 927 1145 784 c 0
371 465 m 1
 539 465 l 2
 690 465 799 489 866 536 c 0
 933 584 967 663 967 772 c 0
 967 871 935 944 872 990 c 0
 809 1036 710 1059 575 1059 c 2
 371 1059 l 1
 371 465 l 1
EndSplineSet
EndChar

StartChar: germandbls
Encoding: 223 223 161
Width: 1274
Flags: W
LayerCount: 3
Fore
SplineSet
1049 1266 m 0
 1049 1176 1001 1093 906 1016 c 0
 847 969 809 935 790 912 c 0
 771 890 762 868 762 846 c 0
 762 825 766 807 776 793 c 0
 784 779 801 762 824 744 c 0
 848 724 886 698 938 664 c 0
 1031 601 1095 543 1129 490 c 0
 1163 438 1180 378 1180 311 c 0
 1180 204 1148 122 1083 66 c 0
 1018 8 926 -20 807 -20 c 0
 682 -20 583 3 512 49 c 1
 512 203 l 1
 554 177 601 156 653 140 c 0
 705 125 755 117 803 117 c 0
 946 117 1018 178 1018 299 c 0
 1018 349 1004 392 976 428 c 0
 949 463 898 504 825 551 c 0
 740 606 682 654 650 694 c 0
 618 736 602 784 602 840 c 0
 602 882 614 921 636 956 c 0
 660 991 695 1027 742 1062 c 0
 792 1100 828 1134 849 1164 c 0
 870 1194 881 1227 881 1262 c 0
 881 1315 858 1356 813 1384 c 0
 768 1413 703 1427 618 1427 c 0
 434 1427 342 1353 342 1204 c 2
 342 0 l 1
 176 0 l 1
 176 1202 l 2
 176 1321 213 1411 286 1474 c 0
 359 1536 470 1567 618 1567 c 0
 755 1567 862 1541 936 1488 c 0
 1012 1436 1049 1362 1049 1266 c 0
EndSplineSet
EndChar

StartChar: ae
Encoding: 230 230 168
Width: 1757
Flags: W
LayerCount: 3
Fore
SplineSet
94 303 m 0
 94 410 135 494 218 554 c 0
 301 613 427 646 596 651 c 2
 780 657 l 1
 780 725 l 2
 780 811 761 874 722 916 c 0
 683 956 624 977 545 977 c 0
 449 977 347 949 238 893 c 1
 186 1020 l 1
 235 1047 293 1070 360 1088 c 0
 426 1105 492 1114 557 1114 c 0
 644 1114 714 1100 770 1070 c 0
 824 1042 866 995 893 932 c 1
 928 991 974 1036 1032 1068 c 0
 1088 1100 1154 1116 1227 1116 c 0
 1355 1116 1458 1072 1535 982 c 0
 1612 894 1651 775 1651 627 c 2
 1651 520 l 1
 950 520 l 1
 955 257 1063 125 1272 125 c 0
 1333 125 1389 131 1442 142 c 0
 1494 154 1548 173 1604 199 c 1
 1604 51 l 1
 1547 26 1493 8 1444 -4 c 0
 1394 -14 1335 -20 1268 -20 c 0
 1075 -20 937 58 854 213 c 1
 800 128 740 68 674 33 c 0
 609 -2 531 -20 442 -20 c 0
 333 -20 248 8 186 65 c 0
 125 122 94 201 94 303 c 0
268 301 m 0
 268 238 286 191 322 162 c 0
 357 132 404 117 463 117 c 0
 560 117 636 145 692 202 c 0
 748 258 776 337 776 440 c 2
 776 539 l 1
 618 532 l 2
 494 527 405 506 350 470 c 0
 295 433 268 377 268 301 c 0
1225 977 m 0
 1144 977 1081 949 1034 894 c 0
 988 839 961 758 954 653 c 1
 1473 653 l 1
 1473 757 1452 837 1409 893 c 0
 1366 949 1305 977 1225 977 c 0
EndSplineSet
EndChar

StartChar: igrave
Encoding: 236 236 174
Width: 518
Flags: W
LayerCount: 3
Fore
SplineSet
342 0 m 1
 176 0 l 1
 176 1096 l 1
 342 1096 l 1
 342 0 l 1
355 1241 m 1
 245 1241 l 1
 202 1276 150 1325 91 1389 c 0
 32 1453 -11 1506 -38 1548 c 1
 -38 1569 l 1
 165 1569 l 1
 186 1523 216 1470 254 1410 c 0
 292 1349 326 1301 355 1266 c 1
 355 1241 l 1
EndSplineSet
EndChar

StartChar: iacute
Encoding: 237 237 175
Width: 518
Flags: W
LayerCount: 3
Fore
SplineSet
342 0 m 1
 176 0 l 1
 176 1096 l 1
 342 1096 l 1
 342 0 l 1
169 1266 m 1
 201 1307 236 1357 272 1416 c 0
 310 1475 339 1526 360 1569 c 1
 562 1569 l 1
 562 1548 l 1
 533 1505 489 1451 431 1388 c 0
 373 1325 323 1276 280 1241 c 1
 169 1241 l 1
 169 1266 l 1
EndSplineSet
EndChar

StartChar: icircumflex
Encoding: 238 238 176
Width: 518
Flags: W
LayerCount: 3
Fore
SplineSet
342 0 m 1
 176 0 l 1
 176 1096 l 1
 342 1096 l 1
 342 0 l 1
-77 1264 m 1
 8 1355 67 1421 101 1464 c 0
 135 1507 160 1542 175 1569 c 1
 341 1569 l 1
 356 1541 381 1505 418 1460 c 0
 454 1416 514 1351 597 1264 c 1
 597 1241 l 1
 478 1241 l 1
 419 1278 346 1340 257 1427 c 1
 166 1338 93 1276 38 1241 c 1
 -77 1241 l 1
 -77 1264 l 1
EndSplineSet
EndChar

StartChar: idieresis
Encoding: 239 239 177
Width: 518
Flags: W
LayerCount: 3
Fore
SplineSet
342 0 m 1
 176 0 l 1
 176 1096 l 1
 342 1096 l 1
 342 0 l 1
-20 1393 m 0
 -20 1428 -11 1453 6 1468 c 0
 24 1483 45 1491 70 1491 c 0
 95 1491 117 1483 136 1468 c 0
 154 1453 163 1428 163 1393 c 0
 163 1360 154 1335 136 1318 c 0
 117 1302 95 1294 70 1294 c 0
 45 1294 24 1302 6 1318 c 0
 -11 1335 -20 1360 -20 1393 c 0
361 1393 m 0
 361 1428 370 1453 388 1468 c 0
 405 1483 426 1491 451 1491 c 0
 476 1491 497 1483 516 1468 c 0
 534 1453 543 1428 543 1393 c 0
 543 1360 534 1335 516 1318 c 0
 497 1302 476 1294 451 1294 c 0
 426 1294 405 1302 388 1318 c 0
 370 1335 361 1360 361 1393 c 0
EndSplineSet
EndChar

StartChar: eth
Encoding: 240 240 178
Width: 1221
Flags: W
LayerCount: 3
Fore
SplineSet
1122 563 m 0
 1122 376 1078 232 992 131 c 0
 904 30 779 -20 614 -20 c 0
 466 -20 346 25 252 114 c 0
 160 204 113 324 113 475 c 0
 113 628 157 749 244 836 c 0
 332 923 449 967 596 967 c 0
 747 967 855 927 922 846 c 1
 930 850 l 1
 892 993 805 1128 668 1255 c 1
 397 1100 l 1
 324 1208 l 1
 557 1341 l 1
 496 1382 434 1419 371 1452 c 1
 440 1569 l 1
 544 1520 630 1471 698 1421 c 1
 936 1559 l 1
 1012 1452 l 1
 805 1333 l 1
 906 1238 984 1124 1040 991 c 0
 1094 858 1122 716 1122 563 c 0
954 512 m 0
 954 610 924 687 864 744 c 0
 804 801 722 829 618 829 c 0
 393 829 281 709 281 469 c 0
 281 358 310 272 368 210 c 0
 427 150 510 119 618 119 c 0
 735 119 820 152 874 220 c 0
 927 286 954 384 954 512 c 0
EndSplineSet
EndChar

StartChar: divide
Encoding: 247 247 185
Width: 1171
Flags: W
LayerCount: 3
Fore
SplineSet
104 653 m 1
 104 791 l 1
 1065 791 l 1
 1065 653 l 1
 104 653 l 1
471 373 m 0
 471 413 481 443 500 464 c 0
 520 484 548 494 584 494 c 0
 619 494 646 484 665 462 c 0
 684 442 694 412 694 373 c 0
 694 335 684 305 664 284 c 0
 645 263 618 252 584 252 c 0
 549 252 522 262 502 284 c 0
 481 304 471 334 471 373 c 0
471 1071 m 0
 471 1111 481 1141 500 1162 c 0
 520 1182 548 1192 584 1192 c 0
 619 1192 646 1182 665 1160 c 0
 684 1140 694 1110 694 1071 c 0
 694 1033 684 1003 664 982 c 0
 645 961 618 950 584 950 c 0
 549 950 522 960 502 982 c 0
 481 1002 471 1032 471 1071 c 0
EndSplineSet
EndChar

StartChar: oslash
Encoding: 248 248 186
Width: 1237
Flags: W
LayerCount: 3
Fore
SplineSet
1122 549 m 0
 1122 370 1077 231 987 130 c 0
 897 30 773 -20 614 -20 c 0
 511 -20 423 3 348 49 c 1
 264 -68 l 1
 150 10 l 1
 244 141 l 1
 158 242 115 378 115 549 c 0
 115 728 160 867 249 966 c 0
 338 1066 462 1116 621 1116 c 0
 724 1116 814 1091 891 1040 c 1
 975 1159 l 1
 1092 1083 l 1
 995 950 l 1
 1080 849 1122 715 1122 549 c 0
287 549 m 0
 287 435 305 344 340 276 c 1
 805 922 l 1
 755 957 692 975 616 975 c 0
 507 975 425 939 370 868 c 0
 315 797 287 690 287 549 c 0
950 549 m 0
 950 658 933 746 899 813 c 1
 434 170 l 1
 481 136 543 119 618 119 c 0
 727 119 809 156 866 228 c 0
 922 302 950 408 950 549 c 0
EndSplineSet
EndChar

StartChar: thorn
Encoding: 254 254 192
Width: 1255
Flags: W
LayerCount: 3
Fore
SplineSet
344 948 m 1
 388 1007 438 1050 495 1076 c 0
 552 1103 615 1116 686 1116 c 0
 829 1116 941 1066 1021 966 c 0
 1101 866 1141 727 1141 549 c 0
 1141 370 1101 231 1020 130 c 0
 940 30 829 -20 686 -20 c 0
 538 -20 423 34 342 141 c 1
 330 141 l 1
 334 107 l 2
 339 56 342 9 342 -33 c 2
 342 -492 l 1
 176 -492 l 1
 176 1556 l 1
 342 1556 l 1
 342 1090 l 2
 342 1055 340 1008 336 948 c 1
 344 948 l 1
664 975 m 0
 552 975 471 944 420 883 c 0
 369 822 343 724 342 590 c 2
 342 549 l 2
 342 395 368 285 419 218 c 0
 470 152 553 119 666 119 c 0
 868 119 969 263 969 551 c 0
 969 694 944 801 895 870 c 0
 846 940 769 975 664 975 c 0
EndSplineSet
EndChar

StartChar: dcaron
Encoding: 278 271 209
Width: 1255
Flags: W
LayerCount: 3
Fore
SplineSet
922 147 m 1
 913 147 l 1
 836 36 722 -20 569 -20 c 0
 426 -20 314 29 234 127 c 0
 155 225 115 364 115 545 c 0
 115 726 155 866 235 966 c 0
 315 1066 426 1116 569 1116 c 0
 718 1116 832 1062 911 954 c 1
 924 954 l 1
 917 1033 l 1
 913 1110 l 1
 913 1556 l 1
 1079 1556 l 1
 1079 0 l 1
 944 0 l 1
 922 147 l 1
590 119 m 0
 703 119 786 150 836 212 c 0
 888 273 913 373 913 510 c 2
 913 545 l 2
 913 700 887 811 836 878 c 0
 784 944 701 977 588 977 c 0
 491 977 416 939 364 864 c 0
 313 788 287 681 287 543 c 0
 287 403 313 297 364 226 c 0
 415 155 491 119 590 119 c 0
1173 1253 m 1
 1186 1290 1198 1336 1212 1392 c 0
 1224 1447 1234 1502 1241 1556 c 1
 1409 1556 l 1
 1409 1538 l 1
 1402 1504 1383 1456 1354 1393 c 0
 1325 1330 1294 1276 1263 1229 c 1
 1173 1229 l 1
 1173 1253 l 1
EndSplineSet
EndChar

StartChar: Dcroat
Encoding: 279 272 210
Width: 1479
Flags: W
LayerCount: 3
Fore
SplineSet
1352 745 m 0
 1352 504 1286 319 1156 192 c 0
 1024 64 836 0 590 0 c 2
 201 0 l 1
 201 649 l 1
 47 649 l 1
 47 799 l 1
 201 799 l 1
 201 1462 l 1
 635 1462 l 2
 860 1462 1035 1400 1162 1274 c 0
 1289 1150 1352 973 1352 745 c 0
1171 739 m 0
 1171 1123 981 1315 602 1315 c 2
 371 1315 l 1
 371 799 l 1
 750 799 l 1
 750 649 l 1
 371 649 l 1
 371 147 l 1
 561 147 l 2
 968 147 1171 344 1171 739 c 0
EndSplineSet
EndChar

StartChar: dcroat
Encoding: 280 273 211
Width: 1255
Flags: W
LayerCount: 3
Fore
SplineSet
922 147 m 1
 913 147 l 1
 836 36 722 -20 569 -20 c 0
 426 -20 314 29 234 127 c 0
 155 225 115 364 115 545 c 0
 115 726 155 866 235 966 c 0
 315 1066 426 1116 569 1116 c 0
 718 1116 832 1062 911 954 c 1
 924 954 l 1
 917 1009 913 1061 913 1110 c 2
 913 1243 l 1
 465 1243 l 1
 465 1372 l 1
 913 1372 l 1
 913 1556 l 1
 1079 1556 l 1
 1079 1372 l 1
 1235 1372 l 1
 1235 1243 l 1
 1079 1243 l 1
 1079 0 l 1
 944 0 l 1
 922 147 l 1
590 119 m 0
 703 119 786 150 836 212 c 0
 888 273 913 373 913 510 c 2
 913 545 l 2
 913 700 887 811 836 878 c 0
 784 944 701 977 588 977 c 0
 491 977 416 939 364 864 c 0
 313 788 287 681 287 543 c 0
 287 403 313 297 364 226 c 0
 415 155 491 119 590 119 c 0
EndSplineSet
EndChar

StartChar: Gcommaaccent
Encoding: 297 290 228
Width: 1491
Flags: W
LayerCount: 3
Fore
SplineSet
844 766 m 1
 1341 766 l 1
 1341 55 l 1
 1264 30 1185 12 1105 -1 c 0
 1025 -14 932 -20 827 -20 c 0
 606 -20 433 46 310 178 c 0
 187 309 125 494 125 731 c 0
 125 883 156 1016 216 1130 c 0
 278 1245 365 1332 480 1392 c 0
 595 1453 729 1483 883 1483 c 0
 1039 1483 1184 1454 1319 1397 c 1
 1253 1247 l 1
 1121 1303 994 1331 872 1331 c 0
 694 1331 555 1278 455 1172 c 0
 355 1066 305 919 305 731 c 0
 305 534 353 384 450 282 c 0
 546 180 687 129 874 129 c 0
 975 129 1074 141 1171 164 c 1
 1171 614 l 1
 844 614 l 1
 844 766 l 1
664 -428 m 1
 683 -385 700 -333 718 -271 c 0
 734 -209 745 -160 750 -125 c 1
 918 -125 l 1
 918 -143 l 1
 911 -177 891 -226 858 -290 c 0
 825 -355 791 -409 754 -453 c 1
 664 -453 l 1
 664 -428 l 1
EndSplineSet
EndChar

StartChar: gcommaaccent
Encoding: 298 291 229
Width: 1122
Flags: W
LayerCount: 3
Fore
SplineSet
1073 1096 m 1
 1073 991 l 1
 870 967 l 1
 889 944 905 913 920 876 c 0
 935 838 942 795 942 748 c 0
 942 641 905 555 832 491 c 0
 759 427 658 395 530 395 c 0
 497 395 467 398 438 403 c 1
 367 366 332 319 332 262 c 0
 332 232 344 210 369 196 c 0
 394 181 436 174 496 174 c 2
 690 174 l 2
 809 174 900 149 964 99 c 0
 1027 49 1059 -24 1059 -119 c 0
 1059 -240 1010 -333 913 -396 c 0
 816 -460 674 -492 487 -492 c 0
 344 -492 233 -465 156 -412 c 0
 78 -359 39 -283 39 -186 c 0
 39 -119 60 -62 103 -13 c 0
 146 36 206 69 283 86 c 1
 255 99 232 118 212 145 c 0
 194 172 184 203 184 238 c 0
 184 278 195 313 216 343 c 0
 237 373 271 402 317 430 c 1
 260 453 214 493 178 549 c 0
 143 605 125 669 125 741 c 0
 125 861 161 954 233 1018 c 0
 305 1084 407 1116 539 1116 c 0
 596 1116 648 1109 694 1096 c 1
 1073 1096 l 1
199 -184 m 0
 199 -243 224 -288 274 -319 c 0
 324 -350 396 -365 489 -365 c 0
 628 -365 732 -344 798 -302 c 0
 866 -261 899 -204 899 -133 c 0
 899 -74 881 -32 844 -10 c 0
 807 14 738 25 637 25 c 2
 438 25 l 2
 363 25 304 7 262 -29 c 0
 220 -65 199 -117 199 -184 c 0
289 745 m 0
 289 668 311 610 354 571 c 0
 397 532 458 512 535 512 c 0
 697 512 778 591 778 748 c 0
 778 913 696 995 532 995 c 0
 454 995 394 974 352 932 c 0
 310 890 289 828 289 745 c 0
707 1544 m 1
 688 1503 669 1451 652 1386 c 0
 634 1322 623 1274 619 1241 c 1
 453 1241 l 1
 453 1260 l 1
 462 1301 484 1353 516 1416 c 0
 550 1480 582 1531 615 1569 c 1
 707 1569 l 1
 707 1544 l 1
EndSplineSet
EndChar

StartChar: Hbar
Encoding: 301 294 232
Width: 1511
Flags: W
LayerCount: 3
Fore
SplineSet
201 1214 m 1
 201 1462 l 1
 371 1462 l 1
 371 1214 l 1
 1141 1214 l 1
 1141 1462 l 1
 1311 1462 l 1
 1311 1214 l 1
 1511 1214 l 1
 1511 1073 l 1
 1311 1073 l 1
 1311 0 l 1
 1141 0 l 1
 1141 688 l 1
 371 688 l 1
 371 0 l 1
 201 0 l 1
 201 1073 l 1
 0 1073 l 1
 0 1214 l 1
 201 1214 l 1
1141 840 m 1
 1141 1073 l 1
 371 1073 l 1
 371 840 l 1
 1141 840 l 1
EndSplineSet
EndChar

StartChar: hbar
Encoding: 302 295 233
Width: 1257
Flags: W
LayerCount: 3
Fore
SplineSet
926 0 m 1
 926 670 l 2
 926 759 906 826 865 870 c 0
 824 914 761 936 674 936 c 0
 558 936 474 905 421 843 c 0
 368 781 342 679 342 537 c 2
 342 0 l 1
 176 0 l 1
 176 1243 l 1
 20 1243 l 1
 20 1370 l 1
 176 1370 l 1
 176 1556 l 1
 342 1556 l 1
 342 1370 l 1
 791 1370 l 1
 791 1243 l 1
 342 1243 l 1
 342 1047 l 2
 342 991 339 944 334 907 c 1
 344 907 l 1
 377 960 423 1001 484 1032 c 0
 544 1062 613 1077 690 1077 c 0
 824 1077 924 1045 992 982 c 0
 1058 918 1092 816 1092 676 c 2
 1092 0 l 1
 926 0 l 1
EndSplineSet
EndChar

StartChar: Itilde.alt
Encoding: 303 -1 234
Width: 682
Flags: W
LayerCount: 3
Fore
SplineSet
598 0 m 1
 84 0 l 1
 84 98 l 1
 256 133 l 1
 256 1327 l 1
 84 1364 l 1
 84 1462 l 1
 598 1462 l 1
 598 1364 l 1
 426 1327 l 1
 426 133 l 1
 598 98 l 1
 598 0 l 1
494 1581 m 0
 465 1581 437 1587 410 1600 c 0
 383 1612 356 1626 330 1640 c 0
 303 1656 278 1669 254 1682 c 0
 229 1694 206 1700 183 1700 c 0
 150 1700 124 1690 108 1670 c 0
 90 1650 77 1620 68 1579 c 1
 -30 1579 l 1
 -21 1660 2 1723 40 1768 c 0
 79 1814 128 1837 189 1837 c 0
 220 1837 249 1831 278 1818 c 0
 307 1806 334 1792 360 1778 c 0
 386 1762 411 1749 435 1736 c 0
 459 1724 482 1718 503 1718 c 0
 536 1718 560 1728 576 1748 c 0
 592 1767 605 1798 615 1839 c 1
 714 1839 l 1
 705 1758 682 1695 644 1650 c 0
 607 1604 557 1581 494 1581 c 0
EndSplineSet
EndChar

StartChar: itilde
Encoding: 304 297 235
Width: 518
Flags: W
LayerCount: 3
Fore
SplineSet
342 0 m 1
 176 0 l 1
 176 1096 l 1
 342 1096 l 1
 342 0 l 1
412 1243 m 0
 383 1243 355 1249 328 1262 c 0
 301 1274 274 1288 248 1302 c 0
 221 1318 196 1331 172 1344 c 0
 147 1356 124 1362 101 1362 c 0
 68 1362 42 1352 26 1332 c 0
 8 1312 -5 1282 -14 1241 c 1
 -112 1241 l 1
 -103 1322 -80 1385 -42 1430 c 0
 -3 1476 46 1499 107 1499 c 0
 138 1499 167 1493 196 1480 c 0
 225 1468 252 1454 278 1440 c 0
 304 1424 329 1411 353 1398 c 0
 377 1386 400 1380 421 1380 c 0
 454 1380 478 1390 494 1410 c 0
 510 1429 523 1460 533 1501 c 1
 632 1501 l 1
 623 1420 600 1357 562 1312 c 0
 525 1266 475 1243 412 1243 c 0
EndSplineSet
EndChar

StartChar: Imacron.alt
Encoding: 305 -1 236
Width: 682
Flags: W
LayerCount: 3
Fore
SplineSet
598 0 m 1
 84 0 l 1
 84 98 l 1
 256 133 l 1
 256 1327 l 1
 84 1364 l 1
 84 1462 l 1
 598 1462 l 1
 598 1364 l 1
 426 1327 l 1
 426 133 l 1
 598 98 l 1
 598 0 l 1
42 1716 m 1
 642 1716 l 1
 642 1579 l 1
 42 1579 l 1
 42 1716 l 1
EndSplineSet
EndChar

StartChar: imacron
Encoding: 306 299 237
Width: 518
Flags: W
LayerCount: 3
Fore
SplineSet
342 0 m 1
 176 0 l 1
 176 1096 l 1
 342 1096 l 1
 342 0 l 1
-38 1378 m 1
 562 1378 l 1
 562 1241 l 1
 -38 1241 l 1
 -38 1378 l 1
EndSplineSet
EndChar

StartChar: Ibreve.alt
Encoding: 307 -1 238
Width: 682
Flags: W
LayerCount: 3
Fore
SplineSet
598 0 m 1
 84 0 l 1
 84 98 l 1
 256 133 l 1
 256 1327 l 1
 84 1364 l 1
 84 1462 l 1
 598 1462 l 1
 598 1364 l 1
 426 1327 l 1
 426 133 l 1
 598 98 l 1
 598 0 l 1
335 1579 m 0
 242 1579 169 1602 117 1648 c 0
 65 1693 36 1760 30 1847 c 1
 134 1847 l 1
 138 1814 147 1789 160 1770 c 0
 174 1751 193 1738 218 1729 c 0
 242 1720 282 1716 339 1716 c 0
 406 1716 456 1727 488 1748 c 0
 520 1769 539 1802 546 1847 c 1
 650 1847 l 1
 643 1763 612 1697 556 1650 c 0
 501 1603 427 1579 335 1579 c 0
EndSplineSet
EndChar

StartChar: ibreve
Encoding: 308 301 239
Width: 518
Flags: W
LayerCount: 3
Fore
SplineSet
342 0 m 1
 176 0 l 1
 176 1096 l 1
 342 1096 l 1
 342 0 l 1
253 1241 m 0
 160 1241 87 1264 35 1310 c 0
 -17 1355 -46 1422 -52 1509 c 1
 52 1509 l 1
 56 1476 65 1451 78 1432 c 0
 92 1413 111 1400 136 1391 c 0
 160 1382 200 1378 257 1378 c 0
 324 1378 374 1389 406 1410 c 0
 438 1431 457 1464 464 1509 c 1
 568 1509 l 1
 561 1425 530 1359 474 1312 c 0
 419 1265 345 1241 253 1241 c 0
EndSplineSet
EndChar

StartChar: Iogonek.alt
Encoding: 309 -1 240
Width: 682
Flags: W
LayerCount: 3
Fore
SplineSet
598 0 m 1
 84 0 l 1
 84 98 l 1
 256 133 l 1
 256 1327 l 1
 84 1364 l 1
 84 1462 l 1
 598 1462 l 1
 598 1364 l 1
 426 1327 l 1
 426 133 l 1
 598 98 l 1
 598 0 l 1
282 -238 m 0
 282 -301 313 -332 376 -332 c 0
 404 -332 436 -328 473 -319 c 1
 473 -428 l 1
 430 -440 388 -446 348 -446 c 0
 210 -446 141 -383 141 -258 c 0
 141 -211 155 -166 184 -120 c 0
 213 -76 251 -35 299 0 c 1
 419 0 l 1
 374 -44 340 -84 316 -120 c 0
 294 -157 282 -196 282 -238 c 0
EndSplineSet
EndChar

StartChar: iogonek
Encoding: 310 303 241
Width: 518
Flags: W
LayerCount: 3
Fore
SplineSet
342 0 m 1
 176 0 l 1
 176 1096 l 1
 342 1096 l 1
 342 0 l 1
162 1393 m 0
 162 1431 171 1459 190 1476 c 0
 209 1494 232 1503 260 1503 c 0
 287 1503 310 1494 329 1476 c 0
 348 1458 358 1430 358 1393 c 0
 358 1356 348 1328 329 1310 c 0
 310 1291 287 1282 260 1282 c 0
 232 1282 209 1291 190 1310 c 0
 171 1328 162 1356 162 1393 c 0
194 -238 m 0
 194 -301 225 -332 288 -332 c 0
 316 -332 348 -328 385 -319 c 1
 385 -428 l 1
 342 -440 300 -446 260 -446 c 0
 122 -446 53 -383 53 -258 c 0
 53 -211 67 -166 96 -120 c 0
 125 -76 163 -35 211 0 c 1
 331 0 l 1
 286 -44 252 -84 228 -120 c 0
 206 -157 194 -196 194 -238 c 0
EndSplineSet
EndChar

StartChar: Idotaccent.alt
Encoding: 311 -1 242
Width: 682
Flags: W
LayerCount: 3
Fore
SplineSet
598 0 m 1
 84 0 l 1
 84 98 l 1
 256 133 l 1
 256 1327 l 1
 84 1364 l 1
 84 1462 l 1
 598 1462 l 1
 598 1364 l 1
 426 1327 l 1
 426 133 l 1
 598 98 l 1
 598 0 l 1
242 1731 m 0
 242 1769 251 1797 270 1814 c 0
 289 1832 312 1841 340 1841 c 0
 367 1841 390 1832 409 1814 c 0
 428 1796 438 1768 438 1731 c 0
 438 1694 428 1666 409 1648 c 0
 390 1629 367 1620 340 1620 c 0
 312 1620 289 1629 270 1648 c 0
 251 1666 242 1694 242 1731 c 0
EndSplineSet
EndChar

StartChar: dotlessi
Encoding: 312 305 243
Width: 518
Flags: W
LayerCount: 3
Fore
SplineSet
342 0 m 1
 176 0 l 1
 176 1096 l 1
 342 1096 l 1
 342 0 l 1
EndSplineSet
EndChar

StartChar: IJ.alt
Encoding: 313 -1 244
Width: 1229
Flags: W
LayerCount: 3
Fore
SplineSet
598 0 m 1
 84 0 l 1
 84 98 l 1
 256 133 l 1
 256 1327 l 1
 84 1364 l 1
 84 1462 l 1
 598 1462 l 1
 598 1364 l 1
 426 1327 l 1
 426 133 l 1
 598 98 l 1
 598 0 l 1
668 -385 m 0
 605 -385 556 -376 520 -358 c 1
 520 -213 l 1
 567 -226 617 -233 668 -233 c 0
 734 -233 784 -213 818 -173 c 0
 853 -133 870 -75 870 0 c 2
 870 1462 l 1
 1040 1462 l 1
 1040 14 l 2
 1040 -113 1008 -211 944 -280 c 0
 880 -350 788 -385 668 -385 c 0
EndSplineSet
EndChar

StartChar: ij
Encoding: 314 307 245
Width: 1036
Flags: W
LayerCount: 3
Fore
SplineSet
342 0 m 1
 176 0 l 1
 176 1096 l 1
 342 1096 l 1
 342 0 l 1
162 1393 m 0
 162 1431 171 1459 190 1476 c 0
 209 1494 232 1503 260 1503 c 0
 287 1503 310 1494 329 1476 c 0
 348 1458 358 1430 358 1393 c 0
 358 1356 348 1328 329 1310 c 0
 310 1291 287 1282 260 1282 c 0
 232 1282 209 1291 190 1310 c 0
 171 1328 162 1356 162 1393 c 0
561 -492 m 0
 498 -492 446 -484 407 -467 c 1
 407 -332 l 1
 453 -345 498 -352 543 -352 c 0
 595 -352 633 -338 658 -310 c 0
 682 -281 694 -238 694 -180 c 2
 694 1096 l 1
 860 1096 l 1
 860 -168 l 2
 860 -384 760 -492 561 -492 c 0
680 1393 m 0
 680 1431 689 1459 708 1476 c 0
 727 1494 750 1503 778 1503 c 0
 805 1503 828 1494 847 1476 c 0
 866 1458 876 1430 876 1393 c 0
 876 1356 866 1328 847 1310 c 0
 828 1291 805 1282 778 1282 c 0
 750 1282 727 1291 708 1310 c 0
 689 1328 680 1356 680 1393 c 0
EndSplineSet
EndChar

StartChar: jcircumflex
Encoding: 316 309 247
Width: 518
Flags: W
LayerCount: 3
Fore
SplineSet
43 -492 m 0
 -20 -492 -72 -484 -111 -467 c 1
 -111 -332 l 1
 -65 -345 -20 -352 25 -352 c 0
 77 -352 115 -338 140 -310 c 0
 164 -281 176 -238 176 -180 c 2
 176 1096 l 1
 342 1096 l 1
 342 -168 l 2
 342 -384 242 -492 43 -492 c 0
-83 1264 m 1
 2 1355 61 1421 95 1464 c 0
 129 1507 154 1542 169 1569 c 1
 335 1569 l 1
 350 1541 375 1505 412 1460 c 0
 448 1416 508 1351 591 1264 c 1
 591 1241 l 1
 472 1241 l 1
 413 1278 340 1340 251 1427 c 1
 160 1338 87 1276 32 1241 c 1
 -83 1241 l 1
 -83 1264 l 1
EndSplineSet
EndChar

StartChar: Kcommaaccent
Encoding: 317 310 248
Width: 1257
Flags: W
LayerCount: 3
Fore
SplineSet
1257 0 m 1
 1057 0 l 1
 524 709 l 1
 371 573 l 1
 371 0 l 1
 201 0 l 1
 201 1462 l 1
 371 1462 l 1
 371 737 l 1
 1034 1462 l 1
 1235 1462 l 1
 647 827 l 1
 1257 0 l 1
506 -428 m 1
 525 -385 542 -333 560 -271 c 0
 576 -209 587 -160 592 -125 c 1
 760 -125 l 1
 760 -143 l 1
 753 -177 733 -226 700 -290 c 0
 667 -355 633 -409 596 -453 c 1
 506 -453 l 1
 506 -428 l 1
EndSplineSet
EndChar

StartChar: kcommaaccent
Encoding: 318 311 249
Width: 1075
Flags: W
LayerCount: 3
Fore
SplineSet
340 561 m 1
 369 602 412 655 471 721 c 2
 825 1096 l 1
 1022 1096 l 1
 578 629 l 1
 1053 0 l 1
 852 0 l 1
 465 518 l 1
 340 410 l 1
 340 0 l 1
 176 0 l 1
 176 1556 l 1
 340 1556 l 1
 340 731 l 2
 340 694 337 638 332 561 c 1
 340 561 l 1
412 -428 m 1
 431 -385 448 -333 466 -271 c 0
 482 -209 493 -160 498 -125 c 1
 666 -125 l 1
 666 -143 l 1
 659 -177 639 -226 606 -290 c 0
 573 -355 539 -409 502 -453 c 1
 412 -453 l 1
 412 -428 l 1
EndSplineSet
EndChar

StartChar: kgreenlandic
Encoding: 319 312 250
Width: 1061
Flags: W
LayerCount: 3
Fore
SplineSet
815 1094 m 1
 1022 1094 l 1
 608 612 l 1
 1051 0 l 1
 850 0 l 1
 489 504 l 1
 354 391 l 1
 354 0 l 1
 176 0 l 1
 176 1094 l 1
 354 1094 l 1
 354 811 l 2
 354 700 350 607 342 532 c 1
 815 1094 l 1
EndSplineSet
EndChar

StartChar: lacute
Encoding: 321 314 252
Width: 518
Flags: W
LayerCount: 3
Fore
SplineSet
342 0 m 1
 176 0 l 1
 176 1556 l 1
 342 1556 l 1
 342 0 l 1
163 1661 m 1
 195 1702 230 1752 266 1811 c 0
 304 1870 333 1921 354 1964 c 1
 556 1964 l 1
 556 1943 l 1
 527 1900 483 1846 425 1783 c 0
 367 1720 317 1671 274 1636 c 1
 163 1636 l 1
 163 1661 l 1
EndSplineSet
EndChar

StartChar: Lcommaaccent
Encoding: 322 315 253
Width: 1063
Flags: W
LayerCount: 3
Fore
SplineSet
201 0 m 1
 201 1462 l 1
 371 1462 l 1
 371 154 l 1
 1016 154 l 1
 1016 0 l 1
 201 0 l 1
418 -428 m 1
 437 -385 454 -333 472 -271 c 0
 488 -209 499 -160 504 -125 c 1
 672 -125 l 1
 672 -143 l 1
 665 -177 645 -226 612 -290 c 0
 579 -355 545 -409 508 -453 c 1
 418 -453 l 1
 418 -428 l 1
EndSplineSet
EndChar

StartChar: lcommaaccent
Encoding: 323 316 254
Width: 518
Flags: W
LayerCount: 3
Fore
SplineSet
342 0 m 1
 176 0 l 1
 176 1556 l 1
 342 1556 l 1
 342 0 l 1
89 -428 m 1
 108 -385 126 -333 142 -271 c 0
 160 -209 170 -160 175 -125 c 1
 343 -125 l 1
 343 -143 l 1
 336 -177 316 -226 283 -290 c 0
 250 -355 216 -409 179 -453 c 1
 89 -453 l 1
 89 -428 l 1
EndSplineSet
EndChar

StartChar: Lcaron
Encoding: 324 317 255
Width: 1063
Flags: W
LayerCount: 3
Fore
SplineSet
201 0 m 1
 201 1462 l 1
 371 1462 l 1
 371 154 l 1
 1016 154 l 1
 1016 0 l 1
 201 0 l 1
678 1160 m 1
 691 1197 704 1243 716 1298 c 0
 730 1354 739 1409 746 1463 c 1
 914 1463 l 1
 914 1445 l 1
 907 1411 888 1363 859 1300 c 0
 830 1237 799 1183 768 1136 c 1
 678 1136 l 1
 678 1160 l 1
EndSplineSet
EndChar

StartChar: lcaron
Encoding: 325 318 256
Width: 518
Flags: W
LayerCount: 3
Fore
SplineSet
342 0 m 1
 176 0 l 1
 176 1556 l 1
 342 1556 l 1
 342 0 l 1
436 1253 m 1
 449 1290 462 1336 474 1392 c 0
 488 1447 497 1502 504 1556 c 1
 672 1556 l 1
 672 1538 l 1
 665 1504 646 1456 617 1393 c 0
 588 1330 557 1276 526 1229 c 1
 436 1229 l 1
 436 1253 l 1
EndSplineSet
EndChar

StartChar: ldot
Encoding: 327 320 258
Width: 643
Flags: W
LayerCount: 3
Fore
SplineSet
342 0 m 1
 176 0 l 1
 176 1556 l 1
 342 1556 l 1
 342 0 l 1
484 681 m 0
 484 719 493 747 512 764 c 0
 531 782 554 791 582 791 c 0
 609 791 632 782 651 764 c 0
 670 746 680 718 680 681 c 0
 680 644 670 616 651 598 c 0
 632 579 609 570 582 570 c 0
 554 570 531 579 512 598 c 0
 493 616 484 644 484 681 c 0
EndSplineSet
EndChar

StartChar: Lslash
Encoding: 328 321 259
Width: 1071
Flags: W
LayerCount: 3
Fore
SplineSet
201 0 m 1
 201 508 l 1
 96 449 l 1
 29 563 l 1
 201 664 l 1
 201 1462 l 1
 371 1462 l 1
 371 764 l 1
 668 938 l 1
 735 817 l 1
 371 606 l 1
 371 154 l 1
 1016 154 l 1
 1016 0 l 1
 201 0 l 1
EndSplineSet
EndChar

StartChar: lslash
Encoding: 329 322 260
Width: 535
Flags: W
LayerCount: 3
Fore
SplineSet
342 864 m 1
 479 958 l 1
 551 846 l 1
 342 705 l 1
 342 0 l 1
 176 0 l 1
 176 596 l 1
 66 524 l 1
 -4 637 l 1
 176 756 l 1
 176 1556 l 1
 342 1556 l 1
 342 864 l 1
EndSplineSet
EndChar

StartChar: Ncommaaccent
Encoding: 332 325 263
Width: 1544
Flags: W
LayerCount: 3
Fore
SplineSet
1343 0 m 1
 1149 0 l 1
 350 1227 l 1
 342 1227 l 1
 353 1083 358 951 358 831 c 2
 358 0 l 1
 201 0 l 1
 201 1462 l 1
 393 1462 l 1
 1190 240 l 1
 1198 240 l 1
 1197 258 1194 316 1189 414 c 0
 1184 511 1183 581 1184 623 c 2
 1184 1462 l 1
 1343 1462 l 1
 1343 0 l 1
574 -428 m 1
 593 -385 610 -333 628 -271 c 0
 644 -209 655 -160 660 -125 c 1
 828 -125 l 1
 828 -143 l 1
 821 -177 801 -226 768 -290 c 0
 735 -355 701 -409 664 -453 c 1
 574 -453 l 1
 574 -428 l 1
EndSplineSet
EndChar

StartChar: ncommaaccent
Encoding: 333 326 264
Width: 1257
Flags: W
LayerCount: 3
Fore
SplineSet
926 0 m 1
 926 709 l 2
 926 798 906 865 865 909 c 0
 824 953 761 975 674 975 c 0
 559 975 475 944 422 882 c 0
 369 820 342 718 342 575 c 2
 342 0 l 1
 176 0 l 1
 176 1096 l 1
 311 1096 l 1
 338 946 l 1
 346 946 l 1
 380 1000 428 1042 489 1072 c 0
 550 1101 619 1116 694 1116 c 0
 826 1116 925 1084 992 1020 c 0
 1059 957 1092 855 1092 715 c 2
 1092 0 l 1
 926 0 l 1
455 -428 m 1
 474 -385 492 -333 508 -271 c 0
 526 -209 536 -160 541 -125 c 1
 709 -125 l 1
 709 -143 l 1
 702 -177 682 -226 649 -290 c 0
 616 -355 582 -409 545 -453 c 1
 455 -453 l 1
 455 -428 l 1
EndSplineSet
EndChar

StartChar: napostrophe
Encoding: 336 329 267
Width: 1395
Flags: W
LayerCount: 3
Fore
SplineSet
1061 0 m 1
 1061 709 l 2
 1061 798 1041 865 1000 909 c 0
 959 953 896 975 809 975 c 0
 694 975 610 944 557 882 c 0
 504 820 477 718 477 575 c 2
 477 0 l 1
 311 0 l 1
 311 1096 l 1
 446 1096 l 1
 473 946 l 1
 481 946 l 1
 515 1000 563 1042 624 1072 c 0
 685 1101 754 1116 829 1116 c 0
 961 1116 1060 1084 1127 1020 c 0
 1194 957 1227 855 1227 715 c 2
 1227 0 l 1
 1061 0 l 1
285 1462 m 1
 300 1440 l 1
 283 1373 258 1296 225 1208 c 0
 192 1119 158 1037 123 961 c 1
 1 961 l 1
 48 1151 82 1318 103 1462 c 1
 285 1462 l 1
EndSplineSet
EndChar

StartChar: Eng
Encoding: 337 330 268
Width: 1544
Flags: W
LayerCount: 3
Fore
SplineSet
969 -385 m 0
 904 -385 853 -376 817 -358 c 1
 817 -213 l 1
 864 -226 916 -233 971 -233 c 0
 1041 -233 1094 -213 1129 -172 c 0
 1164 -131 1182 -74 1182 0 c 1
 350 1227 l 1
 342 1227 l 1
 353 1051 358 910 358 805 c 2
 358 0 l 1
 201 0 l 1
 201 1462 l 1
 393 1462 l 1
 1190 260 l 1
 1198 260 l 1
 1189 359 1184 484 1184 633 c 2
 1184 1462 l 1
 1343 1462 l 1
 1343 14 l 2
 1343 -116 1311 -215 1246 -283 c 0
 1182 -351 1090 -385 969 -385 c 0
EndSplineSet
EndChar

StartChar: eng
Encoding: 338 331 269
Width: 1257
Flags: W
LayerCount: 3
Fore
SplineSet
805 -492 m 0
 748 -492 701 -484 664 -467 c 1
 664 -332 l 1
 704 -345 745 -352 786 -352 c 0
 879 -352 926 -295 926 -180 c 2
 926 709 l 2
 926 798 906 865 865 909 c 0
 824 953 761 975 674 975 c 0
 559 975 475 944 422 882 c 0
 369 820 342 718 342 575 c 2
 342 0 l 1
 176 0 l 1
 176 1096 l 1
 311 1096 l 1
 338 946 l 1
 348 946 l 1
 383 1001 430 1043 490 1072 c 0
 550 1101 617 1116 690 1116 c 0
 825 1116 926 1084 992 1020 c 0
 1059 957 1092 855 1092 715 c 2
 1092 -168 l 2
 1092 -271 1069 -350 1022 -407 c 0
 975 -464 903 -492 805 -492 c 0
EndSplineSet
EndChar

StartChar: OE
Encoding: 345 338 276
Width: 1890
Flags: W
LayerCount: 3
Fore
SplineSet
1767 0 m 1
 999 0 l 1
 931 -13 866 -20 805 -20 c 0
 587 -20 419 46 302 176 c 0
 184 308 125 494 125 735 c 0
 125 975 183 1160 299 1290 c 0
 415 1420 580 1485 793 1485 c 0
 861 1485 925 1477 985 1462 c 1
 1767 1462 l 1
 1767 1311 l 1
 1178 1311 l 1
 1178 840 l 1
 1729 840 l 1
 1729 690 l 1
 1178 690 l 1
 1178 152 l 1
 1767 152 l 1
 1767 0 l 1
811 1333 m 0
 645 1333 519 1282 434 1180 c 0
 348 1079 305 930 305 733 c 0
 305 535 348 385 434 282 c 0
 519 180 644 129 809 129 c 0
 884 129 950 140 1008 162 c 1
 1008 1303 l 1
 950 1323 884 1333 811 1333 c 0
EndSplineSet
EndChar

StartChar: oe
Encoding: 346 339 277
Width: 1929
Flags: W
LayerCount: 3
Fore
SplineSet
1430 -20 m 0
 1235 -20 1095 58 1012 215 c 1
 971 138 915 79 846 40 c 0
 776 0 695 -20 604 -20 c 0
 455 -20 336 31 247 132 c 0
 158 234 113 373 113 549 c 0
 113 726 157 864 244 964 c 0
 331 1064 453 1114 610 1114 c 0
 697 1114 775 1094 844 1054 c 0
 912 1015 967 957 1008 881 c 1
 1047 956 1098 1013 1162 1054 c 0
 1226 1094 1300 1114 1384 1114 c 0
 1518 1114 1625 1070 1704 982 c 0
 1783 893 1823 774 1823 623 c 2
 1823 518 l 1
 1094 518 l 1
 1099 256 1212 125 1432 125 c 0
 1495 125 1553 131 1606 142 c 0
 1660 154 1716 173 1774 199 c 1
 1774 51 l 1
 1715 25 1661 7 1610 -4 c 0
 1559 -15 1499 -20 1430 -20 c 0
287 549 m 0
 287 408 312 302 363 228 c 0
 414 156 495 119 606 119 c 0
 715 119 794 154 846 226 c 0
 896 296 922 402 922 541 c 0
 922 688 896 798 844 868 c 0
 793 940 712 975 602 975 c 0
 491 975 411 939 362 867 c 0
 312 795 287 689 287 549 c 0
1382 975 m 0
 1297 975 1231 948 1182 893 c 0
 1134 838 1106 758 1098 653 c 1
 1642 653 l 1
 1642 758 1620 838 1576 893 c 0
 1532 948 1467 975 1382 975 c 0
EndSplineSet
EndChar

StartChar: Rcommaaccent
Encoding: 349 342 280
Width: 1266
Flags: W
LayerCount: 3
Fore
SplineSet
371 608 m 1
 371 0 l 1
 201 0 l 1
 201 1462 l 1
 602 1462 l 2
 781 1462 914 1428 1000 1359 c 0
 1085 1290 1128 1187 1128 1049 c 0
 1128 856 1030 725 834 657 c 1
 1231 0 l 1
 1030 0 l 1
 676 608 l 1
 371 608 l 1
371 754 m 1
 604 754 l 2
 724 754 812 778 868 826 c 0
 924 873 952 945 952 1040 c 0
 952 1137 924 1206 866 1249 c 0
 810 1292 718 1313 592 1313 c 2
 371 1313 l 1
 371 754 l 1
494 -428 m 1
 513 -385 530 -333 548 -271 c 0
 564 -209 575 -160 580 -125 c 1
 748 -125 l 1
 748 -143 l 1
 741 -177 721 -226 688 -290 c 0
 655 -355 621 -409 584 -453 c 1
 494 -453 l 1
 494 -428 l 1
EndSplineSet
EndChar

StartChar: rcommaaccent
Encoding: 350 343 281
Width: 836
Flags: W
LayerCount: 3
Fore
SplineSet
676 1116 m 0
 725 1116 768 1112 807 1104 c 1
 784 950 l 1
 739 960 699 965 664 965 c 0
 575 965 500 929 436 857 c 0
 374 785 342 695 342 588 c 2
 342 0 l 1
 176 0 l 1
 176 1096 l 1
 313 1096 l 1
 332 893 l 1
 340 893 l 1
 381 964 430 1019 487 1058 c 0
 544 1097 607 1116 676 1116 c 0
96 -428 m 1
 115 -385 132 -333 150 -271 c 0
 166 -209 177 -160 182 -125 c 1
 350 -125 l 1
 350 -143 l 1
 343 -177 323 -226 290 -290 c 0
 257 -355 223 -409 186 -453 c 1
 96 -453 l 1
 96 -428 l 1
EndSplineSet
EndChar

StartChar: rcaron
Encoding: 352 345 283
Width: 836
Flags: W
LayerCount: 3
Fore
SplineSet
676 1116 m 0
 725 1116 768 1112 807 1104 c 1
 784 950 l 1
 739 960 699 965 664 965 c 0
 575 965 500 929 436 857 c 0
 374 785 342 695 342 588 c 2
 342 0 l 1
 176 0 l 1
 176 1096 l 1
 313 1096 l 1
 332 893 l 1
 340 893 l 1
 381 964 430 1019 487 1058 c 0
 544 1097 607 1116 676 1116 c 0
130 1569 m 1
 245 1569 l 1
 321 1520 394 1457 464 1380 c 1
 551 1467 624 1530 685 1569 c 1
 804 1569 l 1
 804 1544 l 1
 738 1476 l 2
 642 1377 579 1299 548 1241 c 1
 382 1241 l 1
 367 1268 342 1303 308 1345 c 0
 274 1387 215 1453 130 1544 c 1
 130 1569 l 1
EndSplineSet
EndChar

StartChar: Tcommaaccent
Encoding: 361 354 292
Width: 1133
Flags: W
LayerCount: 3
Fore
SplineSet
651 0 m 1
 481 0 l 1
 481 1311 l 1
 18 1311 l 1
 18 1462 l 1
 1114 1462 l 1
 1114 1311 l 1
 651 1311 l 1
 651 0 l 1
394 -428 m 1
 413 -385 430 -333 448 -271 c 0
 464 -209 475 -160 480 -125 c 1
 648 -125 l 1
 648 -143 l 1
 641 -177 621 -226 588 -290 c 0
 555 -355 521 -409 484 -453 c 1
 394 -453 l 1
 394 -428 l 1
EndSplineSet
EndChar

StartChar: tcommaaccent
Encoding: 362 355 293
Width: 723
Flags: W
LayerCount: 3
Fore
SplineSet
530 117 m 0
 559 117 588 119 615 124 c 0
 642 128 664 132 680 137 c 1
 680 10 l 1
 662 1 636 -6 600 -12 c 0
 566 -17 534 -20 506 -20 c 0
 294 -20 188 92 188 315 c 2
 188 967 l 1
 31 967 l 1
 31 1047 l 1
 188 1116 l 1
 258 1350 l 1
 354 1350 l 1
 354 1096 l 1
 672 1096 l 1
 672 967 l 1
 354 967 l 1
 354 322 l 2
 354 256 370 205 401 170 c 0
 432 135 475 117 530 117 c 0
243 -428 m 1
 262 -385 280 -333 296 -271 c 0
 314 -209 324 -160 329 -125 c 1
 497 -125 l 1
 497 -143 l 1
 490 -177 470 -226 437 -290 c 0
 404 -355 370 -409 333 -453 c 1
 243 -453 l 1
 243 -428 l 1
EndSplineSet
EndChar

StartChar: tcaron
Encoding: 364 357 295
Width: 723
Flags: W
LayerCount: 3
Fore
SplineSet
530 117 m 0
 559 117 588 119 615 124 c 0
 642 128 664 132 680 137 c 1
 680 10 l 1
 662 1 636 -6 600 -12 c 0
 566 -17 534 -20 506 -20 c 0
 294 -20 188 92 188 315 c 2
 188 967 l 1
 31 967 l 1
 31 1047 l 1
 188 1116 l 1
 258 1350 l 1
 354 1350 l 1
 354 1096 l 1
 672 1096 l 1
 672 967 l 1
 354 967 l 1
 354 322 l 2
 354 256 370 205 401 170 c 0
 432 135 475 117 530 117 c 0
491 1253 m 1
 504 1290 516 1336 530 1392 c 0
 542 1447 552 1502 559 1556 c 1
 727 1556 l 1
 727 1538 l 1
 720 1504 701 1456 672 1393 c 0
 643 1330 612 1276 581 1229 c 1
 491 1229 l 1
 491 1253 l 1
EndSplineSet
EndChar

StartChar: Tbar
Encoding: 365 358 296
Width: 1133
Flags: W
LayerCount: 3
Fore
SplineSet
481 815 m 1
 481 1311 l 1
 18 1311 l 1
 18 1462 l 1
 1114 1462 l 1
 1114 1311 l 1
 651 1311 l 1
 651 815 l 1
 961 815 l 1
 961 674 l 1
 651 674 l 1
 651 0 l 1
 481 0 l 1
 481 674 l 1
 168 674 l 1
 168 815 l 1
 481 815 l 1
EndSplineSet
EndChar

StartChar: tbar
Encoding: 366 359 297
Width: 723
Flags: W
LayerCount: 3
Fore
SplineSet
535 117 m 0
 592 117 640 124 680 137 c 1
 680 10 l 1
 659 1 630 -7 595 -12 c 0
 560 -17 528 -20 500 -20 c 0
 292 -20 188 96 188 328 c 2
 188 582 l 1
 47 582 l 1
 47 711 l 1
 188 711 l 1
 188 967 l 1
 31 967 l 1
 31 1047 l 1
 188 1116 l 1
 258 1350 l 1
 354 1350 l 1
 354 1096 l 1
 672 1096 l 1
 672 967 l 1
 354 967 l 1
 354 711 l 1
 655 711 l 1
 655 582 l 1
 354 582 l 1
 354 338 l 2
 354 191 414 117 535 117 c 0
EndSplineSet
EndChar

StartChar: longs
Encoding: 390 383 321
Width: 655
Flags: W
LayerCount: 3
Fore
SplineSet
342 0 m 1
 176 0 l 1
 176 1180 l 2
 176 1438 296 1567 535 1567 c 0
 599 1567 664 1555 731 1530 c 1
 688 1397 l 1
 630 1417 577 1427 528 1427 c 0
 463 1427 416 1406 386 1366 c 0
 357 1324 342 1263 342 1182 c 2
 342 0 l 1
EndSplineSet
EndChar

StartChar: florin
Encoding: 391 402 322
Width: 1182
Flags: W
LayerCount: 3
Fore
SplineSet
328 -492 m 0
 282 -492 238 -486 195 -473 c 1
 195 -334 l 1
 242 -346 285 -352 326 -352 c 0
 389 -352 434 -335 460 -301 c 0
 485 -267 498 -212 498 -137 c 2
 498 836 l 1
 276 836 l 1
 276 911 l 1
 498 971 l 1
 498 1110 l 2
 498 1240 525 1335 579 1394 c 0
 633 1453 721 1483 842 1483 c 0
 899 1483 967 1469 1047 1440 c 1
 1025 1376 l 1
 1004 1311 l 1
 936 1332 882 1343 842 1343 c 0
 777 1343 731 1326 704 1290 c 0
 677 1256 664 1197 664 1114 c 2
 664 965 l 1
 946 965 l 1
 946 836 l 1
 668 836 l 1
 668 -133 l 2
 668 -256 642 -346 589 -404 c 0
 536 -463 449 -492 328 -492 c 0
EndSplineSet
EndChar

StartChar: Aringacute
Encoding: 392 506 323
Width: 1300
Flags: W
LayerCount: 3
Fore
SplineSet
872 1430 m 0
 872 1341 837 1278 768 1241 c 1
 1300 0 l 1
 1126 0 l 1
 950 401 l 1
 340 401 l 1
 174 0 l 1
 0 0 l 1
 532 1239 l 1
 461 1274 426 1336 426 1427 c 0
 426 1494 446 1547 487 1585 c 0
 528 1623 581 1642 647 1642 c 0
 714 1642 768 1622 810 1584 c 0
 851 1544 872 1493 872 1430 c 0
899 555 m 1
 721 987 l 2
 704 1026 680 1093 649 1190 c 1
 640 1158 627 1120 611 1074 c 0
 595 1030 584 999 578 983 c 2
 401 555 l 1
 899 555 l 1
553 1712 m 1
 586 1751 619 1796 653 1846 c 0
 687 1895 712 1934 727 1962 c 1
 930 1962 l 1
 930 1946 l 1
 909 1915 870 1873 814 1820 c 0
 758 1766 708 1724 664 1694 c 1
 553 1694 l 1
 553 1712 l 1
764 1427 m 0
 764 1465 753 1494 731 1514 c 0
 709 1534 681 1544 647 1544 c 0
 613 1544 585 1534 563 1514 c 0
 541 1494 530 1465 530 1427 c 0
 530 1390 540 1362 560 1342 c 0
 580 1321 609 1311 647 1311 c 0
 682 1311 711 1321 732 1342 c 0
 753 1362 764 1390 764 1427 c 0
EndSplineSet
EndChar

StartChar: aringacute
Encoding: 393 507 324
Width: 1139
Flags: W
LayerCount: 3
Fore
SplineSet
471 1753 m 1
 471 1769 l 1
 502 1797 535 1831 570 1871 c 0
 605 1911 630 1941 645 1962 c 1
 905 1962 l 1
 905 1950 l 1
 891 1934 857 1908 802 1874 c 0
 747 1838 677 1798 592 1753 c 1
 471 1753 l 1
850 0 m 1
 817 156 l 1
 809 156 l 1
 754 87 700 41 646 16 c 0
 591 -8 523 -20 442 -20 c 0
 333 -20 248 8 186 64 c 0
 125 120 94 200 94 303 c 0
 94 524 273 640 631 651 c 2
 811 657 l 1
 811 725 l 2
 811 812 791 875 752 916 c 0
 712 957 648 977 559 977 c 0
 495 977 435 968 380 951 c 0
 324 934 272 914 225 893 c 1
 170 1020 l 1
 226 1049 289 1072 358 1088 c 0
 427 1106 496 1114 563 1114 c 0
 702 1114 806 1085 872 1027 c 0
 940 969 973 876 973 748 c 2
 973 0 l 1
 850 0 l 1
475 117 m 0
 578 117 660 145 718 202 c 0
 778 259 807 338 807 440 c 2
 807 539 l 1
 641 532 l 2
 509 527 414 507 356 470 c 0
 297 434 268 378 268 301 c 0
 268 241 286 195 322 164 c 0
 359 133 410 117 475 117 c 0
803 1458 m 0
 803 1393 782 1340 742 1300 c 0
 700 1261 646 1241 578 1241 c 0
 511 1241 457 1260 416 1299 c 0
 376 1338 356 1390 356 1456 c 0
 356 1521 376 1573 416 1612 c 0
 457 1650 511 1669 578 1669 c 0
 645 1669 700 1649 741 1610 c 0
 782 1570 803 1519 803 1458 c 0
694 1456 m 0
 694 1493 683 1522 662 1542 c 0
 640 1563 612 1573 578 1573 c 0
 544 1573 516 1563 494 1542 c 0
 472 1522 461 1493 461 1456 c 0
 461 1419 471 1390 491 1370 c 0
 511 1349 540 1339 578 1339 c 0
 613 1339 641 1349 662 1370 c 0
 683 1390 694 1419 694 1456 c 0
EndSplineSet
EndChar

StartChar: Scommaaccent
Encoding: 398 536 329
Width: 1124
Flags: W
LayerCount: 3
Fore
SplineSet
1026 389 m 0
 1026 260 979 160 886 88 c 0
 793 16 666 -20 506 -20 c 0
 333 -20 199 2 106 47 c 1
 106 211 l 1
 166 186 231 166 302 151 c 0
 373 136 443 129 512 129 c 0
 625 129 711 150 768 194 c 0
 825 236 854 296 854 373 c 0
 854 424 844 465 824 498 c 0
 803 530 769 560 722 587 c 0
 674 614 601 645 504 680 c 0
 368 729 271 786 212 853 c 0
 154 920 125 1007 125 1114 c 0
 125 1227 167 1316 252 1383 c 0
 337 1450 449 1483 588 1483 c 0
 733 1483 867 1456 989 1403 c 1
 936 1255 l 1
 815 1306 698 1331 584 1331 c 0
 494 1331 424 1312 373 1273 c 0
 322 1234 297 1181 297 1112 c 0
 297 1061 306 1020 325 988 c 0
 344 955 375 926 420 898 c 0
 464 872 532 842 623 809 c 0
 776 754 882 696 940 633 c 0
 997 570 1026 489 1026 389 c 0
375 -428 m 1
 394 -385 412 -333 428 -271 c 0
 446 -209 456 -160 461 -125 c 1
 629 -125 l 1
 629 -143 l 1
 622 -177 602 -226 569 -290 c 0
 536 -355 502 -409 465 -453 c 1
 375 -453 l 1
 375 -428 l 1
EndSplineSet
EndChar

StartChar: scommaaccent
Encoding: 399 537 330
Width: 977
Flags: W
LayerCount: 3
Fore
SplineSet
883 299 m 0
 883 197 845 118 769 63 c 0
 693 8 586 -20 449 -20 c 0
 304 -20 190 3 109 49 c 1
 109 203 l 1
 162 176 218 155 278 140 c 0
 339 125 397 117 453 117 c 0
 540 117 606 131 653 158 c 0
 700 186 723 228 723 285 c 0
 723 328 704 364 668 394 c 0
 630 425 558 461 451 502 c 0
 349 540 276 573 234 602 c 0
 190 630 158 662 138 698 c 0
 116 734 106 777 106 827 c 0
 106 916 142 987 215 1038 c 0
 288 1090 387 1116 514 1116 c 0
 632 1116 747 1092 860 1044 c 1
 801 909 l 1
 691 954 591 977 502 977 c 0
 423 977 364 965 324 940 c 0
 284 915 264 881 264 838 c 0
 264 809 272 784 286 763 c 0
 302 742 326 723 359 704 c 0
 392 685 456 658 551 623 c 0
 681 576 769 528 814 480 c 0
 860 432 883 372 883 299 c 0
298 -428 m 1
 317 -385 334 -333 352 -271 c 0
 368 -209 379 -160 384 -125 c 1
 552 -125 l 1
 552 -143 l 1
 545 -177 525 -226 492 -290 c 0
 459 -355 425 -409 388 -453 c 1
 298 -453 l 1
 298 -428 l 1
EndSplineSet
EndChar

StartChar: circumflex
Encoding: 400 710 331
Width: 1212
Flags: W
LayerCount: 3
Fore
SplineSet
268 1264 m 1
 353 1355 412 1421 446 1464 c 0
 480 1507 505 1542 520 1569 c 1
 686 1569 l 1
 701 1541 726 1505 762 1460 c 0
 799 1416 859 1351 942 1264 c 1
 942 1241 l 1
 823 1241 l 1
 764 1278 691 1340 602 1427 c 1
 511 1338 438 1276 383 1241 c 1
 268 1241 l 1
 268 1264 l 1
EndSplineSet
EndChar

StartChar: caron
Encoding: 401 711 332
Width: 1212
Flags: W
LayerCount: 3
Fore
SplineSet
268 1569 m 1
 383 1569 l 1
 459 1520 532 1457 602 1380 c 1
 689 1467 762 1530 823 1569 c 1
 942 1569 l 1
 942 1544 l 1
 876 1476 l 2
 780 1377 717 1299 686 1241 c 1
 520 1241 l 1
 505 1268 480 1303 446 1345 c 0
 412 1387 353 1453 268 1544 c 1
 268 1569 l 1
EndSplineSet
EndChar

StartChar: macron
Encoding: 402 175 333
Width: 1202
Flags: W
LayerCount: 3
Fore
SplineSet
301 1378 m 1
 901 1378 l 1
 901 1241 l 1
 301 1241 l 1
 301 1378 l 1
EndSplineSet
EndChar

StartChar: breve
Encoding: 403 728 334
Width: 1212
Flags: W
LayerCount: 3
Fore
SplineSet
598 1241 m 0
 505 1241 432 1264 380 1310 c 0
 328 1355 299 1422 293 1509 c 1
 397 1509 l 1
 401 1476 410 1451 424 1432 c 0
 437 1413 456 1400 480 1391 c 0
 505 1382 545 1378 602 1378 c 0
 669 1378 719 1389 751 1410 c 0
 783 1431 802 1464 809 1509 c 1
 913 1509 l 1
 906 1425 875 1359 820 1312 c 0
 764 1265 690 1241 598 1241 c 0
EndSplineSet
EndChar

StartChar: dotaccent
Encoding: 404 729 335
Width: 518
Flags: W
LayerCount: 3
Fore
SplineSet
162 1393 m 0
 162 1431 171 1459 190 1476 c 0
 209 1494 232 1503 260 1503 c 0
 287 1503 310 1494 329 1476 c 0
 348 1458 358 1430 358 1393 c 0
 358 1356 348 1328 329 1310 c 0
 310 1291 287 1282 260 1282 c 0
 232 1282 209 1291 190 1310 c 0
 171 1328 162 1356 162 1393 c 0
EndSplineSet
EndChar

StartChar: ring
Encoding: 405 730 336
Width: 1182
Flags: W
LayerCount: 3
Fore
SplineSet
813 1458 m 0
 813 1393 792 1340 752 1300 c 0
 710 1261 656 1241 588 1241 c 0
 521 1241 467 1260 427 1300 c 0
 387 1338 367 1391 367 1456 c 0
 367 1521 387 1573 428 1612 c 0
 468 1650 521 1669 588 1669 c 0
 655 1669 710 1649 751 1610 c 0
 792 1570 813 1519 813 1458 c 0
705 1456 m 0
 705 1493 694 1522 672 1542 c 0
 650 1563 622 1573 588 1573 c 0
 554 1573 526 1563 504 1542 c 0
 482 1522 471 1493 471 1456 c 0
 471 1419 481 1390 501 1370 c 0
 521 1349 550 1339 588 1339 c 0
 623 1339 651 1349 672 1370 c 0
 694 1390 705 1419 705 1456 c 0
EndSplineSet
EndChar

StartChar: ogonek
Encoding: 406 731 337
Width: 403
Flags: W
LayerCount: 3
Fore
SplineSet
178 -238 m 0
 178 -301 209 -332 272 -332 c 0
 300 -332 332 -328 369 -319 c 1
 369 -428 l 1
 326 -440 284 -446 244 -446 c 0
 106 -446 37 -383 37 -258 c 0
 37 -211 51 -166 80 -120 c 0
 109 -76 147 -35 195 0 c 1
 315 0 l 1
 270 -44 236 -84 212 -120 c 0
 190 -157 178 -196 178 -238 c 0
EndSplineSet
EndChar

StartChar: tilde
Encoding: 407 732 338
Width: 1212
Flags: W
LayerCount: 3
Fore
SplineSet
788 1243 m 0
 759 1243 731 1249 704 1262 c 0
 677 1274 650 1288 624 1302 c 0
 597 1318 572 1331 548 1344 c 0
 523 1356 500 1362 477 1362 c 0
 444 1362 418 1352 402 1332 c 0
 384 1312 371 1282 362 1241 c 1
 264 1241 l 1
 273 1322 296 1385 334 1430 c 0
 373 1476 422 1499 483 1499 c 0
 514 1499 543 1493 572 1480 c 0
 601 1468 628 1454 654 1440 c 0
 680 1424 705 1411 729 1398 c 0
 753 1386 776 1380 797 1380 c 0
 830 1380 854 1390 870 1410 c 0
 886 1429 899 1460 909 1501 c 1
 1008 1501 l 1
 999 1420 976 1357 938 1312 c 0
 901 1266 851 1243 788 1243 c 0
EndSplineSet
EndChar

StartChar: hungarumlaut
Encoding: 408 733 339
Width: 1182
Flags: W
LayerCount: 3
Fore
SplineSet
231 1266 m 1
 255 1298 285 1345 322 1407 c 0
 359 1469 387 1523 408 1569 c 1
 594 1569 l 1
 594 1548 l 1
 569 1506 528 1452 472 1387 c 0
 414 1322 367 1273 328 1241 c 1
 231 1241 l 1
 231 1266 l 1
588 1266 m 1
 621 1311 654 1364 688 1422 c 0
 721 1482 747 1530 764 1569 c 1
 950 1569 l 1
 950 1548 l 1
 925 1506 884 1452 828 1387 c 0
 770 1322 723 1273 684 1241 c 1
 588 1241 l 1
 588 1266 l 1
EndSplineSet
EndChar

StartChar: tonos
Encoding: 409 900 340
Width: 1182
Flags: W
LayerCount: 3
Fore
SplineSet
508 1270 m 1
 526 1318 544 1380 562 1456 c 0
 579 1531 592 1596 600 1651 c 1
 784 1651 l 1
 784 1628 l 1
 772 1579 748 1514 712 1436 c 0
 675 1356 641 1292 608 1241 c 1
 508 1241 l 1
 508 1270 l 1
EndSplineSet
EndChar

StartChar: dieresistonos
Encoding: 410 901 341
Width: 1182
Flags: W
LayerCount: 3
Fore
SplineSet
512 1413 m 1
 555 1526 587 1627 608 1716 c 1
 797 1716 l 1
 797 1696 l 1
 775 1651 744 1599 704 1540 c 0
 663 1480 626 1430 592 1389 c 1
 512 1389 l 1
 512 1413 l 1
283 1393 m 0
 283 1428 292 1453 309 1468 c 0
 326 1483 348 1491 373 1491 c 0
 400 1491 422 1482 438 1465 c 0
 455 1448 463 1424 463 1393 c 0
 463 1360 454 1335 436 1318 c 0
 417 1302 396 1294 373 1294 c 0
 348 1294 326 1302 309 1318 c 0
 292 1335 283 1360 283 1393 c 0
719 1393 m 0
 719 1428 728 1453 745 1468 c 0
 762 1483 784 1491 809 1491 c 0
 836 1491 858 1482 874 1465 c 0
 891 1448 899 1424 899 1393 c 0
 899 1360 890 1335 872 1318 c 0
 853 1302 832 1294 809 1294 c 0
 784 1294 762 1302 745 1318 c 0
 728 1335 719 1360 719 1393 c 0
EndSplineSet
EndChar

StartChar: Alphatonos
Encoding: 411 902 342
Width: 1296
Flags: W
LayerCount: 3
Fore
SplineSet
1120 0 m 1
 938 465 l 1
 352 465 l 1
 172 0 l 1
 0 0 l 1
 578 1468 l 1
 721 1468 l 1
 1296 0 l 1
 1120 0 l 1
885 618 m 1
 715 1071 l 2
 693 1128 670 1199 647 1282 c 1
 632 1218 611 1148 584 1071 c 2
 412 618 l 1
 885 618 l 1
28 1165 m 1
 46 1213 64 1275 82 1350 c 0
 99 1426 112 1491 120 1546 c 1
 304 1546 l 1
 304 1523 l 1
 292 1474 268 1410 232 1330 c 0
 195 1252 161 1187 128 1136 c 1
 28 1136 l 1
 28 1165 l 1
EndSplineSet
EndChar

StartChar: Epsilontonos
Encoding: 413 904 344
Width: 1266
Flags: W
LayerCount: 3
Fore
SplineSet
1141 0 m 1
 326 0 l 1
 326 1462 l 1
 1141 1462 l 1
 1141 1311 l 1
 496 1311 l 1
 496 840 l 1
 1102 840 l 1
 1102 690 l 1
 496 690 l 1
 496 152 l 1
 1141 152 l 1
 1141 0 l 1
-44 1165 m 1
 -26 1213 -8 1275 10 1350 c 0
 27 1426 40 1491 48 1546 c 1
 232 1546 l 1
 232 1523 l 1
 220 1474 196 1410 160 1330 c 0
 123 1252 89 1187 56 1136 c 1
 -44 1136 l 1
 -44 1165 l 1
EndSplineSet
EndChar

StartChar: Etatonos
Encoding: 414 905 345
Width: 1661
Flags: W
LayerCount: 3
Fore
SplineSet
1461 0 m 1
 1291 0 l 1
 1291 688 l 1
 521 688 l 1
 521 0 l 1
 351 0 l 1
 351 1462 l 1
 521 1462 l 1
 521 840 l 1
 1291 840 l 1
 1291 1462 l 1
 1461 1462 l 1
 1461 0 l 1
-44 1165 m 1
 -26 1213 -8 1275 10 1350 c 0
 27 1426 40 1491 48 1546 c 1
 232 1546 l 1
 232 1523 l 1
 220 1474 196 1410 160 1330 c 0
 123 1252 89 1187 56 1136 c 1
 -44 1136 l 1
 -44 1165 l 1
EndSplineSet
EndChar

StartChar: Iotatonos.alt
Encoding: 415 -1 346
Width: 920
Flags: W
LayerCount: 3
Fore
SplineSet
836 0 m 1
 322 0 l 1
 322 98 l 1
 494 133 l 1
 494 1327 l 1
 322 1364 l 1
 322 1462 l 1
 836 1462 l 1
 836 1364 l 1
 664 1327 l 1
 664 133 l 1
 836 98 l 1
 836 0 l 1
-28 1165 m 1
 -10 1213 8 1275 26 1350 c 0
 43 1426 56 1491 64 1546 c 1
 248 1546 l 1
 248 1523 l 1
 236 1474 212 1410 176 1330 c 0
 139 1252 105 1187 72 1136 c 1
 -28 1136 l 1
 -28 1165 l 1
EndSplineSet
EndChar

StartChar: Omicrontonos
Encoding: 416 908 347
Width: 1665
Flags: W
LayerCount: 3
Fore
SplineSet
1538 733 m 0
 1538 499 1479 315 1360 181 c 0
 1242 47 1078 -20 867 -20 c 0
 652 -20 486 46 368 178 c 0
 252 309 193 495 193 735 c 0
 193 973 252 1158 369 1288 c 0
 486 1420 653 1485 869 1485 c 0
 1079 1485 1243 1418 1361 1285 c 0
 1479 1152 1538 968 1538 733 c 0
373 733 m 0
 373 535 415 385 500 282 c 0
 584 180 706 129 867 129 c 0
 1029 129 1151 180 1234 282 c 0
 1317 384 1358 534 1358 733 c 0
 1358 930 1317 1079 1234 1180 c 0
 1152 1282 1030 1333 869 1333 c 0
 707 1333 584 1282 500 1180 c 0
 415 1077 373 928 373 733 c 0
-28 1165 m 1
 -10 1213 8 1275 26 1350 c 0
 43 1426 56 1491 64 1546 c 1
 248 1546 l 1
 248 1523 l 1
 236 1474 212 1410 176 1330 c 0
 139 1252 105 1187 72 1136 c 1
 -28 1136 l 1
 -28 1165 l 1
EndSplineSet
EndChar

StartChar: Upsilontonos
Encoding: 417 910 348
Width: 1413
Flags: W
LayerCount: 3
Fore
SplineSet
839 731 m 1
 1229 1462 l 1
 1413 1462 l 1
 925 567 l 1
 925 0 l 1
 753 0 l 1
 753 559 l 1
 266 1462 l 1
 452 1462 l 1
 839 731 l 1
-44 1165 m 1
 -26 1213 -8 1275 10 1350 c 0
 27 1426 40 1491 48 1546 c 1
 232 1546 l 1
 232 1523 l 1
 220 1474 196 1410 160 1330 c 0
 123 1252 89 1187 56 1136 c 1
 -44 1136 l 1
 -44 1165 l 1
EndSplineSet
EndChar

StartChar: Omegatonos
Encoding: 418 911 349
Width: 1665
Flags: W
LayerCount: 3
Fore
SplineSet
864 1333 m 0
 705 1333 584 1290 501 1204 c 0
 418 1119 376 992 376 823 c 0
 376 673 405 542 462 432 c 0
 520 320 609 221 729 133 c 1
 729 0 l 1
 143 0 l 1
 143 152 l 1
 507 152 l 1
 406 231 329 328 276 445 c 0
 223 562 196 688 196 823 c 0
 196 1030 255 1192 373 1309 c 0
 491 1426 655 1485 864 1485 c 0
 1074 1485 1238 1427 1356 1312 c 0
 1474 1196 1533 1034 1533 825 c 0
 1533 687 1507 560 1454 445 c 0
 1401 330 1325 232 1224 152 c 1
 1587 152 l 1
 1587 0 l 1
 1001 0 l 1
 1001 133 l 1
 1123 222 1212 323 1268 434 c 0
 1325 545 1353 675 1353 823 c 0
 1353 991 1312 1118 1228 1204 c 0
 1146 1290 1024 1333 864 1333 c 0
-28 1165 m 1
 -10 1213 8 1275 26 1350 c 0
 43 1426 56 1491 64 1546 c 1
 248 1546 l 1
 248 1523 l 1
 236 1474 212 1410 176 1330 c 0
 139 1252 105 1187 72 1136 c 1
 -28 1136 l 1
 -28 1165 l 1
EndSplineSet
EndChar

StartChar: iotadieresistonos
Encoding: 419 912 350
Width: 694
Flags: W
LayerCount: 3
Fore
SplineSet
334 1096 m 1
 334 322 l 2
 334 253 346 201 370 168 c 0
 395 134 436 117 494 117 c 0
 519 117 548 119 582 124 c 0
 615 128 641 132 659 137 c 1
 659 10 l 1
 638 1 610 -6 576 -12 c 0
 540 -17 506 -20 473 -20 c 0
 366 -20 289 8 240 64 c 0
 192 120 168 204 168 317 c 2
 168 1096 l 1
 334 1096 l 1
206 1413 m 1
 249 1526 281 1627 302 1716 c 1
 491 1716 l 1
 491 1696 l 1
 469 1651 438 1599 398 1540 c 0
 357 1480 320 1430 286 1389 c 1
 206 1389 l 1
 206 1413 l 1
-23 1393 m 0
 -23 1428 -14 1453 3 1468 c 0
 20 1483 42 1491 67 1491 c 0
 94 1491 116 1482 132 1465 c 0
 149 1448 157 1424 157 1393 c 0
 157 1360 148 1335 130 1318 c 0
 111 1302 90 1294 67 1294 c 0
 42 1294 20 1302 3 1318 c 0
 -14 1335 -23 1360 -23 1393 c 0
413 1393 m 0
 413 1428 422 1453 439 1468 c 0
 456 1483 478 1491 503 1491 c 0
 530 1491 552 1482 568 1465 c 0
 585 1448 593 1424 593 1393 c 0
 593 1360 584 1335 566 1318 c 0
 547 1302 526 1294 503 1294 c 0
 478 1294 456 1302 439 1318 c 0
 422 1335 413 1360 413 1393 c 0
EndSplineSet
EndChar

StartChar: Gamma
Encoding: 422 915 353
Width: 1065
Flags: W
LayerCount: 3
Fore
SplineSet
1016 1462 m 1
 1016 1309 l 1
 371 1309 l 1
 371 0 l 1
 201 0 l 1
 201 1462 l 1
 1016 1462 l 1
EndSplineSet
EndChar

StartChar: uni0394
Encoding: 423 916 354
Width: 1171
Flags: W
LayerCount: 3
Fore
SplineSet
39 104 m 1
 502 1462 l 1
 668 1462 l 1
 1133 102 l 1
 1133 0 l 1
 39 0 l 1
 39 104 l 1
584 1268 m 1
 543 1118 510 1003 483 922 c 2
 223 152 l 1
 944 152 l 1
 686 913 l 2
 641 1048 607 1166 584 1268 c 1
EndSplineSet
EndChar

StartChar: Theta
Encoding: 427 920 358
Width: 1595
Flags: W
LayerCount: 3
Fore
SplineSet
483 819 m 1
 1112 819 l 1
 1112 670 l 1
 483 670 l 1
 483 819 l 1
1470 733 m 0
 1470 499 1411 315 1292 181 c 0
 1174 47 1010 -20 799 -20 c 0
 584 -20 418 46 300 178 c 0
 184 309 125 495 125 735 c 0
 125 973 184 1158 301 1288 c 0
 418 1420 585 1485 801 1485 c 0
 1011 1485 1175 1418 1293 1285 c 0
 1411 1152 1470 968 1470 733 c 0
305 733 m 0
 305 536 347 386 430 283 c 0
 513 180 636 129 799 129 c 0
 961 129 1083 180 1166 281 c 0
 1249 382 1290 533 1290 733 c 0
 1290 932 1249 1081 1166 1182 c 0
 1084 1283 962 1333 801 1333 c 0
 638 1333 514 1282 430 1180 c 0
 347 1078 305 929 305 733 c 0
EndSplineSet
EndChar

StartChar: Iota.alt
Encoding: 428 -1 359
Width: 682
Flags: W
LayerCount: 3
Fore
SplineSet
598 0 m 1
 84 0 l 1
 84 98 l 1
 256 133 l 1
 256 1327 l 1
 84 1364 l 1
 84 1462 l 1
 598 1462 l 1
 598 1364 l 1
 426 1327 l 1
 426 133 l 1
 598 98 l 1
 598 0 l 1
EndSplineSet
EndChar

StartChar: Lambda
Encoding: 430 923 361
Width: 1235
Flags: W
LayerCount: 3
Fore
SplineSet
1235 0 m 1
 1053 0 l 1
 723 928 l 2
 665 1096 629 1210 614 1270 c 1
 592 1177 557 1064 510 930 c 2
 182 0 l 1
 0 0 l 1
 528 1462 l 1
 705 1462 l 1
 1235 0 l 1
EndSplineSet
EndChar

StartChar: Xi
Encoding: 433 926 364
Width: 1133
Flags: W
LayerCount: 3
Fore
SplineSet
195 840 m 1
 938 840 l 1
 938 690 l 1
 195 690 l 1
 195 840 l 1
113 1462 m 1
 1020 1462 l 1
 1020 1311 l 1
 113 1311 l 1
 113 1462 l 1
1061 152 m 1
 1061 0 l 1
 72 0 l 1
 72 152 l 1
 1061 152 l 1
EndSplineSet
EndChar

StartChar: Pi
Encoding: 435 928 366
Width: 1493
Flags: W
LayerCount: 3
Fore
SplineSet
1292 0 m 1
 1122 0 l 1
 1122 1311 l 1
 371 1311 l 1
 371 0 l 1
 201 0 l 1
 201 1462 l 1
 1292 1462 l 1
 1292 0 l 1
EndSplineSet
EndChar

StartChar: Sigma
Encoding: 437 931 368
Width: 1161
Flags: W
LayerCount: 3
Fore
SplineSet
74 0 m 1
 74 141 l 1
 555 764 l 1
 86 1319 l 1
 86 1462 l 1
 1057 1462 l 1
 1057 1309 l 1
 381 1309 l 1
 285 1311 l 1
 745 766 l 1
 264 152 l 1
 1116 152 l 1
 1116 0 l 1
 74 0 l 1
EndSplineSet
EndChar

StartChar: Phi
Encoding: 440 934 371
Width: 1634
Flags: W
LayerCount: 3
Fore
SplineSet
731 1483 m 1
 903 1483 l 1
 903 1303 l 1
 973 1303 l 2
 1087 1303 1186 1280 1270 1235 c 0
 1353 1190 1417 1126 1462 1043 c 0
 1506 960 1528 866 1528 760 c 0
 1528 649 1503 551 1454 464 c 0
 1404 378 1336 313 1250 270 c 0
 1163 227 1061 205 944 205 c 2
 903 205 l 1
 903 -20 l 1
 731 -20 l 1
 731 205 l 1
 686 205 l 2
 569 205 467 227 381 271 c 0
 295 315 228 380 179 467 c 0
 130 554 106 651 106 758 c 0
 106 863 128 957 174 1040 c 0
 218 1123 283 1187 367 1234 c 0
 451 1280 550 1303 664 1303 c 2
 731 1303 l 1
 731 1483 l 1
903 348 m 1
 928 348 l 2
 1062 348 1166 384 1240 458 c 0
 1315 530 1352 632 1352 762 c 0
 1352 885 1318 982 1249 1052 c 0
 1180 1122 1084 1157 961 1157 c 2
 903 1157 l 1
 903 348 l 1
731 1157 m 1
 674 1157 l 2
 553 1157 457 1122 388 1051 c 0
 318 980 283 884 283 762 c 0
 283 631 320 529 394 456 c 0
 468 384 572 348 707 348 c 2
 731 348 l 1
 731 1157 l 1
EndSplineSet
EndChar

StartChar: Psi
Encoding: 442 936 373
Width: 1630
Flags: W
LayerCount: 3
Fore
SplineSet
899 0 m 1
 729 0 l 1
 729 446 l 1
 684 446 l 2
 567 446 466 466 380 507 c 0
 296 548 229 609 181 692 c 0
 133 774 109 870 109 979 c 2
 109 1462 l 1
 283 1462 l 1
 283 983 l 2
 283 858 318 762 386 694 c 0
 456 628 561 594 702 594 c 2
 729 594 l 1
 729 1462 l 1
 899 1462 l 1
 899 594 l 1
 928 594 l 2
 1069 594 1174 627 1242 693 c 0
 1312 759 1346 854 1346 979 c 2
 1346 1462 l 1
 1522 1462 l 1
 1522 981 l 2
 1522 871 1498 775 1450 692 c 0
 1402 610 1335 548 1248 508 c 0
 1162 466 1061 446 944 446 c 2
 899 446 l 1
 899 0 l 1
EndSplineSet
EndChar

StartChar: uni03A9
Encoding: 443 937 374
Width: 1602
Flags: W
LayerCount: 3
Fore
SplineSet
801 1333 m 0
 642 1333 521 1290 438 1204 c 0
 355 1119 313 992 313 823 c 0
 313 673 342 542 400 432 c 0
 457 320 546 221 666 133 c 1
 666 0 l 1
 80 0 l 1
 80 152 l 1
 444 152 l 1
 343 231 266 328 213 445 c 0
 160 562 133 688 133 823 c 0
 133 1030 192 1192 310 1309 c 0
 428 1426 592 1485 801 1485 c 0
 1011 1485 1175 1427 1293 1312 c 0
 1411 1196 1470 1034 1470 825 c 0
 1470 687 1444 560 1391 445 c 0
 1338 330 1262 232 1161 152 c 1
 1524 152 l 1
 1524 0 l 1
 938 0 l 1
 938 133 l 1
 1060 222 1149 323 1206 434 c 0
 1262 545 1290 675 1290 823 c 0
 1290 991 1248 1118 1166 1204 c 0
 1082 1290 961 1333 801 1333 c 0
EndSplineSet
EndChar

StartChar: Iotadieresis.alt
Encoding: 444 -1 375
Width: 682
Flags: W
LayerCount: 3
Fore
SplineSet
598 0 m 1
 84 0 l 1
 84 98 l 1
 256 133 l 1
 256 1327 l 1
 84 1364 l 1
 84 1462 l 1
 598 1462 l 1
 598 1364 l 1
 426 1327 l 1
 426 133 l 1
 598 98 l 1
 598 0 l 1
60 1731 m 0
 60 1766 69 1791 86 1806 c 0
 104 1821 125 1829 150 1829 c 0
 175 1829 197 1821 216 1806 c 0
 234 1791 243 1766 243 1731 c 0
 243 1698 234 1673 216 1656 c 0
 197 1640 175 1632 150 1632 c 0
 125 1632 104 1640 86 1656 c 0
 69 1673 60 1698 60 1731 c 0
441 1731 m 0
 441 1766 450 1791 468 1806 c 0
 485 1821 506 1829 531 1829 c 0
 556 1829 577 1821 596 1806 c 0
 614 1791 623 1766 623 1731 c 0
 623 1698 614 1673 596 1656 c 0
 577 1640 556 1632 531 1632 c 0
 506 1632 485 1640 468 1656 c 0
 450 1673 441 1698 441 1731 c 0
EndSplineSet
EndChar

StartChar: alphatonos
Encoding: 446 940 377
Width: 1251
Flags: W
LayerCount: 3
Fore
SplineSet
592 119 m 0
 705 119 786 152 836 216 c 0
 886 282 911 387 911 532 c 2
 911 547 l 2
 911 700 886 809 835 876 c 0
 784 942 703 975 590 975 c 0
 388 975 287 831 287 543 c 0
 287 402 312 296 360 225 c 0
 410 154 487 119 592 119 c 0
567 -20 m 0
 424 -20 313 30 234 128 c 0
 155 228 115 366 115 545 c 0
 115 728 156 868 237 968 c 0
 318 1066 434 1116 584 1116 c 0
 665 1116 732 1102 786 1074 c 0
 839 1046 884 1004 920 948 c 1
 932 948 l 1
 948 1009 970 1059 997 1096 c 1
 1126 1096 l 1
 1112 1052 1100 989 1091 907 c 0
 1082 825 1077 745 1077 668 c 2
 1077 229 l 2
 1077 153 1105 115 1161 115 c 0
 1180 115 1201 118 1223 125 c 1
 1223 6 l 1
 1192 -11 1155 -20 1112 -20 c 0
 1058 -20 1016 -6 986 20 c 0
 957 48 936 90 924 147 c 1
 911 147 l 1
 872 90 824 48 768 20 c 0
 713 -6 646 -20 567 -20 c 0
537 1270 m 1
 555 1318 573 1380 590 1456 c 0
 608 1531 621 1596 629 1651 c 1
 813 1651 l 1
 813 1628 l 1
 801 1579 777 1514 740 1436 c 0
 704 1356 670 1292 637 1241 c 1
 537 1241 l 1
 537 1270 l 1
EndSplineSet
EndChar

StartChar: epsilontonos
Encoding: 447 941 378
Width: 973
Flags: W
LayerCount: 3
Fore
SplineSet
715 641 m 1
 715 500 l 1
 567 500 l 2
 360 500 256 435 256 305 c 0
 256 245 280 199 330 166 c 0
 378 133 452 117 549 117 c 0
 605 117 661 124 716 136 c 0
 771 150 832 172 899 203 c 1
 899 55 l 1
 808 5 688 -20 541 -20 c 0
 401 -20 291 8 210 64 c 0
 130 121 90 198 90 297 c 0
 90 362 108 417 145 460 c 0
 182 504 243 540 330 567 c 1
 330 578 l 1
 265 597 214 627 178 670 c 0
 143 712 125 764 125 825 c 0
 125 914 162 984 237 1037 c 0
 312 1090 413 1116 541 1116 c 0
 606 1116 666 1110 720 1100 c 0
 776 1088 836 1068 903 1038 c 1
 840 905 l 1
 777 933 724 952 681 961 c 0
 638 970 590 975 537 975 c 0
 370 975 287 921 287 813 c 0
 287 698 393 641 604 641 c 2
 715 641 l 1
452 1270 m 1
 470 1318 488 1380 506 1456 c 0
 523 1531 536 1596 544 1651 c 1
 728 1651 l 1
 728 1628 l 1
 716 1579 692 1514 656 1436 c 0
 619 1356 585 1292 552 1241 c 1
 452 1241 l 1
 452 1270 l 1
EndSplineSet
EndChar

StartChar: etatonos
Encoding: 448 942 379
Width: 1257
Flags: W
LayerCount: 3
Fore
SplineSet
926 -492 m 1
 926 709 l 2
 926 798 906 865 865 909 c 0
 824 953 761 975 674 975 c 0
 559 975 475 944 422 882 c 0
 369 820 342 718 342 575 c 2
 342 0 l 1
 176 0 l 1
 176 1096 l 1
 311 1096 l 1
 338 946 l 1
 346 946 l 1
 380 1000 428 1042 489 1072 c 0
 550 1101 619 1116 694 1116 c 0
 826 1116 925 1084 992 1020 c 0
 1059 957 1092 855 1092 715 c 2
 1092 -492 l 1
 926 -492 l 1
567 1270 m 1
 585 1318 603 1380 620 1456 c 0
 638 1531 651 1596 659 1651 c 1
 843 1651 l 1
 843 1628 l 1
 831 1579 807 1514 770 1436 c 0
 734 1356 700 1292 667 1241 c 1
 567 1241 l 1
 567 1270 l 1
EndSplineSet
EndChar

StartChar: iotatonos
Encoding: 449 943 380
Width: 694
Flags: W
LayerCount: 3
Fore
SplineSet
334 1096 m 1
 334 322 l 2
 334 253 346 201 370 168 c 0
 395 134 436 117 494 117 c 0
 519 117 548 119 582 124 c 0
 615 128 641 132 659 137 c 1
 659 10 l 1
 638 1 610 -6 576 -12 c 0
 540 -17 506 -20 473 -20 c 0
 366 -20 289 8 240 64 c 0
 192 120 168 204 168 317 c 2
 168 1096 l 1
 334 1096 l 1
192 1270 m 1
 210 1318 228 1380 246 1456 c 0
 263 1531 276 1596 284 1651 c 1
 468 1651 l 1
 468 1628 l 1
 456 1579 432 1514 396 1436 c 0
 359 1356 325 1292 292 1241 c 1
 192 1241 l 1
 192 1270 l 1
EndSplineSet
EndChar

StartChar: upsilondieresistonos
Encoding: 450 944 381
Width: 1247
Flags: W
LayerCount: 3
Fore
SplineSet
627 -20 m 0
 473 -20 357 22 280 105 c 0
 203 188 164 319 164 496 c 2
 164 1096 l 1
 330 1096 l 1
 330 504 l 2
 330 376 356 280 409 214 c 0
 462 150 539 117 641 117 c 0
 752 117 835 157 888 236 c 0
 942 315 969 439 969 606 c 0
 969 693 964 773 955 848 c 0
 946 923 930 1005 907 1096 c 1
 1073 1096 l 1
 1097 1000 1114 916 1123 845 c 0
 1132 774 1137 691 1137 598 c 0
 1137 386 1094 230 1008 130 c 0
 922 30 795 -20 627 -20 c 0
571 1413 m 1
 614 1526 646 1627 667 1716 c 1
 856 1716 l 1
 856 1696 l 1
 834 1651 803 1599 762 1540 c 0
 722 1480 685 1430 651 1389 c 1
 571 1389 l 1
 571 1413 l 1
342 1393 m 0
 342 1428 351 1453 368 1468 c 0
 385 1483 407 1491 432 1491 c 0
 459 1491 481 1482 498 1465 c 0
 514 1448 522 1424 522 1393 c 0
 522 1360 513 1335 494 1318 c 0
 476 1302 455 1294 432 1294 c 0
 407 1294 385 1302 368 1318 c 0
 351 1335 342 1360 342 1393 c 0
778 1393 m 0
 778 1428 787 1453 804 1468 c 0
 821 1483 843 1491 868 1491 c 0
 895 1491 917 1482 934 1465 c 0
 950 1448 958 1424 958 1393 c 0
 958 1360 949 1335 930 1318 c 0
 912 1302 891 1294 868 1294 c 0
 843 1294 821 1302 804 1318 c 0
 787 1335 778 1360 778 1393 c 0
EndSplineSet
EndChar

StartChar: alpha
Encoding: 451 945 382
Width: 1251
Flags: W
LayerCount: 3
Fore
SplineSet
592 119 m 0
 705 119 786 152 836 216 c 0
 886 282 911 387 911 532 c 2
 911 547 l 2
 911 700 886 809 835 876 c 0
 784 942 703 975 590 975 c 0
 388 975 287 831 287 543 c 0
 287 402 312 296 360 225 c 0
 410 154 487 119 592 119 c 0
567 -20 m 0
 424 -20 313 30 234 128 c 0
 155 228 115 366 115 545 c 0
 115 728 156 868 237 968 c 0
 318 1066 434 1116 584 1116 c 0
 665 1116 732 1102 786 1074 c 0
 839 1046 884 1004 920 948 c 1
 932 948 l 1
 948 1009 970 1059 997 1096 c 1
 1126 1096 l 1
 1112 1052 1100 989 1091 907 c 0
 1082 825 1077 745 1077 668 c 2
 1077 229 l 2
 1077 153 1105 115 1161 115 c 0
 1180 115 1201 118 1223 125 c 1
 1223 6 l 1
 1192 -11 1155 -20 1112 -20 c 0
 1058 -20 1016 -6 986 20 c 0
 957 48 936 90 924 147 c 1
 911 147 l 1
 872 90 824 48 768 20 c 0
 713 -6 646 -20 567 -20 c 0
EndSplineSet
EndChar

StartChar: beta
Encoding: 452 946 383
Width: 1286
Flags: W
LayerCount: 3
Fore
SplineSet
659 1567 m 0
 806 1567 920 1532 1004 1463 c 0
 1086 1394 1128 1298 1128 1176 c 0
 1128 980 1024 865 815 831 c 1
 815 823 l 1
 1066 795 1192 659 1192 414 c 0
 1192 275 1148 168 1060 92 c 0
 972 18 849 -20 690 -20 c 0
 617 -20 554 -15 501 -4 c 0
 448 6 395 24 342 49 c 1
 342 -492 l 1
 176 -492 l 1
 176 1096 l 2
 176 1246 218 1362 302 1444 c 0
 387 1526 506 1567 659 1567 c 0
657 1427 m 0
 552 1427 473 1398 420 1341 c 0
 368 1284 342 1200 342 1090 c 2
 342 203 l 1
 404 170 462 148 516 136 c 0
 569 123 625 117 682 117 c 0
 796 117 882 142 940 192 c 0
 997 242 1026 319 1026 424 c 0
 1026 529 994 608 931 663 c 0
 868 718 777 745 659 745 c 2
 547 745 l 1
 547 887 l 1
 639 887 l 2
 742 887 821 912 875 960 c 0
 929 1010 956 1080 956 1171 c 0
 956 1253 930 1316 878 1360 c 0
 826 1405 752 1427 657 1427 c 0
EndSplineSet
EndChar

StartChar: gamma
Encoding: 453 947 384
Width: 1049
Flags: W
LayerCount: 3
Fore
SplineSet
532 -492 m 1
 352 -492 l 1
 352 -428 363 -347 384 -249 c 0
 405 -151 430 -64 459 12 c 1
 10 1096 l 1
 182 1096 l 1
 422 512 l 2
 485 355 522 243 535 174 c 1
 543 174 l 1
 546 194 555 228 568 275 c 0
 582 322 596 368 610 410 c 0
 625 454 710 682 866 1096 c 1
 1038 1096 l 1
 633 27 l 2
 601 -56 576 -146 558 -243 c 0
 541 -340 532 -423 532 -492 c 1
EndSplineSet
EndChar

StartChar: delta
Encoding: 454 948 385
Width: 1188
Flags: W
LayerCount: 3
Fore
SplineSet
545 936 m 1
 452 988 386 1040 347 1094 c 0
 308 1146 289 1206 289 1272 c 0
 289 1359 321 1427 386 1478 c 0
 451 1529 538 1554 647 1554 c 0
 716 1554 782 1546 844 1532 c 0
 908 1516 981 1488 1065 1446 c 1
 993 1311 l 1
 918 1352 854 1380 802 1395 c 0
 748 1410 695 1417 641 1417 c 0
 584 1417 540 1404 508 1378 c 0
 475 1351 459 1316 459 1272 c 0
 459 1225 477 1182 512 1146 c 0
 548 1108 622 1060 733 999 c 0
 873 922 972 844 1032 764 c 0
 1090 683 1120 588 1120 479 c 0
 1120 322 1075 200 984 112 c 0
 893 24 769 -20 612 -20 c 0
 461 -20 340 21 249 104 c 0
 158 187 113 298 113 438 c 0
 113 556 151 658 226 746 c 0
 301 832 408 896 545 936 c 1
948 479 m 0
 948 564 928 638 886 698 c 0
 846 760 778 815 684 864 c 1
 547 829 446 775 382 702 c 0
 319 630 287 541 287 434 c 0
 287 338 317 262 376 204 c 0
 435 148 514 119 612 119 c 0
 720 119 803 150 861 212 c 0
 919 274 948 363 948 479 c 0
EndSplineSet
EndChar

StartChar: epsilon
Encoding: 455 949 386
Width: 973
Flags: W
LayerCount: 3
Fore
SplineSet
715 641 m 1
 715 500 l 1
 567 500 l 2
 360 500 256 435 256 305 c 0
 256 245 280 199 330 166 c 0
 378 133 452 117 549 117 c 0
 605 117 661 124 716 136 c 0
 771 150 832 172 899 203 c 1
 899 55 l 1
 808 5 688 -20 541 -20 c 0
 401 -20 291 8 210 64 c 0
 130 121 90 198 90 297 c 0
 90 362 108 417 145 460 c 0
 182 504 243 540 330 567 c 1
 330 578 l 1
 265 597 214 627 178 670 c 0
 143 712 125 764 125 825 c 0
 125 914 162 984 237 1037 c 0
 312 1090 413 1116 541 1116 c 0
 606 1116 666 1110 720 1100 c 0
 776 1088 836 1068 903 1038 c 1
 840 905 l 1
 777 933 724 952 681 961 c 0
 638 970 590 975 537 975 c 0
 370 975 287 921 287 813 c 0
 287 698 393 641 604 641 c 2
 715 641 l 1
EndSplineSet
EndChar

StartChar: zeta
Encoding: 456 950 387
Width: 989
Flags: W
LayerCount: 3
Fore
SplineSet
176 1415 m 1
 176 1556 l 1
 928 1556 l 1
 928 1427 l 1
 785 1307 665 1193 569 1086 c 0
 473 978 402 876 356 780 c 0
 310 683 287 580 287 469 c 0
 287 404 297 351 316 312 c 0
 336 273 367 241 408 216 c 0
 450 192 528 168 643 143 c 0
 742 122 815 94 860 58 c 0
 905 21 928 -27 928 -88 c 0
 928 -187 886 -292 801 -401 c 1
 635 -401 l 1
 718 -294 760 -204 760 -133 c 0
 760 -96 742 -67 704 -46 c 0
 668 -26 601 -7 506 10 c 0
 371 34 272 82 209 156 c 0
 146 228 115 330 115 459 c 0
 115 535 125 608 144 677 c 0
 164 746 193 814 230 878 c 0
 267 944 320 1014 386 1090 c 0
 454 1167 568 1278 729 1423 c 1
 702 1418 599 1415 418 1415 c 2
 176 1415 l 1
EndSplineSet
EndChar

StartChar: eta
Encoding: 457 951 388
Width: 1257
Flags: W
LayerCount: 3
Fore
SplineSet
926 -492 m 1
 926 709 l 2
 926 798 906 865 865 909 c 0
 824 953 761 975 674 975 c 0
 559 975 475 944 422 882 c 0
 369 820 342 718 342 575 c 2
 342 0 l 1
 176 0 l 1
 176 1096 l 1
 311 1096 l 1
 338 946 l 1
 346 946 l 1
 380 1000 428 1042 489 1072 c 0
 550 1101 619 1116 694 1116 c 0
 826 1116 925 1084 992 1020 c 0
 1059 957 1092 855 1092 715 c 2
 1092 -492 l 1
 926 -492 l 1
EndSplineSet
EndChar

StartChar: theta
Encoding: 458 952 389
Width: 1212
Flags: W
LayerCount: 3
Fore
SplineSet
1098 780 m 0
 1098 509 1057 308 976 177 c 0
 895 46 771 -20 604 -20 c 0
 444 -20 322 47 240 182 c 0
 156 316 115 515 115 780 c 0
 115 1051 156 1252 238 1383 c 0
 319 1514 441 1579 604 1579 c 0
 767 1579 890 1512 973 1376 c 0
 1056 1242 1098 1043 1098 780 c 0
604 119 m 0
 713 119 794 170 846 272 c 0
 898 373 926 526 930 731 c 1
 283 731 l 1
 286 528 312 376 362 273 c 0
 412 170 493 119 604 119 c 0
604 1440 m 0
 497 1440 418 1392 368 1296 c 0
 318 1201 290 1059 283 872 c 1
 928 872 l 1
 921 1059 892 1201 841 1296 c 0
 790 1392 711 1440 604 1440 c 0
EndSplineSet
EndChar

StartChar: iota
Encoding: 459 953 390
Width: 694
Flags: W
LayerCount: 3
Fore
SplineSet
334 1096 m 1
 334 322 l 2
 334 253 346 201 370 168 c 0
 395 134 436 117 494 117 c 0
 519 117 548 119 582 124 c 0
 615 128 641 132 659 137 c 1
 659 10 l 1
 638 1 610 -6 576 -12 c 0
 540 -17 506 -20 473 -20 c 0
 366 -20 289 8 240 64 c 0
 192 120 168 204 168 317 c 2
 168 1096 l 1
 334 1096 l 1
EndSplineSet
EndChar

StartChar: kappa
Encoding: 460 954 391
Width: 1061
Flags: W
LayerCount: 3
Fore
SplineSet
815 1094 m 1
 1022 1094 l 1
 608 612 l 1
 1051 0 l 1
 850 0 l 1
 489 504 l 1
 354 391 l 1
 354 0 l 1
 176 0 l 1
 176 1094 l 1
 354 1094 l 1
 354 811 l 2
 354 700 350 607 342 532 c 1
 815 1094 l 1
EndSplineSet
EndChar

StartChar: lambda
Encoding: 461 955 392
Width: 1094
Flags: W
LayerCount: 3
Fore
SplineSet
-14 0 m 1
 459 1079 l 1
 401 1241 l 2
 381 1298 363 1338 346 1361 c 0
 329 1384 310 1402 288 1414 c 0
 265 1426 238 1432 205 1432 c 0
 166 1432 128 1428 90 1419 c 1
 90 1552 l 1
 135 1563 179 1569 221 1569 c 0
 282 1569 332 1559 372 1539 c 0
 413 1519 448 1487 477 1444 c 0
 506 1401 539 1328 575 1227 c 2
 938 215 l 2
 951 182 964 158 978 140 c 0
 992 124 1011 115 1034 115 c 0
 1052 115 1072 118 1094 125 c 1
 1094 4 l 1
 1062 -12 1026 -20 985 -20 c 0
 936 -20 897 -7 870 18 c 0
 842 43 818 84 799 139 c 2
 643 575 l 2
 587 735 552 847 537 911 c 1
 528 911 l 1
 509 834 471 725 412 586 c 2
 158 0 l 1
 -14 0 l 1
EndSplineSet
EndChar

StartChar: uni03BC
Encoding: 462 956 393
Width: 1268
Flags: W
LayerCount: 3
Fore
SplineSet
342 381 m 2
 342 206 427 119 596 119 c 0
 710 119 794 150 846 214 c 0
 900 276 926 379 926 520 c 2
 926 1096 l 1
 1092 1096 l 1
 1092 0 l 1
 956 0 l 1
 930 147 l 1
 920 147 l 1
 846 36 733 -20 580 -20 c 0
 480 -20 401 11 342 72 c 1
 332 72 l 1
 339 16 342 -65 342 -172 c 2
 342 -492 l 1
 176 -492 l 1
 176 1096 l 1
 342 1096 l 1
 342 381 l 2
EndSplineSet
EndChar

StartChar: nu
Encoding: 463 957 394
Width: 1110
Flags: W
LayerCount: 3
Fore
SplineSet
0 1096 m 1
 172 1096 l 1
 391 506 l 2
 408 461 431 399 458 320 c 0
 486 241 505 180 516 139 c 1
 524 139 l 1
 642 256 728 388 780 536 c 0
 834 685 860 871 860 1096 c 1
 1026 1096 l 1
 1026 854 992 648 922 479 c 0
 854 310 744 150 594 0 c 1
 408 0 l 1
 0 1096 l 1
EndSplineSet
EndChar

StartChar: xi
Encoding: 464 958 395
Width: 973
Flags: W
LayerCount: 3
Fore
SplineSet
854 754 m 1
 676 754 l 2
 559 754 464 724 394 665 c 0
 322 606 287 529 287 434 c 0
 287 381 295 338 312 305 c 0
 329 272 353 246 384 226 c 0
 416 205 454 189 500 177 c 0
 544 165 595 153 651 141 c 0
 746 122 816 94 860 57 c 0
 906 20 928 -28 928 -88 c 0
 928 -131 919 -178 901 -228 c 0
 883 -277 852 -335 807 -401 c 1
 651 -401 l 1
 686 -354 715 -306 737 -256 c 0
 759 -208 770 -166 770 -131 c 0
 770 -94 751 -66 712 -46 c 0
 674 -25 607 -7 512 10 c 0
 379 33 279 77 212 144 c 0
 146 211 113 303 113 420 c 0
 113 513 139 595 192 665 c 0
 245 735 314 783 399 809 c 1
 399 821 l 1
 254 864 182 957 182 1102 c 0
 182 1180 205 1245 252 1298 c 0
 298 1351 376 1394 487 1427 c 1
 402 1419 321 1415 244 1415 c 2
 176 1415 l 1
 176 1556 l 1
 874 1556 l 1
 874 1425 l 1
 823 1425 l 2
 736 1425 656 1412 581 1385 c 0
 506 1358 448 1321 406 1273 c 0
 363 1225 342 1169 342 1106 c 0
 342 1029 370 973 426 937 c 0
 481 901 567 883 684 883 c 2
 854 883 l 1
 854 754 l 1
EndSplineSet
EndChar

StartChar: pi
Encoding: 466 960 397
Width: 1331
Flags: W
LayerCount: 3
Fore
SplineSet
1149 117 m 0
 1174 117 1203 123 1235 135 c 1
 1235 4 l 1
 1206 -12 1164 -20 1108 -20 c 0
 962 -20 889 64 889 233 c 2
 889 954 l 1
 412 954 l 1
 412 0 l 1
 246 0 l 1
 246 954 l 1
 25 954 l 1
 25 1028 l 1
 168 1096 l 1
 1268 1096 l 1
 1268 954 l 1
 1055 954 l 1
 1055 246 l 2
 1055 197 1064 163 1080 144 c 0
 1098 126 1120 117 1149 117 c 0
EndSplineSet
EndChar

StartChar: rho
Encoding: 467 961 398
Width: 1237
Flags: W
LayerCount: 3
Fore
SplineSet
1122 549 m 0
 1122 368 1079 228 994 129 c 0
 909 30 788 -20 633 -20 c 0
 514 -20 414 11 334 74 c 1
 326 74 l 1
 331 33 334 -58 334 -199 c 2
 334 -492 l 1
 166 -492 l 1
 166 563 l 2
 166 740 208 877 292 972 c 0
 375 1068 495 1116 651 1116 c 0
 797 1116 912 1066 996 964 c 0
 1080 864 1122 725 1122 549 c 0
643 975 m 0
 538 975 460 940 410 872 c 0
 359 802 334 698 334 559 c 2
 334 221 l 1
 415 153 517 119 639 119 c 0
 745 119 823 154 874 223 c 0
 925 292 950 401 950 549 c 0
 950 692 926 798 878 869 c 0
 830 940 752 975 643 975 c 0
EndSplineSet
EndChar

StartChar: sigma1
Encoding: 468 962 399
Width: 987
Flags: W
LayerCount: 3
Fore
SplineSet
287 522 m 0
 287 432 297 365 316 321 c 0
 336 277 370 242 418 215 c 0
 465 188 542 164 649 141 c 0
 748 120 819 91 862 56 c 0
 906 20 928 -28 928 -88 c 0
 928 -132 919 -179 901 -230 c 0
 883 -281 852 -338 807 -401 c 1
 651 -401 l 1
 687 -354 716 -306 738 -257 c 0
 761 -208 772 -166 772 -133 c 0
 772 -106 764 -85 746 -70 c 0
 730 -54 703 -40 666 -27 c 0
 629 -14 579 -2 514 10 c 0
 378 35 278 89 212 174 c 0
 148 259 115 374 115 520 c 0
 115 711 161 858 253 961 c 0
 345 1064 474 1116 639 1116 c 0
 692 1116 744 1110 797 1100 c 0
 850 1088 894 1075 930 1059 c 1
 877 918 l 1
 790 952 709 969 633 969 c 0
 516 969 429 933 372 860 c 0
 315 787 287 675 287 522 c 0
EndSplineSet
EndChar

StartChar: sigma
Encoding: 469 963 400
Width: 1255
Flags: W
LayerCount: 3
Fore
SplineSet
1120 508 m 0
 1120 403 1100 311 1058 230 c 0
 1018 150 959 88 882 45 c 0
 806 2 717 -20 614 -20 c 0
 457 -20 335 28 247 124 c 0
 159 220 115 353 115 522 c 0
 115 905 312 1096 707 1096 c 2
 1206 1096 l 1
 1206 954 l 1
 942 954 l 1
 1061 843 1120 694 1120 508 c 0
287 522 m 0
 287 393 315 293 372 224 c 0
 429 154 511 119 618 119 c 0
 724 119 806 152 862 218 c 0
 920 283 948 377 948 498 c 0
 948 678 890 830 774 954 c 1
 709 954 l 2
 561 954 454 919 387 850 c 0
 320 781 287 671 287 522 c 0
EndSplineSet
EndChar

StartChar: tau
Encoding: 470 964 401
Width: 969
Flags: W
LayerCount: 3
Fore
SplineSet
915 1096 m 1
 915 954 l 1
 483 954 l 1
 483 336 l 2
 483 187 551 113 688 113 c 0
 719 113 751 115 784 120 c 0
 817 124 842 128 860 133 c 1
 860 8 l 1
 837 -2 806 -10 770 -16 c 0
 732 -22 698 -25 666 -25 c 0
 545 -25 457 3 400 60 c 0
 343 117 315 202 315 315 c 2
 315 954 l 1
 18 954 l 1
 18 1028 l 1
 166 1096 l 1
 915 1096 l 1
EndSplineSet
EndChar

StartChar: upsilon
Encoding: 471 965 402
Width: 1247
Flags: W
LayerCount: 3
Fore
SplineSet
627 -20 m 0
 473 -20 357 22 280 105 c 0
 203 188 164 319 164 496 c 2
 164 1096 l 1
 330 1096 l 1
 330 504 l 2
 330 376 356 280 409 214 c 0
 462 150 539 117 641 117 c 0
 752 117 835 157 888 236 c 0
 942 315 969 439 969 606 c 0
 969 693 964 773 955 848 c 0
 946 923 930 1005 907 1096 c 1
 1073 1096 l 1
 1097 1000 1114 916 1123 845 c 0
 1132 774 1137 691 1137 598 c 0
 1137 386 1094 230 1008 130 c 0
 922 30 795 -20 627 -20 c 0
EndSplineSet
EndChar

StartChar: phi
Encoding: 472 966 403
Width: 1470
Flags: W
LayerCount: 3
Fore
SplineSet
643 -492 m 1
 643 -18 l 1
 470 -11 338 42 249 138 c 0
 160 236 115 374 115 555 c 0
 115 752 184 935 322 1104 c 1
 453 1014 l 1
 394 936 350 860 324 785 c 0
 296 710 283 632 283 549 c 0
 283 286 403 142 643 119 c 1
 643 739 l 2
 643 864 671 958 726 1021 c 0
 781 1084 859 1116 958 1116 c 0
 1078 1116 1174 1067 1247 970 c 0
 1320 872 1356 740 1356 573 c 0
 1356 454 1333 352 1288 264 c 0
 1243 178 1179 110 1096 62 c 0
 1013 14 917 -13 807 -18 c 1
 807 -492 l 1
 643 -492 l 1
1184 571 m 0
 1184 694 1163 792 1122 866 c 0
 1081 938 1026 975 958 975 c 0
 909 975 872 955 846 915 c 0
 820 875 807 817 807 741 c 2
 807 119 l 1
 926 130 1019 174 1085 253 c 0
 1151 332 1184 438 1184 571 c 0
EndSplineSet
EndChar

StartChar: chi
Encoding: 473 967 404
Width: 1118
Flags: W
LayerCount: 3
Fore
SplineSet
178 1102 m 0
 214 1102 245 1095 271 1080 c 0
 297 1066 320 1044 341 1014 c 0
 362 983 387 931 416 856 c 2
 561 487 l 1
 879 1096 l 1
 1059 1096 l 1
 631 324 l 1
 821 -160 l 2
 853 -241 883 -294 910 -319 c 0
 937 -344 972 -356 1014 -356 c 0
 1044 -356 1074 -353 1104 -348 c 1
 1104 -477 l 1
 1064 -487 1024 -492 985 -492 c 0
 908 -492 846 -472 800 -433 c 0
 752 -394 709 -321 670 -215 c 2
 520 172 l 1
 158 -492 l 1
 -20 -492 l 1
 444 344 l 1
 272 788 l 2
 247 854 222 900 199 927 c 0
 176 954 150 967 121 967 c 0
 96 967 75 963 57 956 c 1
 57 1085 l 1
 90 1096 130 1102 178 1102 c 0
EndSplineSet
EndChar

StartChar: psi
Encoding: 474 968 405
Width: 1542
Flags: W
LayerCount: 3
Fore
SplineSet
858 1554 m 1
 858 123 l 1
 983 133 1080 176 1148 254 c 0
 1215 330 1249 437 1249 573 c 0
 1249 653 1245 732 1236 810 c 0
 1227 889 1211 984 1186 1096 c 1
 1352 1096 l 1
 1394 915 1415 743 1415 580 c 0
 1415 396 1368 253 1272 151 c 0
 1178 49 1039 -7 858 -18 c 1
 858 -492 l 1
 694 -492 l 1
 694 -18 l 1
 518 -12 386 39 297 136 c 0
 208 233 164 372 164 553 c 2
 164 1096 l 1
 330 1096 l 1
 330 547 l 2
 330 417 360 316 420 243 c 0
 480 170 571 130 694 121 c 1
 694 1554 l 1
 858 1554 l 1
EndSplineSet
EndChar

StartChar: omega
Encoding: 475 969 406
Width: 1583
Flags: W
LayerCount: 3
Fore
SplineSet
500 -20 m 0
 379 -20 284 29 216 128 c 0
 149 227 115 361 115 530 c 0
 115 634 124 729 142 814 c 0
 161 900 193 994 238 1096 c 1
 410 1096 l 1
 365 992 332 898 314 812 c 0
 294 728 285 633 285 528 c 0
 285 399 305 299 345 227 c 0
 385 155 441 119 512 119 c 0
 575 119 624 143 658 190 c 0
 694 238 711 304 711 387 c 2
 711 698 l 1
 872 698 l 1
 872 387 l 2
 872 302 890 236 925 189 c 0
 960 142 1009 119 1071 119 c 0
 1142 119 1198 155 1238 227 c 0
 1278 299 1298 399 1298 528 c 0
 1298 629 1289 722 1270 809 c 0
 1252 896 1220 991 1174 1096 c 1
 1346 1096 l 1
 1389 999 1420 906 1440 818 c 0
 1458 731 1468 635 1468 530 c 0
 1468 362 1434 228 1366 129 c 0
 1299 30 1204 -20 1083 -20 c 0
 936 -20 840 41 795 162 c 1
 786 162 l 1
 743 41 647 -20 500 -20 c 0
EndSplineSet
EndChar

StartChar: iotadieresis
Encoding: 476 970 407
Width: 694
Flags: W
LayerCount: 3
Fore
SplineSet
334 1096 m 1
 334 322 l 2
 334 253 346 201 370 168 c 0
 395 134 436 117 494 117 c 0
 519 117 548 119 582 124 c 0
 615 128 641 132 659 137 c 1
 659 10 l 1
 638 1 610 -6 576 -12 c 0
 540 -17 506 -20 473 -20 c 0
 366 -20 289 8 240 64 c 0
 192 120 168 204 168 317 c 2
 168 1096 l 1
 334 1096 l 1
9 1393 m 0
 9 1428 18 1453 36 1468 c 0
 53 1483 74 1491 99 1491 c 0
 124 1491 146 1483 164 1468 c 0
 183 1453 192 1428 192 1393 c 0
 192 1360 183 1335 164 1318 c 0
 146 1302 124 1294 99 1294 c 0
 74 1294 53 1302 36 1318 c 0
 18 1335 9 1360 9 1393 c 0
390 1393 m 0
 390 1428 399 1453 416 1468 c 0
 434 1483 455 1491 480 1491 c 0
 505 1491 526 1483 544 1468 c 0
 563 1453 572 1428 572 1393 c 0
 572 1360 563 1335 544 1318 c 0
 526 1302 505 1294 480 1294 c 0
 455 1294 434 1302 416 1318 c 0
 399 1335 390 1360 390 1393 c 0
EndSplineSet
EndChar

StartChar: upsilondieresis
Encoding: 477 971 408
Width: 1247
Flags: W
LayerCount: 3
Fore
SplineSet
627 -20 m 0
 473 -20 357 22 280 105 c 0
 203 188 164 319 164 496 c 2
 164 1096 l 1
 330 1096 l 1
 330 504 l 2
 330 376 356 280 409 214 c 0
 462 150 539 117 641 117 c 0
 752 117 835 157 888 236 c 0
 942 315 969 439 969 606 c 0
 969 693 964 773 955 848 c 0
 946 923 930 1005 907 1096 c 1
 1073 1096 l 1
 1097 1000 1114 916 1123 845 c 0
 1132 774 1137 691 1137 598 c 0
 1137 386 1094 230 1008 130 c 0
 922 30 795 -20 627 -20 c 0
366 1393 m 0
 366 1428 375 1453 392 1468 c 0
 410 1483 431 1491 456 1491 c 0
 481 1491 503 1483 522 1468 c 0
 540 1453 549 1428 549 1393 c 0
 549 1360 540 1335 522 1318 c 0
 503 1302 481 1294 456 1294 c 0
 431 1294 410 1302 392 1318 c 0
 375 1335 366 1360 366 1393 c 0
747 1393 m 0
 747 1428 756 1453 774 1468 c 0
 791 1483 812 1491 837 1491 c 0
 862 1491 883 1483 902 1468 c 0
 920 1453 929 1428 929 1393 c 0
 929 1360 920 1335 902 1318 c 0
 883 1302 862 1294 837 1294 c 0
 812 1294 791 1302 774 1318 c 0
 756 1335 747 1360 747 1393 c 0
EndSplineSet
EndChar

StartChar: omicrontonos
Encoding: 478 972 409
Width: 1237
Flags: W
LayerCount: 3
Fore
SplineSet
1122 549 m 0
 1122 370 1077 231 987 130 c 0
 897 30 773 -20 614 -20 c 0
 516 -20 429 3 353 49 c 0
 277 95 218 161 177 247 c 0
 136 333 115 434 115 549 c 0
 115 728 160 867 249 966 c 0
 338 1066 462 1116 621 1116 c 0
 774 1116 896 1065 986 963 c 0
 1077 861 1122 723 1122 549 c 0
287 549 m 0
 287 409 315 302 371 229 c 0
 427 156 509 119 618 119 c 0
 727 119 809 156 866 228 c 0
 922 302 950 408 950 549 c 0
 950 688 922 794 866 866 c 0
 809 939 726 975 616 975 c 0
 507 975 425 939 370 868 c 0
 315 797 287 690 287 549 c 0
541 1270 m 1
 559 1318 577 1380 594 1456 c 0
 612 1531 625 1596 633 1651 c 1
 817 1651 l 1
 817 1628 l 1
 805 1579 781 1514 744 1436 c 0
 708 1356 674 1292 641 1241 c 1
 541 1241 l 1
 541 1270 l 1
EndSplineSet
EndChar

StartChar: upsilontonos
Encoding: 479 973 410
Width: 1247
Flags: W
LayerCount: 3
Fore
SplineSet
627 -20 m 0
 473 -20 357 22 280 105 c 0
 203 188 164 319 164 496 c 2
 164 1096 l 1
 330 1096 l 1
 330 504 l 2
 330 376 356 280 409 214 c 0
 462 150 539 117 641 117 c 0
 752 117 835 157 888 236 c 0
 942 315 969 439 969 606 c 0
 969 693 964 773 955 848 c 0
 946 923 930 1005 907 1096 c 1
 1073 1096 l 1
 1097 1000 1114 916 1123 845 c 0
 1132 774 1137 691 1137 598 c 0
 1137 386 1094 230 1008 130 c 0
 922 30 795 -20 627 -20 c 0
547 1270 m 1
 565 1318 583 1380 600 1456 c 0
 618 1531 631 1596 639 1651 c 1
 823 1651 l 1
 823 1628 l 1
 811 1579 787 1514 750 1436 c 0
 714 1356 680 1292 647 1241 c 1
 547 1241 l 1
 547 1270 l 1
EndSplineSet
EndChar

StartChar: omegatonos
Encoding: 480 974 411
Width: 1583
Flags: W
LayerCount: 3
Fore
SplineSet
500 -20 m 0
 379 -20 284 29 216 128 c 0
 149 227 115 361 115 530 c 0
 115 634 124 729 142 814 c 0
 161 900 193 994 238 1096 c 1
 410 1096 l 1
 365 992 332 898 314 812 c 0
 294 728 285 633 285 528 c 0
 285 399 305 299 345 227 c 0
 385 155 441 119 512 119 c 0
 575 119 624 143 658 190 c 0
 694 238 711 304 711 387 c 2
 711 698 l 1
 872 698 l 1
 872 387 l 2
 872 302 890 236 925 189 c 0
 960 142 1009 119 1071 119 c 0
 1142 119 1198 155 1238 227 c 0
 1278 299 1298 399 1298 528 c 0
 1298 629 1289 722 1270 809 c 0
 1252 896 1220 991 1174 1096 c 1
 1346 1096 l 1
 1389 999 1420 906 1440 818 c 0
 1458 731 1468 635 1468 530 c 0
 1468 362 1434 228 1366 129 c 0
 1299 30 1204 -20 1083 -20 c 0
 936 -20 840 41 795 162 c 1
 786 162 l 1
 743 41 647 -20 500 -20 c 0
709 1270 m 1
 727 1318 745 1380 762 1456 c 0
 780 1531 793 1596 801 1651 c 1
 985 1651 l 1
 985 1628 l 1
 973 1579 949 1514 912 1436 c 0
 876 1356 842 1292 809 1241 c 1
 709 1241 l 1
 709 1270 l 1
EndSplineSet
EndChar

StartChar: afii10051
Encoding: 482 1026 413
Width: 1503
Flags: W
LayerCount: 3
Fore
SplineSet
975 -20 m 0
 911 -20 861 -13 825 2 c 1
 825 152 l 1
 862 139 910 133 971 133 c 0
 1038 133 1089 154 1124 195 c 0
 1159 236 1176 294 1176 369 c 2
 1176 500 l 2
 1176 585 1154 647 1110 684 c 0
 1067 722 998 741 905 741 c 2
 524 741 l 1
 524 0 l 1
 354 0 l 1
 354 1311 l 1
 18 1311 l 1
 18 1462 l 1
 969 1462 l 1
 969 1311 l 1
 524 1311 l 1
 524 893 l 1
 920 893 l 2
 1057 893 1162 861 1236 798 c 0
 1309 734 1346 643 1346 524 c 2
 1346 381 l 2
 1346 254 1313 156 1248 86 c 0
 1183 15 1092 -20 975 -20 c 0
EndSplineSet
EndChar

StartChar: afii10052
Encoding: 483 1027 414
Width: 1065
Flags: W
LayerCount: 3
Fore
SplineSet
1016 1462 m 1
 1016 1309 l 1
 371 1309 l 1
 371 0 l 1
 201 0 l 1
 201 1462 l 1
 1016 1462 l 1
483 1604 m 1
 515 1645 550 1695 586 1754 c 0
 624 1813 653 1864 674 1907 c 1
 876 1907 l 1
 876 1886 l 1
 847 1843 803 1789 745 1726 c 0
 687 1663 637 1614 594 1579 c 1
 483 1579 l 1
 483 1604 l 1
EndSplineSet
EndChar

StartChar: afii10053
Encoding: 484 1028 415
Width: 1309
Flags: W
LayerCount: 3
Fore
SplineSet
834 1331 m 0
 683 1331 563 1289 474 1206 c 0
 384 1123 329 1001 309 840 c 1
 1032 840 l 1
 1032 690 l 1
 305 690 l 1
 312 507 360 368 448 274 c 0
 538 178 665 131 831 131 c 0
 939 131 1060 149 1194 186 c 1
 1194 37 l 1
 1087 -1 958 -20 807 -20 c 0
 586 -20 417 45 300 174 c 0
 183 303 125 490 125 733 c 0
 125 967 188 1151 314 1284 c 0
 439 1418 613 1485 836 1485 c 0
 994 1485 1132 1456 1251 1397 c 1
 1180 1249 l 1
 1067 1304 952 1331 834 1331 c 0
EndSplineSet
EndChar

StartChar: afii10055.alt
Encoding: 486 -1 417
Width: 682
Flags: W
LayerCount: 3
Fore
SplineSet
598 0 m 1
 84 0 l 1
 84 98 l 1
 256 133 l 1
 256 1327 l 1
 84 1364 l 1
 84 1462 l 1
 598 1462 l 1
 598 1364 l 1
 426 1327 l 1
 426 133 l 1
 598 98 l 1
 598 0 l 1
EndSplineSet
EndChar

StartChar: afii10056.alt
Encoding: 487 -1 418
Width: 682
Flags: W
LayerCount: 3
Fore
SplineSet
598 0 m 1
 84 0 l 1
 84 98 l 1
 256 133 l 1
 256 1327 l 1
 84 1364 l 1
 84 1462 l 1
 598 1462 l 1
 598 1364 l 1
 426 1327 l 1
 426 133 l 1
 598 98 l 1
 598 0 l 1
60 1731 m 0
 60 1766 69 1791 86 1806 c 0
 104 1821 125 1829 150 1829 c 0
 175 1829 197 1821 216 1806 c 0
 234 1791 243 1766 243 1731 c 0
 243 1698 234 1673 216 1656 c 0
 197 1640 175 1632 150 1632 c 0
 125 1632 104 1640 86 1656 c 0
 69 1673 60 1698 60 1731 c 0
441 1731 m 0
 441 1766 450 1791 468 1806 c 0
 485 1821 506 1829 531 1829 c 0
 556 1829 577 1821 596 1806 c 0
 614 1791 623 1766 623 1731 c 0
 623 1698 614 1673 596 1656 c 0
 577 1640 556 1632 531 1632 c 0
 506 1632 485 1640 468 1656 c 0
 450 1673 441 1698 441 1731 c 0
EndSplineSet
EndChar

StartChar: afii10058
Encoding: 489 1033 420
Width: 1903
Flags: W
LayerCount: 3
Fore
SplineSet
1827 426 m 0
 1827 289 1781 183 1690 110 c 0
 1598 37 1465 0 1292 0 c 2
 965 0 l 1
 965 1311 l 1
 600 1311 l 1
 562 1018 529 784 501 610 c 0
 473 436 446 307 419 224 c 0
 392 140 356 78 310 38 c 0
 263 -3 204 -23 133 -23 c 0
 87 -23 43 -15 0 2 c 1
 0 145 l 1
 33 128 71 119 113 119 c 0
 145 119 172 129 194 150 c 0
 215 171 233 198 248 232 c 0
 262 267 278 326 296 409 c 0
 315 492 335 608 358 757 c 0
 381 906 414 1141 457 1462 c 1
 1135 1462 l 1
 1135 838 l 1
 1257 838 l 2
 1637 838 1827 701 1827 426 c 0
1135 147 m 1
 1268 147 l 2
 1400 147 1496 170 1558 216 c 0
 1618 263 1649 333 1649 426 c 0
 1649 518 1617 585 1553 626 c 0
 1489 667 1384 688 1237 688 c 2
 1135 688 l 1
 1135 147 l 1
EndSplineSet
EndChar

StartChar: afii10059
Encoding: 490 1034 421
Width: 1952
Flags: W
LayerCount: 3
Fore
SplineSet
1876 426 m 0
 1876 289 1831 183 1740 110 c 0
 1649 37 1517 0 1343 0 c 2
 1014 0 l 1
 1014 688 l 1
 371 688 l 1
 371 0 l 1
 201 0 l 1
 201 1462 l 1
 371 1462 l 1
 371 840 l 1
 1014 840 l 1
 1014 1462 l 1
 1186 1462 l 1
 1186 838 l 1
 1307 838 l 2
 1686 838 1876 701 1876 426 c 0
1186 147 m 1
 1319 147 l 2
 1450 147 1546 170 1608 216 c 0
 1669 263 1700 333 1700 426 c 0
 1700 517 1668 584 1604 626 c 0
 1539 667 1434 688 1288 688 c 2
 1186 688 l 1
 1186 147 l 1
EndSplineSet
EndChar

StartChar: afii10060
Encoding: 491 1035 422
Width: 1503
Flags: W
LayerCount: 3
Fore
SplineSet
524 893 m 1
 924 893 l 2
 1061 893 1165 862 1238 799 c 0
 1310 736 1346 645 1346 524 c 2
 1346 0 l 1
 1176 0 l 1
 1176 502 l 2
 1176 586 1155 647 1114 684 c 0
 1072 722 1004 741 911 741 c 2
 524 741 l 1
 524 0 l 1
 354 0 l 1
 354 1311 l 1
 18 1311 l 1
 18 1462 l 1
 1032 1462 l 1
 1032 1311 l 1
 524 1311 l 1
 524 893 l 1
EndSplineSet
EndChar

StartChar: afii10061
Encoding: 492 1036 423
Width: 1253
Flags: W
LayerCount: 3
Fore
SplineSet
1253 0 m 1
 1047 0 l 1
 371 741 l 1
 371 0 l 1
 201 0 l 1
 201 1462 l 1
 371 1462 l 1
 371 754 l 1
 1030 1462 l 1
 1225 1462 l 1
 578 752 l 1
 1253 0 l 1
555 1604 m 1
 587 1645 622 1695 658 1754 c 0
 696 1813 725 1864 746 1907 c 1
 948 1907 l 1
 948 1886 l 1
 919 1843 875 1789 817 1726 c 0
 759 1663 709 1614 666 1579 c 1
 555 1579 l 1
 555 1604 l 1
EndSplineSet
EndChar

StartChar: afii10062
Encoding: 493 1038 424
Width: 1272
Flags: W
LayerCount: 3
Fore
SplineSet
293 -20 m 0
 219 -20 154 -10 98 10 c 1
 98 176 l 1
 160 147 223 133 287 133 c 0
 360 133 419 150 464 184 c 0
 508 217 552 280 596 373 c 1
 27 1462 l 1
 215 1462 l 1
 647 631 l 2
 664 598 677 566 686 535 c 1
 694 535 l 1
 713 591 726 626 733 641 c 2
 1092 1462 l 1
 1272 1462 l 1
 805 416 l 2
 749 291 698 201 654 144 c 0
 608 87 558 46 502 20 c 0
 445 -7 376 -20 293 -20 c 0
652 1579 m 0
 529 1579 439 1603 382 1650 c 0
 325 1698 294 1777 287 1886 c 1
 443 1886 l 1
 449 1817 467 1768 498 1741 c 0
 528 1714 581 1700 656 1700 c 0
 725 1700 776 1715 808 1744 c 0
 842 1773 862 1821 869 1886 c 1
 1026 1886 l 1
 1018 1781 984 1703 925 1654 c 0
 866 1604 775 1579 652 1579 c 0
EndSplineSet
EndChar

StartChar: afii10145
Encoding: 494 1039 425
Width: 1493
Flags: W
LayerCount: 3
Fore
SplineSet
1292 0 m 1
 827 0 l 1
 827 -381 l 1
 651 -381 l 1
 651 0 l 1
 201 0 l 1
 201 1462 l 1
 371 1462 l 1
 371 154 l 1
 1122 154 l 1
 1122 1462 l 1
 1292 1462 l 1
 1292 0 l 1
EndSplineSet
EndChar

StartChar: afii10018
Encoding: 496 1041 427
Width: 1255
Flags: W
LayerCount: 3
Fore
SplineSet
1149 426 m 0
 1149 281 1106 173 1020 104 c 0
 933 35 803 0 629 0 c 2
 201 0 l 1
 201 1462 l 1
 1063 1462 l 1
 1063 1311 l 1
 371 1311 l 1
 371 838 l 1
 598 838 l 2
 727 838 831 823 912 794 c 0
 993 764 1052 720 1091 662 c 0
 1130 604 1149 525 1149 426 c 0
371 147 m 1
 610 147 l 2
 737 147 829 169 886 212 c 0
 944 255 973 327 973 426 c 0
 973 521 944 588 885 628 c 0
 826 668 724 688 578 688 c 2
 371 688 l 1
 371 147 l 1
EndSplineSet
EndChar

StartChar: afii10020
Encoding: 498 1043 429
Width: 1065
Flags: W
LayerCount: 3
Fore
SplineSet
1016 1462 m 1
 1016 1309 l 1
 371 1309 l 1
 371 0 l 1
 201 0 l 1
 201 1462 l 1
 1016 1462 l 1
EndSplineSet
EndChar

StartChar: afii10021
Encoding: 499 1044 430
Width: 1399
Flags: W
LayerCount: 3
Fore
SplineSet
1354 -381 m 1
 1192 -381 l 1
 1192 0 l 1
 176 0 l 1
 176 -381 l 1
 14 -381 l 1
 14 154 l 1
 127 154 l 1
 230 327 318 537 390 784 c 0
 464 1031 504 1257 512 1462 c 1
 1169 1462 l 1
 1169 154 l 1
 1354 154 l 1
 1354 -381 l 1
999 154 m 1
 999 1309 l 1
 666 1309 l 1
 654 1148 614 954 545 728 c 0
 476 501 396 310 305 154 c 1
 999 154 l 1
EndSplineSet
EndChar

StartChar: afii10024
Encoding: 501 1046 432
Width: 1729
Flags: W
LayerCount: 3
Fore
SplineSet
598 752 m 1
 23 1462 l 1
 213 1462 l 1
 782 754 l 1
 782 1462 l 1
 946 1462 l 1
 946 754 l 1
 1516 1462 l 1
 1706 1462 l 1
 1130 754 l 1
 1724 0 l 1
 1528 0 l 1
 946 741 l 1
 946 0 l 1
 782 0 l 1
 782 741 l 1
 201 0 l 1
 2 0 l 1
 598 752 l 1
EndSplineSet
EndChar

StartChar: afii10025
Encoding: 502 1047 433
Width: 1190
Flags: W
LayerCount: 3
Fore
SplineSet
1049 1120 m 0
 1049 1024 1018 946 958 886 c 0
 896 826 812 788 705 772 c 1
 705 764 l 1
 827 747 920 709 982 649 c 0
 1046 589 1077 511 1077 414 c 0
 1077 277 1026 171 924 94 c 0
 822 18 678 -20 492 -20 c 0
 322 -20 183 6 74 59 c 1
 74 217 l 1
 138 186 207 163 282 146 c 0
 356 129 427 121 496 121 c 0
 628 121 728 146 796 196 c 0
 863 246 897 318 897 412 c 0
 897 501 860 569 784 615 c 0
 710 661 598 684 449 684 c 2
 231 684 l 1
 231 827 l 1
 440 827 l 2
 577 827 682 852 758 900 c 0
 832 950 870 1018 870 1106 c 0
 870 1177 843 1234 789 1277 c 0
 735 1320 662 1341 571 1341 c 0
 498 1341 431 1333 372 1316 c 0
 313 1299 244 1266 166 1217 c 1
 82 1331 l 1
 149 1381 225 1419 308 1444 c 0
 392 1470 479 1483 569 1483 c 0
 719 1483 836 1450 922 1384 c 0
 1006 1319 1049 1231 1049 1120 c 0
EndSplineSet
EndChar

StartChar: afii10026
Encoding: 503 1048 434
Width: 1561
Flags: W
LayerCount: 3
Fore
SplineSet
203 1462 m 1
 362 1462 l 1
 362 649 l 2
 362 499 357 363 348 242 c 1
 356 242 l 1
 1176 1462 l 1
 1362 1462 l 1
 1362 0 l 1
 1202 0 l 1
 1202 805 l 2
 1202 939 1208 1080 1219 1227 c 1
 1210 1227 l 1
 389 0 l 1
 203 0 l 1
 203 1462 l 1
EndSplineSet
EndChar

StartChar: afii10027
Encoding: 504 1049 435
Width: 1561
Flags: W
LayerCount: 3
Fore
SplineSet
203 1462 m 1
 362 1462 l 1
 362 649 l 2
 362 499 357 363 348 242 c 1
 356 242 l 1
 1176 1462 l 1
 1362 1462 l 1
 1362 0 l 1
 1202 0 l 1
 1202 805 l 2
 1202 939 1208 1080 1219 1227 c 1
 1210 1227 l 1
 389 0 l 1
 203 0 l 1
 203 1462 l 1
809 1579 m 0
 686 1579 596 1603 539 1650 c 0
 482 1698 451 1777 444 1886 c 1
 600 1886 l 1
 606 1817 624 1768 654 1741 c 0
 685 1714 738 1700 813 1700 c 0
 882 1700 932 1715 966 1744 c 0
 998 1773 1019 1821 1026 1886 c 1
 1183 1886 l 1
 1175 1781 1141 1703 1082 1654 c 0
 1023 1604 932 1579 809 1579 c 0
EndSplineSet
EndChar

StartChar: afii10028
Encoding: 505 1050 436
Width: 1253
Flags: W
LayerCount: 3
Fore
SplineSet
1253 0 m 1
 1047 0 l 1
 371 741 l 1
 371 0 l 1
 201 0 l 1
 201 1462 l 1
 371 1462 l 1
 371 754 l 1
 1030 1462 l 1
 1225 1462 l 1
 578 752 l 1
 1253 0 l 1
EndSplineSet
EndChar

StartChar: afii10029
Encoding: 506 1051 437
Width: 1442
Flags: W
LayerCount: 3
Fore
SplineSet
1241 0 m 1
 1071 0 l 1
 1071 1311 l 1
 596 1311 l 1
 565 1071 l 2
 524 752 488 518 458 370 c 0
 426 223 386 120 335 62 c 0
 284 4 217 -24 133 -23 c 0
 84 -23 39 -15 0 2 c 1
 0 145 l 1
 36 128 74 119 113 119 c 0
 148 119 179 134 206 162 c 0
 232 192 255 242 276 314 c 0
 296 385 322 521 352 722 c 0
 384 922 418 1169 455 1462 c 1
 1241 1462 l 1
 1241 0 l 1
EndSplineSet
EndChar

StartChar: afii10033
Encoding: 510 1055 441
Width: 1493
Flags: W
LayerCount: 3
Fore
SplineSet
1292 0 m 1
 1122 0 l 1
 1122 1311 l 1
 371 1311 l 1
 371 0 l 1
 201 0 l 1
 201 1462 l 1
 1292 1462 l 1
 1292 0 l 1
EndSplineSet
EndChar

StartChar: afii10037
Encoding: 514 1059 445
Width: 1272
Flags: W
LayerCount: 3
Fore
SplineSet
293 -20 m 0
 219 -20 154 -10 98 10 c 1
 98 176 l 1
 160 147 223 133 287 133 c 0
 360 133 419 150 464 184 c 0
 508 217 552 280 596 373 c 1
 27 1462 l 1
 215 1462 l 1
 647 631 l 2
 664 598 677 566 686 535 c 1
 694 535 l 1
 713 591 726 626 733 641 c 2
 1092 1462 l 1
 1272 1462 l 1
 805 416 l 2
 749 291 698 201 654 144 c 0
 608 87 558 46 502 20 c 0
 445 -7 376 -20 293 -20 c 0
EndSplineSet
EndChar

StartChar: afii10038
Encoding: 515 1060 446
Width: 1634
Flags: W
LayerCount: 3
Fore
SplineSet
731 1483 m 1
 903 1483 l 1
 903 1303 l 1
 973 1303 l 2
 1087 1303 1186 1280 1270 1235 c 0
 1353 1190 1417 1126 1462 1043 c 0
 1506 960 1528 866 1528 760 c 0
 1528 649 1503 551 1454 464 c 0
 1404 378 1336 313 1250 270 c 0
 1163 227 1061 205 944 205 c 2
 903 205 l 1
 903 -20 l 1
 731 -20 l 1
 731 205 l 1
 686 205 l 2
 569 205 467 227 381 271 c 0
 295 315 228 380 179 467 c 0
 130 554 106 651 106 758 c 0
 106 863 128 957 174 1040 c 0
 218 1123 283 1187 367 1234 c 0
 451 1280 550 1303 664 1303 c 2
 731 1303 l 1
 731 1483 l 1
903 348 m 1
 928 348 l 2
 1062 348 1166 384 1240 458 c 0
 1315 530 1352 632 1352 762 c 0
 1352 885 1318 982 1249 1052 c 0
 1180 1122 1084 1157 961 1157 c 2
 903 1157 l 1
 903 348 l 1
731 1157 m 1
 674 1157 l 2
 553 1157 457 1122 388 1051 c 0
 318 980 283 884 283 762 c 0
 283 631 320 529 394 456 c 0
 468 384 572 348 707 348 c 2
 731 348 l 1
 731 1157 l 1
EndSplineSet
EndChar

StartChar: afii10040
Encoding: 517 1062 448
Width: 1509
Flags: W
LayerCount: 3
Fore
SplineSet
1292 154 m 1
 1464 154 l 1
 1464 -381 l 1
 1303 -381 l 1
 1303 0 l 1
 201 0 l 1
 201 1462 l 1
 371 1462 l 1
 371 154 l 1
 1122 154 l 1
 1122 1462 l 1
 1292 1462 l 1
 1292 154 l 1
EndSplineSet
EndChar

StartChar: afii10041
Encoding: 518 1063 449
Width: 1423
Flags: W
LayerCount: 3
Fore
SplineSet
1223 0 m 1
 1053 0 l 1
 1053 604 l 1
 954 569 871 544 805 532 c 0
 739 518 671 512 600 512 c 0
 462 512 356 544 282 607 c 0
 207 670 170 762 170 881 c 2
 170 1462 l 1
 340 1462 l 1
 340 901 l 2
 340 820 361 761 404 722 c 0
 446 683 515 664 610 664 c 0
 675 664 736 669 796 678 c 0
 854 688 940 711 1053 748 c 1
 1053 1462 l 1
 1223 1462 l 1
 1223 0 l 1
EndSplineSet
EndChar

StartChar: afii10042
Encoding: 519 1064 450
Width: 2114
Flags: W
LayerCount: 3
Fore
SplineSet
1913 0 m 1
 201 0 l 1
 201 1462 l 1
 371 1462 l 1
 371 154 l 1
 971 154 l 1
 971 1462 l 1
 1141 1462 l 1
 1141 154 l 1
 1741 154 l 1
 1741 1462 l 1
 1913 1462 l 1
 1913 0 l 1
EndSplineSet
EndChar

StartChar: afii10043
Encoding: 520 1065 451
Width: 2116
Flags: W
LayerCount: 3
Fore
SplineSet
201 0 m 1
 201 1462 l 1
 371 1462 l 1
 371 154 l 1
 954 154 l 1
 954 1462 l 1
 1126 1462 l 1
 1126 154 l 1
 1710 154 l 1
 1710 1462 l 1
 1880 1462 l 1
 1880 154 l 1
 2052 154 l 1
 2052 -381 l 1
 1890 -381 l 1
 1890 0 l 1
 201 0 l 1
EndSplineSet
EndChar

StartChar: afii10044
Encoding: 521 1066 452
Width: 1409
Flags: W
LayerCount: 3
Fore
SplineSet
1303 426 m 0
 1303 289 1260 183 1174 110 c 0
 1087 37 961 0 795 0 c 2
 354 0 l 1
 354 1311 l 1
 18 1311 l 1
 18 1462 l 1
 524 1462 l 1
 524 838 l 1
 768 838 l 2
 942 838 1075 804 1166 736 c 0
 1257 667 1303 564 1303 426 c 0
524 147 m 1
 776 147 l 2
 897 147 985 170 1042 216 c 0
 1098 263 1126 333 1126 426 c 0
 1126 517 1097 583 1038 625 c 0
 980 667 883 688 748 688 c 2
 524 688 l 1
 524 147 l 1
EndSplineSet
EndChar

StartChar: afii10045
Encoding: 522 1067 453
Width: 1747
Flags: W
LayerCount: 3
Fore
SplineSet
201 0 m 1
 201 1462 l 1
 371 1462 l 1
 371 838 l 1
 610 838 l 2
 784 838 917 804 1008 736 c 0
 1099 667 1145 564 1145 426 c 0
 1145 289 1102 183 1016 110 c 0
 929 37 803 0 637 0 c 2
 201 0 l 1
371 145 m 1
 618 145 l 2
 739 145 827 168 884 216 c 0
 941 262 969 333 969 426 c 0
 969 517 939 584 880 624 c 0
 820 666 723 686 590 686 c 2
 371 686 l 1
 371 145 l 1
1546 0 m 1
 1376 0 l 1
 1376 1462 l 1
 1546 1462 l 1
 1546 0 l 1
EndSplineSet
EndChar

StartChar: afii10046
Encoding: 523 1068 454
Width: 1317
Flags: W
LayerCount: 3
Fore
SplineSet
1210 426 m 0
 1210 291 1165 186 1074 112 c 0
 984 37 855 0 688 0 c 2
 201 0 l 1
 201 1462 l 1
 371 1462 l 1
 371 838 l 1
 662 838 l 2
 840 838 976 803 1070 732 c 0
 1163 662 1210 560 1210 426 c 0
371 147 m 1
 670 147 l 2
 913 147 1034 240 1034 426 c 0
 1034 516 1003 582 940 624 c 0
 878 667 778 688 641 688 c 2
 371 688 l 1
 371 147 l 1
EndSplineSet
EndChar

StartChar: afii10047
Encoding: 524 1069 455
Width: 1290
Flags: W
LayerCount: 3
Fore
SplineSet
467 1331 m 0
 352 1331 241 1306 133 1255 c 1
 61 1399 l 1
 176 1455 312 1483 469 1483 c 0
 614 1483 738 1454 842 1395 c 0
 947 1336 1026 1253 1080 1144 c 0
 1134 1035 1161 907 1161 760 c 0
 1161 509 1100 317 979 182 c 0
 858 47 683 -20 455 -20 c 0
 304 -20 176 -1 72 37 c 1
 72 186 l 1
 127 172 184 159 241 148 c 0
 298 137 360 131 426 131 c 0
 607 131 743 179 835 276 c 0
 927 372 976 511 981 692 c 1
 262 692 l 1
 262 844 l 1
 979 844 l 1
 964 997 912 1116 822 1202 c 0
 731 1288 613 1331 467 1331 c 0
EndSplineSet
EndChar

StartChar: afii10048
Encoding: 525 1070 456
Width: 2150
Flags: W
LayerCount: 3
Fore
SplineSet
2023 733 m 0
 2023 497 1966 312 1852 180 c 0
 1739 46 1581 -20 1378 -20 c 0
 1177 -20 1020 41 906 164 c 0
 793 286 732 461 725 688 c 1
 371 688 l 1
 371 0 l 1
 201 0 l 1
 201 1462 l 1
 371 1462 l 1
 371 840 l 1
 727 840 l 1
 742 1047 806 1207 918 1318 c 0
 1031 1429 1183 1485 1374 1485 c 0
 1579 1485 1738 1418 1852 1284 c 0
 1966 1151 2023 967 2023 733 c 0
903 733 m 0
 903 536 943 386 1022 283 c 0
 1101 180 1218 129 1372 129 c 0
 1528 129 1646 180 1724 282 c 0
 1804 384 1843 534 1843 733 c 0
 1843 932 1804 1081 1726 1182 c 0
 1647 1283 1531 1333 1376 1333 c 0
 1221 1333 1103 1282 1023 1180 c 0
 943 1079 903 930 903 733 c 0
EndSplineSet
EndChar

StartChar: afii10049
Encoding: 526 1071 457
Width: 1303
Flags: W
LayerCount: 3
Fore
SplineSet
635 610 m 1
 252 0 l 1
 51 0 l 1
 461 639 l 1
 354 673 276 724 227 794 c 0
 178 862 154 950 154 1055 c 0
 154 1186 199 1286 290 1356 c 0
 380 1427 517 1462 700 1462 c 2
 1102 1462 l 1
 1102 0 l 1
 932 0 l 1
 932 610 l 1
 635 610 l 1
932 1315 m 1
 705 1315 l 2
 583 1315 490 1294 427 1252 c 0
 364 1210 332 1142 332 1047 c 0
 332 853 458 756 711 756 c 2
 932 756 l 1
 932 1315 l 1
EndSplineSet
EndChar

StartChar: afii10066
Encoding: 528 1073 459
Width: 1221
Flags: W
LayerCount: 3
Fore
SplineSet
119 657 m 0
 119 897 154 1084 225 1218 c 0
 296 1353 408 1437 561 1470 c 0
 752 1511 920 1544 1065 1569 c 1
 1096 1423 l 1
 865 1384 699 1354 600 1331 c 0
 503 1309 431 1257 382 1175 c 0
 334 1093 308 981 303 840 c 1
 315 840 l 1
 356 896 410 940 475 972 c 0
 540 1004 609 1020 680 1020 c 0
 815 1020 920 976 995 889 c 0
 1070 802 1108 681 1108 526 c 0
 1108 355 1064 221 977 124 c 0
 890 28 768 -20 612 -20 c 0
 458 -20 337 39 250 157 c 0
 163 275 119 442 119 657 c 0
627 119 m 0
 830 119 932 249 932 508 c 0
 932 755 840 879 655 879 c 0
 604 879 556 868 508 848 c 0
 462 826 418 799 380 764 c 0
 340 729 310 694 289 657 c 1
 289 482 317 348 372 256 c 0
 427 165 512 119 627 119 c 0
EndSplineSet
EndChar

StartChar: afii10067
Encoding: 529 1074 460
Width: 1165
Flags: W
LayerCount: 3
Fore
SplineSet
1065 821 m 0
 1065 750 1044 696 1004 658 c 0
 962 622 905 597 831 584 c 1
 831 575 l 1
 924 562 992 535 1036 493 c 0
 1078 451 1100 393 1100 319 c 0
 1100 217 1062 138 988 83 c 0
 912 28 803 0 659 0 c 2
 176 0 l 1
 176 1096 l 1
 657 1096 l 2
 929 1096 1065 1004 1065 821 c 0
934 330 m 0
 934 389 912 432 866 460 c 0
 822 486 747 500 643 500 c 2
 342 500 l 1
 342 139 l 1
 647 139 l 2
 838 139 934 203 934 330 c 0
903 805 m 0
 903 858 882 896 842 918 c 0
 800 941 738 952 655 952 c 2
 342 952 l 1
 342 643 l 1
 623 643 l 2
 726 643 798 656 840 681 c 0
 882 706 903 748 903 805 c 0
EndSplineSet
EndChar

StartChar: afii10068
Encoding: 530 1075 461
Width: 877
Flags: W
LayerCount: 3
Fore
SplineSet
836 954 m 1
 342 954 l 1
 342 0 l 1
 176 0 l 1
 176 1096 l 1
 836 1096 l 1
 836 954 l 1
EndSplineSet
EndChar

StartChar: afii10069
Encoding: 531 1076 462
Width: 1171
Flags: W
LayerCount: 3
Fore
SplineSet
1128 -379 m 1
 967 -379 l 1
 967 0 l 1
 201 0 l 1
 201 -379 l 1
 41 -379 l 1
 41 143 l 1
 127 143 l 1
 216 264 286 407 337 570 c 0
 388 733 414 909 416 1096 c 1
 971 1096 l 1
 971 143 l 1
 1128 143 l 1
 1128 -379 l 1
811 143 m 1
 811 965 l 1
 565 965 l 1
 556 817 528 667 480 516 c 0
 431 364 371 240 299 143 c 1
 811 143 l 1
EndSplineSet
EndChar

StartChar: afii10072
Encoding: 533 1078 464
Width: 1507
Flags: W
LayerCount: 3
Fore
SplineSet
676 1094 m 1
 829 1094 l 1
 829 563 l 1
 1282 1094 l 1
 1464 1094 l 1
 1006 563 l 1
 1503 0 l 1
 1311 0 l 1
 829 555 l 1
 829 0 l 1
 676 0 l 1
 676 555 l 1
 195 0 l 1
 4 0 l 1
 500 563 l 1
 43 1094 l 1
 225 1094 l 1
 676 563 l 1
 676 1094 l 1
EndSplineSet
EndChar

StartChar: afii10073
Encoding: 534 1079 465
Width: 989
Flags: W
LayerCount: 3
Fore
SplineSet
385 641 m 2
 592 641 696 698 696 813 c 0
 696 921 612 975 444 975 c 0
 393 975 346 970 304 961 c 0
 262 952 207 933 139 905 c 1
 80 1040 l 1
 193 1091 317 1116 451 1116 c 0
 577 1116 676 1090 749 1038 c 0
 822 987 858 916 858 827 c 0
 858 704 790 624 653 586 c 1
 653 578 l 1
 737 553 798 518 837 472 c 0
 876 427 895 370 895 301 c 0
 895 200 854 121 772 64 c 0
 691 8 578 -20 434 -20 c 0
 276 -20 154 4 68 51 c 1
 68 203 l 1
 190 146 313 117 438 117 c 0
 534 117 606 134 656 166 c 0
 704 200 729 247 729 309 c 0
 729 436 625 500 418 500 c 2
 266 500 l 1
 266 641 l 1
 385 641 l 2
EndSplineSet
EndChar

StartChar: afii10074
Encoding: 535 1080 466
Width: 1298
Flags: W
LayerCount: 3
Fore
SplineSet
332 1096 m 1
 332 401 l 1
 325 219 l 1
 322 162 l 1
 915 1096 l 1
 1122 1096 l 1
 1122 0 l 1
 967 0 l 1
 967 670 l 1
 970 802 l 1
 975 932 l 1
 383 0 l 1
 176 0 l 1
 176 1096 l 1
 332 1096 l 1
EndSplineSet
EndChar

StartChar: afii10075
Encoding: 536 1081 467
Width: 1298
Flags: W
LayerCount: 3
Fore
SplineSet
332 1096 m 1
 332 401 l 1
 325 219 l 1
 322 162 l 1
 915 1096 l 1
 1122 1096 l 1
 1122 0 l 1
 967 0 l 1
 967 670 l 1
 970 802 l 1
 975 932 l 1
 383 0 l 1
 176 0 l 1
 176 1096 l 1
 332 1096 l 1
645 1241 m 0
 522 1241 432 1265 375 1312 c 0
 318 1360 287 1439 280 1548 c 1
 436 1548 l 1
 442 1479 460 1430 490 1403 c 0
 521 1376 574 1362 649 1362 c 0
 718 1362 768 1377 802 1406 c 0
 834 1435 855 1483 862 1548 c 1
 1019 1548 l 1
 1011 1443 977 1365 918 1316 c 0
 859 1266 768 1241 645 1241 c 0
EndSplineSet
EndChar

StartChar: afii10076
Encoding: 537 1082 468
Width: 1063
Flags: W
LayerCount: 3
Fore
SplineSet
815 1096 m 1
 997 1096 l 1
 524 567 l 1
 1036 0 l 1
 842 0 l 1
 342 555 l 1
 342 0 l 1
 176 0 l 1
 176 1096 l 1
 342 1096 l 1
 342 563 l 1
 815 1096 l 1
EndSplineSet
EndChar

StartChar: afii10077
Encoding: 538 1083 469
Width: 1169
Flags: W
LayerCount: 3
Fore
SplineSet
993 0 m 1
 825 0 l 1
 825 954 l 1
 496 954 l 1
 478 717 453 528 421 389 c 0
 389 250 348 148 296 83 c 0
 246 18 181 -14 102 -14 c 0
 66 -14 37 -10 16 -2 c 1
 16 121 l 1
 31 117 47 115 66 115 c 0
 143 115 204 196 249 358 c 0
 294 520 329 766 352 1096 c 1
 993 1096 l 1
 993 0 l 1
EndSplineSet
EndChar

StartChar: afii10078
Encoding: 539 1084 470
Width: 1505
Flags: W
LayerCount: 3
Fore
SplineSet
745 160 m 1
 776 253 l 1
 819 371 l 1
 1116 1094 l 1
 1327 1094 l 1
 1327 0 l 1
 1180 0 l 1
 1180 905 l 1
 1160 847 l 1
 1102 694 l 1
 819 0 l 1
 680 0 l 1
 397 696 l 2
 362 785 337 855 324 905 c 1
 324 0 l 1
 176 0 l 1
 176 1094 l 1
 379 1094 l 1
 666 399 l 2
 695 326 721 246 745 160 c 1
EndSplineSet
EndChar

StartChar: afii10079
Encoding: 540 1085 471
Width: 1298
Flags: W
LayerCount: 3
Fore
SplineSet
342 1096 m 1
 342 637 l 1
 956 637 l 1
 956 1096 l 1
 1122 1096 l 1
 1122 0 l 1
 956 0 l 1
 956 494 l 1
 342 494 l 1
 342 0 l 1
 176 0 l 1
 176 1096 l 1
 342 1096 l 1
EndSplineSet
EndChar

StartChar: afii10081
Encoding: 542 1087 473
Width: 1272
Flags: W
LayerCount: 3
Fore
SplineSet
342 0 m 1
 176 0 l 1
 176 1096 l 1
 1096 1096 l 1
 1096 0 l 1
 928 0 l 1
 928 952 l 1
 342 952 l 1
 342 0 l 1
EndSplineSet
EndChar

StartChar: afii10084
Encoding: 545 1090 476
Width: 956
Flags: W
LayerCount: 3
Fore
SplineSet
915 954 m 1
 559 954 l 1
 559 0 l 1
 393 0 l 1
 393 954 l 1
 41 954 l 1
 41 1096 l 1
 915 1096 l 1
 915 954 l 1
EndSplineSet
EndChar

StartChar: afii10086
Encoding: 547 1092 478
Width: 1464
Flags: W
LayerCount: 3
Fore
SplineSet
1350 549 m 0
 1350 383 1303 251 1208 152 c 0
 1114 54 982 -2 813 -16 c 1
 813 -492 l 1
 649 -492 l 1
 649 -16 l 1
 484 -3 353 53 257 154 c 0
 161 255 113 386 113 549 c 0
 113 715 161 847 256 945 c 0
 352 1043 485 1099 655 1112 c 1
 655 1556 l 1
 813 1556 l 1
 813 1112 l 1
 980 1097 1112 1039 1207 939 c 0
 1302 839 1350 709 1350 549 c 0
287 549 m 0
 287 421 316 321 375 248 c 0
 434 175 527 133 655 121 c 1
 655 973 l 1
 532 962 440 922 378 852 c 0
 318 784 287 682 287 549 c 0
1178 549 m 0
 1178 804 1056 945 813 971 c 1
 813 121 l 1
 940 134 1032 176 1090 249 c 0
 1149 322 1178 422 1178 549 c 0
EndSplineSet
EndChar

StartChar: afii10088
Encoding: 549 1094 480
Width: 1282
Flags: W
LayerCount: 3
Fore
SplineSet
1245 -379 m 1
 1079 -379 l 1
 1079 0 l 1
 176 0 l 1
 176 1096 l 1
 342 1096 l 1
 342 143 l 1
 924 143 l 1
 924 1096 l 1
 1090 1096 l 1
 1090 143 l 1
 1245 143 l 1
 1245 -379 l 1
EndSplineSet
EndChar

StartChar: afii10089
Encoding: 550 1095 481
Width: 1245
Flags: W
LayerCount: 3
Fore
SplineSet
322 1096 m 1
 322 696 l 2
 322 568 395 504 541 504 c 0
 602 504 660 513 715 532 c 0
 770 551 833 582 903 627 c 1
 903 1096 l 1
 1069 1096 l 1
 1069 0 l 1
 903 0 l 1
 903 496 l 1
 833 448 768 414 708 394 c 0
 649 375 581 365 506 365 c 0
 397 365 311 394 249 451 c 0
 187 508 156 586 156 684 c 2
 156 1096 l 1
 322 1096 l 1
EndSplineSet
EndChar

StartChar: afii10090
Encoding: 551 1096 482
Width: 1823
Flags: W
LayerCount: 3
Fore
SplineSet
993 143 m 1
 1479 143 l 1
 1479 1096 l 1
 1647 1096 l 1
 1647 0 l 1
 176 0 l 1
 176 1096 l 1
 342 1096 l 1
 342 143 l 1
 827 143 l 1
 827 1096 l 1
 993 1096 l 1
 993 143 l 1
EndSplineSet
EndChar

StartChar: afii10091
Encoding: 552 1097 483
Width: 1837
Flags: W
LayerCount: 3
Fore
SplineSet
993 143 m 1
 1479 143 l 1
 1479 1094 l 1
 1645 1094 l 1
 1645 143 l 1
 1802 143 l 1
 1802 -377 l 1
 1634 -377 l 1
 1634 0 l 1
 176 0 l 1
 176 1094 l 1
 342 1094 l 1
 342 143 l 1
 827 143 l 1
 827 1094 l 1
 993 1094 l 1
 993 143 l 1
EndSplineSet
EndChar

StartChar: afii10092
Encoding: 553 1098 484
Width: 1423
Flags: W
LayerCount: 3
Fore
SplineSet
557 643 m 1
 870 643 l 2
 1019 643 1130 617 1202 566 c 0
 1273 515 1309 437 1309 334 c 0
 1309 223 1272 140 1198 84 c 0
 1123 28 1013 0 866 0 c 2
 391 0 l 1
 391 954 l 1
 41 954 l 1
 41 1096 l 1
 557 1096 l 1
 557 643 l 1
1145 324 m 0
 1145 386 1124 431 1083 458 c 0
 1042 486 969 500 864 500 c 2
 557 500 l 1
 557 139 l 1
 870 139 l 2
 1053 139 1145 201 1145 324 c 0
EndSplineSet
EndChar

StartChar: afii10093
Encoding: 554 1099 485
Width: 1577
Flags: W
LayerCount: 3
Fore
SplineSet
342 643 m 1
 641 643 l 2
 780 643 884 617 950 566 c 0
 1018 514 1051 437 1051 334 c 0
 1051 224 1016 141 944 84 c 0
 874 28 769 0 631 0 c 2
 176 0 l 1
 176 1096 l 1
 342 1096 l 1
 342 643 l 1
1401 0 m 1
 1235 0 l 1
 1235 1096 l 1
 1401 1096 l 1
 1401 0 l 1
342 500 m 1
 342 139 l 1
 623 139 l 2
 799 139 887 201 887 324 c 0
 887 385 867 430 826 458 c 0
 785 486 716 500 618 500 c 2
 342 500 l 1
EndSplineSet
EndChar

StartChar: afii10094
Encoding: 555 1100 486
Width: 1212
Flags: W
LayerCount: 3
Fore
SplineSet
342 643 m 1
 680 643 l 2
 960 643 1100 540 1100 334 c 0
 1100 226 1064 143 990 86 c 0
 918 29 811 0 670 0 c 2
 176 0 l 1
 176 1096 l 1
 342 1096 l 1
 342 643 l 1
342 500 m 1
 342 139 l 1
 662 139 l 2
 750 139 817 154 864 185 c 0
 911 216 934 262 934 324 c 0
 934 385 912 429 870 458 c 0
 826 486 756 500 657 500 c 2
 342 500 l 1
EndSplineSet
EndChar

StartChar: afii10095
Encoding: 556 1101 487
Width: 1008
Flags: W
LayerCount: 3
Fore
SplineSet
342 -20 m 0
 231 -20 136 -1 57 37 c 1
 57 184 l 1
 97 169 140 155 187 143 c 0
 234 131 287 125 348 125 c 0
 464 125 554 156 616 218 c 0
 680 280 714 373 721 496 c 1
 166 496 l 1
 166 637 l 1
 719 637 l 1
 708 752 675 836 618 889 c 0
 562 942 480 969 373 969 c 0
 304 969 220 951 119 915 c 1
 72 1055 l 1
 109 1072 154 1087 209 1098 c 0
 264 1110 318 1116 371 1116 c 0
 542 1116 671 1067 760 970 c 0
 849 872 893 731 893 547 c 0
 893 368 845 228 748 129 c 0
 652 30 517 -20 342 -20 c 0
EndSplineSet
EndChar

StartChar: afii10096
Encoding: 557 1102 488
Width: 1702
Flags: W
LayerCount: 3
Fore
SplineSet
1587 549 m 0
 1587 370 1544 230 1458 130 c 0
 1373 30 1255 -20 1106 -20 c 0
 964 -20 851 24 768 114 c 0
 685 202 638 329 629 494 c 1
 342 494 l 1
 342 0 l 1
 176 0 l 1
 176 1096 l 1
 342 1096 l 1
 342 637 l 1
 631 637 l 1
 644 789 693 907 777 990 c 0
 861 1074 972 1116 1110 1116 c 0
 1257 1116 1373 1065 1458 964 c 0
 1544 862 1587 724 1587 549 c 0
801 549 m 0
 801 408 825 302 874 228 c 0
 923 156 1001 119 1108 119 c 0
 1213 119 1291 154 1340 226 c 0
 1390 296 1415 404 1415 549 c 0
 1415 689 1391 795 1342 867 c 0
 1293 939 1215 975 1108 975 c 0
 1001 975 923 939 874 867 c 0
 825 795 801 689 801 549 c 0
EndSplineSet
EndChar

StartChar: afii10097
Encoding: 558 1103 489
Width: 1137
Flags: W
LayerCount: 3
Fore
SplineSet
231 0 m 1
 37 0 l 1
 352 463 l 1
 267 482 202 518 158 572 c 0
 112 625 90 693 90 774 c 0
 90 874 124 953 191 1010 c 0
 258 1067 352 1096 473 1096 c 2
 961 1096 l 1
 961 0 l 1
 795 0 l 1
 795 438 l 1
 518 438 l 1
 231 0 l 1
252 772 m 0
 252 645 344 582 528 582 c 2
 795 582 l 1
 795 952 l 1
 494 952 l 2
 333 952 252 892 252 772 c 0
EndSplineSet
EndChar

StartChar: afii10099
Encoding: 560 1106 491
Width: 1257
Flags: W
LayerCount: 3
Fore
SplineSet
815 -492 m 0
 762 -492 719 -484 684 -467 c 1
 684 -330 l 1
 723 -343 760 -350 797 -350 c 0
 883 -350 926 -293 926 -180 c 2
 926 670 l 2
 926 759 906 826 865 870 c 0
 824 914 761 936 674 936 c 0
 559 936 475 905 422 842 c 0
 370 779 344 678 344 537 c 2
 344 0 l 1
 176 0 l 1
 176 1243 l 1
 20 1243 l 1
 20 1370 l 1
 176 1370 l 1
 176 1556 l 1
 342 1556 l 1
 342 1370 l 1
 743 1370 l 1
 743 1243 l 1
 342 1243 l 1
 342 1047 l 2
 342 991 339 944 334 907 c 1
 344 907 l 1
 377 960 423 1001 484 1032 c 0
 544 1062 613 1077 690 1077 c 0
 824 1077 924 1045 992 982 c 0
 1058 918 1092 816 1092 676 c 2
 1092 -166 l 2
 1092 -270 1069 -350 1024 -407 c 0
 978 -464 908 -492 815 -492 c 0
EndSplineSet
EndChar

StartChar: afii10100
Encoding: 561 1107 492
Width: 877
Flags: W
LayerCount: 3
Fore
SplineSet
836 954 m 1
 342 954 l 1
 342 0 l 1
 176 0 l 1
 176 1096 l 1
 836 1096 l 1
 836 954 l 1
378 1266 m 1
 410 1307 444 1357 482 1416 c 0
 518 1475 548 1526 569 1569 c 1
 771 1569 l 1
 771 1548 l 1
 742 1505 698 1451 640 1388 c 0
 582 1325 532 1276 489 1241 c 1
 378 1241 l 1
 378 1266 l 1
EndSplineSet
EndChar

StartChar: afii10101
Encoding: 562 1108 493
Width: 1008
Flags: W
LayerCount: 3
Fore
SplineSet
633 -20 m 0
 468 -20 340 28 250 126 c 0
 160 222 115 362 115 543 c 0
 115 726 161 868 252 967 c 0
 344 1066 474 1116 641 1116 c 0
 696 1116 749 1111 802 1100 c 0
 855 1089 900 1076 938 1059 c 1
 889 918 l 1
 794 952 710 969 637 969 c 0
 528 969 445 942 388 888 c 0
 331 833 298 750 287 637 c 1
 840 637 l 1
 840 496 l 1
 285 496 l 1
 291 369 322 276 379 216 c 0
 436 155 520 125 631 125 c 0
 724 125 821 145 922 184 c 1
 922 37 l 1
 845 -1 748 -20 633 -20 c 0
EndSplineSet
EndChar

StartChar: afii10104
Encoding: 565 1111 496
Width: 518
Flags: W
LayerCount: 3
Fore
SplineSet
342 0 m 1
 176 0 l 1
 176 1096 l 1
 342 1096 l 1
 342 0 l 1
-20 1393 m 0
 -20 1428 -11 1453 6 1468 c 0
 24 1483 45 1491 70 1491 c 0
 95 1491 117 1483 136 1468 c 0
 154 1453 163 1428 163 1393 c 0
 163 1360 154 1335 136 1318 c 0
 117 1302 95 1294 70 1294 c 0
 45 1294 24 1302 6 1318 c 0
 -11 1335 -20 1360 -20 1393 c 0
361 1393 m 0
 361 1428 370 1453 388 1468 c 0
 405 1483 426 1491 451 1491 c 0
 476 1491 497 1483 516 1468 c 0
 534 1453 543 1428 543 1393 c 0
 543 1360 534 1335 516 1318 c 0
 497 1302 476 1294 451 1294 c 0
 426 1294 405 1302 388 1318 c 0
 370 1335 361 1360 361 1393 c 0
EndSplineSet
EndChar

StartChar: afii10106
Encoding: 567 1113 498
Width: 1714
Flags: W
LayerCount: 3
Fore
SplineSet
944 643 m 1
 1188 643 l 2
 1329 643 1433 617 1500 566 c 0
 1568 514 1602 437 1602 334 c 0
 1602 111 1456 0 1165 0 c 2
 754 0 l 1
 754 954 l 1
 496 954 l 1
 469 609 426 361 366 211 c 0
 305 61 218 -14 104 -14 c 0
 67 -14 37 -10 16 -2 c 1
 16 121 l 1
 31 117 47 115 66 115 c 0
 143 115 204 196 249 358 c 0
 294 520 329 766 352 1096 c 1
 944 1096 l 1
 944 643 l 1
1436 324 m 0
 1436 385 1415 429 1374 458 c 0
 1332 486 1258 500 1153 500 c 2
 922 500 l 1
 922 139 l 1
 1159 139 l 2
 1344 139 1436 201 1436 324 c 0
EndSplineSet
EndChar

StartChar: afii10107
Encoding: 568 1114 499
Width: 1815
Flags: W
LayerCount: 3
Fore
SplineSet
1024 1094 m 1
 1024 641 l 1
 1280 641 l 2
 1425 641 1531 616 1598 564 c 0
 1666 514 1700 437 1700 334 c 0
 1700 111 1555 0 1266 0 c 2
 850 0 l 1
 850 494 l 1
 348 494 l 1
 348 0 l 1
 176 0 l 1
 176 1094 l 1
 348 1094 l 1
 348 637 l 1
 854 637 l 1
 854 1094 l 1
 1024 1094 l 1
1020 500 m 1
 1020 139 l 1
 1260 139 l 2
 1444 139 1536 201 1536 324 c 0
 1536 385 1515 430 1472 458 c 0
 1429 486 1357 500 1255 500 c 2
 1020 500 l 1
EndSplineSet
EndChar

StartChar: afii10108
Encoding: 569 1115 500
Width: 1257
Flags: W
LayerCount: 3
Fore
SplineSet
926 0 m 1
 926 670 l 2
 926 759 906 826 865 870 c 0
 824 914 761 936 674 936 c 0
 558 936 474 905 421 843 c 0
 368 781 342 679 342 537 c 2
 342 0 l 1
 176 0 l 1
 176 1243 l 1
 20 1243 l 1
 20 1370 l 1
 176 1370 l 1
 176 1556 l 1
 342 1556 l 1
 342 1370 l 1
 791 1370 l 1
 791 1243 l 1
 342 1243 l 1
 342 1047 l 2
 342 991 339 944 334 907 c 1
 344 907 l 1
 377 960 423 1001 484 1032 c 0
 544 1062 613 1077 690 1077 c 0
 824 1077 924 1045 992 982 c 0
 1058 918 1092 816 1092 676 c 2
 1092 0 l 1
 926 0 l 1
EndSplineSet
EndChar

StartChar: afii10109
Encoding: 570 1116 501
Width: 1063
Flags: W
LayerCount: 3
Fore
SplineSet
815 1096 m 1
 997 1096 l 1
 524 567 l 1
 1036 0 l 1
 842 0 l 1
 342 555 l 1
 342 0 l 1
 176 0 l 1
 176 1096 l 1
 342 1096 l 1
 342 563 l 1
 815 1096 l 1
444 1266 m 1
 476 1307 510 1357 548 1416 c 0
 584 1475 614 1526 635 1569 c 1
 837 1569 l 1
 837 1548 l 1
 808 1505 764 1451 706 1388 c 0
 648 1325 598 1276 555 1241 c 1
 444 1241 l 1
 444 1266 l 1
EndSplineSet
EndChar

StartChar: afii10110
Encoding: 571 1118 502
Width: 1032
Flags: W
LayerCount: 3
Fore
SplineSet
2 1096 m 1
 180 1096 l 1
 420 471 l 2
 473 328 505 225 518 162 c 1
 526 162 l 1
 535 196 553 254 580 336 c 0
 608 419 699 672 852 1096 c 1
 1030 1096 l 1
 559 -152 l 2
 512 -275 458 -363 396 -414 c 0
 333 -466 257 -492 166 -492 c 0
 115 -492 65 -486 16 -475 c 1
 16 -342 l 1
 53 -350 94 -354 139 -354 c 0
 253 -354 334 -290 383 -162 c 2
 444 -6 l 1
 2 1096 l 1
511 1241 m 0
 388 1241 298 1265 241 1312 c 0
 184 1360 153 1439 146 1548 c 1
 302 1548 l 1
 308 1479 326 1430 356 1403 c 0
 387 1376 440 1362 515 1362 c 0
 584 1362 634 1377 668 1406 c 0
 700 1435 721 1483 728 1548 c 1
 885 1548 l 1
 877 1443 843 1365 784 1316 c 0
 725 1266 634 1241 511 1241 c 0
EndSplineSet
EndChar

StartChar: afii10193
Encoding: 572 1119 503
Width: 1272
Flags: W
LayerCount: 3
Fore
SplineSet
559 0 m 1
 176 0 l 1
 176 1094 l 1
 342 1094 l 1
 342 143 l 1
 928 143 l 1
 928 1094 l 1
 1094 1094 l 1
 1094 0 l 1
 725 0 l 1
 725 -377 l 1
 559 -377 l 1
 559 0 l 1
EndSplineSet
EndChar

StartChar: afii10050
Encoding: 573 1168 504
Width: 1079
Flags: W
LayerCount: 3
Fore
SplineSet
870 1462 m 1
 870 1763 l 1
 1032 1763 l 1
 1032 1309 l 1
 371 1309 l 1
 371 0 l 1
 201 0 l 1
 201 1462 l 1
 870 1462 l 1
EndSplineSet
EndChar

StartChar: afii10098
Encoding: 574 1169 505
Width: 877
Flags: W
LayerCount: 3
Fore
SplineSet
836 967 m 1
 342 967 l 1
 342 0 l 1
 176 0 l 1
 176 1096 l 1
 670 1096 l 1
 670 1417 l 1
 836 1417 l 1
 836 967 l 1
EndSplineSet
EndChar

StartChar: endash
Encoding: 583 8211 514
Width: 1024
Flags: W
LayerCount: 3
Fore
SplineSet
82 473 m 1
 82 625 l 1
 942 625 l 1
 942 473 l 1
 82 473 l 1
EndSplineSet
EndChar

StartChar: emdash
Encoding: 584 8212 515
Width: 2048
Flags: W
LayerCount: 3
Fore
SplineSet
82 473 m 1
 82 625 l 1
 1966 625 l 1
 1966 473 l 1
 82 473 l 1
EndSplineSet
EndChar

StartChar: underscoredbl
Encoding: 586 8215 517
Width: 842
Flags: W
LayerCount: 3
Fore
SplineSet
846 -463 m 1
 -4 -463 l 1
 -4 -324 l 1
 846 -324 l 1
 846 -463 l 1
846 -184 m 1
 -4 -184 l 1
 -4 -45 l 1
 846 -45 l 1
 846 -184 l 1
EndSplineSet
EndChar

StartChar: quoteleft
Encoding: 587 8216 518
Width: 348
Flags: W
LayerCount: 3
Fore
SplineSet
37 961 m 1
 25 983 l 1
 40 1043 63 1118 96 1207 c 0
 129 1296 164 1381 201 1462 c 1
 324 1462 l 1
 280 1293 246 1126 221 961 c 1
 37 961 l 1
EndSplineSet
EndChar

StartChar: quoteright
Encoding: 588 8217 519
Width: 348
Flags: W
LayerCount: 3
Fore
SplineSet
309 1462 m 1
 324 1440 l 1
 307 1373 282 1296 249 1208 c 0
 216 1119 182 1037 147 961 c 1
 25 961 l 1
 72 1151 106 1318 127 1462 c 1
 309 1462 l 1
EndSplineSet
EndChar

StartChar: quotereversed
Encoding: 590 8219 521
Width: 348
Flags: W
LayerCount: 3
Fore
SplineSet
223 1462 m 1
 248 1295 282 1128 326 961 c 1
 203 961 l 1
 173 1024 140 1102 104 1197 c 0
 67 1292 41 1373 25 1440 c 1
 39 1462 l 1
 223 1462 l 1
EndSplineSet
EndChar

StartChar: quotedblleft
Encoding: 591 8220 522
Width: 717
Flags: W
LayerCount: 3
Fore
SplineSet
406 961 m 1
 391 983 l 1
 428 1126 488 1286 569 1462 c 1
 692 1462 l 1
 672 1385 652 1299 632 1202 c 0
 613 1106 599 1026 590 961 c 1
 406 961 l 1
37 961 m 1
 25 983 l 1
 40 1043 63 1118 96 1207 c 0
 129 1296 164 1381 201 1462 c 1
 324 1462 l 1
 280 1293 246 1126 221 961 c 1
 37 961 l 1
EndSplineSet
EndChar

StartChar: quotedblright
Encoding: 592 8221 523
Width: 717
Flags: W
LayerCount: 3
Fore
SplineSet
309 1462 m 1
 324 1440 l 1
 307 1373 282 1296 249 1208 c 0
 216 1119 182 1037 147 961 c 1
 25 961 l 1
 72 1151 106 1318 127 1462 c 1
 309 1462 l 1
678 1462 m 1
 692 1440 l 1
 676 1379 652 1305 620 1216 c 0
 588 1127 553 1042 516 961 c 1
 391 961 l 1
 408 1028 428 1112 450 1215 c 0
 472 1318 487 1400 496 1462 c 1
 678 1462 l 1
EndSplineSet
EndChar

StartChar: quotedblbase
Encoding: 593 8222 524
Width: 829
Flags: W
LayerCount: 3
Fore
SplineSet
309 238 m 1
 324 216 l 1
 307 149 282 72 249 -16 c 0
 216 -105 182 -187 147 -263 c 1
 25 -263 l 1
 72 -73 106 94 127 238 c 1
 309 238 l 1
678 238 m 1
 692 216 l 1
 676 155 652 81 620 -8 c 0
 588 -97 553 -182 516 -263 c 1
 391 -263 l 1
 408 -196 428 -112 450 -9 c 0
 472 94 487 176 496 238 c 1
 678 238 l 1
EndSplineSet
EndChar

StartChar: dagger
Encoding: 594 8224 525
Width: 1028
Flags: W
LayerCount: 3
Fore
SplineSet
905 999 m 1
 553 1030 l 1
 602 0 l 1
 406 0 l 1
 455 1030 l 1
 123 999 l 1
 123 1169 l 1
 455 1139 l 1
 406 1556 l 1
 602 1556 l 1
 553 1139 l 1
 905 1169 l 1
 905 999 l 1
EndSplineSet
EndChar

StartChar: daggerdbl
Encoding: 595 8225 526
Width: 1044
Flags: W
LayerCount: 3
Fore
SplineSet
569 487 m 1
 922 518 l 1
 922 350 l 1
 569 379 l 1
 618 0 l 1
 420 0 l 1
 469 379 l 1
 123 350 l 1
 123 518 l 1
 469 487 l 1
 426 786 l 1
 469 1069 l 1
 123 1038 l 1
 123 1206 l 1
 469 1176 l 1
 420 1556 l 1
 618 1556 l 1
 569 1176 l 1
 922 1206 l 1
 922 1038 l 1
 569 1069 l 1
 612 786 l 1
 569 487 l 1
EndSplineSet
EndChar

StartChar: bullet
Encoding: 596 8226 527
Width: 770
Flags: W
LayerCount: 3
Fore
SplineSet
164 748 m 0
 164 829 183 890 220 932 c 0
 258 974 313 995 385 995 c 0
 455 995 509 974 548 933 c 0
 587 892 606 830 606 748 c 0
 606 669 587 608 548 564 c 0
 510 522 456 500 385 500 c 0
 314 500 259 522 221 566 c 0
 183 609 164 670 164 748 c 0
EndSplineSet
EndChar

StartChar: ellipsis
Encoding: 597 8230 528
Width: 1606
Flags: W
LayerCount: 3
Fore
SplineSet
152 106 m 0
 152 151 162 184 182 208 c 0
 203 230 232 242 270 242 c 0
 309 242 339 230 360 208 c 0
 382 184 393 151 393 106 c 0
 393 63 382 29 360 6 c 0
 338 -17 308 -29 270 -29 c 0
 236 -29 208 -18 186 2 c 0
 163 24 152 58 152 106 c 0
682 106 m 0
 682 151 692 184 712 208 c 0
 733 230 762 242 800 242 c 0
 839 242 869 230 890 208 c 0
 912 184 923 151 923 106 c 0
 923 63 912 29 890 6 c 0
 868 -17 838 -29 800 -29 c 0
 766 -29 738 -18 716 2 c 0
 693 24 682 58 682 106 c 0
1213 106 m 0
 1213 151 1223 184 1244 208 c 0
 1264 230 1293 242 1331 242 c 0
 1370 242 1400 230 1422 208 c 0
 1443 184 1454 151 1454 106 c 0
 1454 63 1443 29 1421 6 c 0
 1399 -17 1369 -29 1331 -29 c 0
 1297 -29 1269 -18 1246 2 c 0
 1224 24 1213 58 1213 106 c 0
EndSplineSet
EndChar

StartChar: perthousand
Encoding: 598 8240 529
Width: 2462
Flags: W
LayerCount: 3
Fore
SplineSet
236 1026 m 0
 236 913 250 828 278 771 c 0
 305 714 350 686 412 686 c 0
 532 686 592 799 592 1026 c 0
 592 1251 532 1364 412 1364 c 0
 350 1364 305 1336 278 1280 c 0
 250 1224 236 1139 236 1026 c 0
729 1026 m 0
 729 873 702 758 648 680 c 0
 595 604 516 565 412 565 c 0
 313 565 236 605 182 684 c 0
 127 763 100 877 100 1026 c 0
 100 1331 204 1483 412 1483 c 0
 513 1483 592 1443 646 1363 c 0
 702 1283 729 1171 729 1026 c 0
1346 1462 m 1
 535 0 l 1
 387 0 l 1
 1198 1462 l 1
 1346 1462 l 1
1870 440 m 0
 1870 326 1884 241 1912 184 c 0
 1939 128 1984 100 2046 100 c 0
 2107 100 2152 128 2182 184 c 0
 2211 239 2226 325 2226 440 c 0
 2226 554 2211 638 2182 694 c 0
 2152 748 2107 776 2046 776 c 0
 1984 776 1939 748 1912 694 c 0
 1884 638 1870 554 1870 440 c 0
2363 440 m 0
 2363 287 2336 172 2282 95 c 0
 2228 18 2149 -20 2046 -20 c 0
 1947 -20 1871 20 1816 100 c 0
 1762 179 1735 293 1735 440 c 0
 1735 745 1839 897 2046 897 c 0
 2146 897 2224 858 2280 779 c 0
 2335 700 2363 587 2363 440 c 0
1139 440 m 0
 1139 326 1152 241 1180 184 c 0
 1206 128 1251 100 1313 100 c 0
 1374 100 1419 128 1448 184 c 0
 1478 239 1493 325 1493 440 c 0
 1493 554 1478 638 1448 694 c 0
 1419 748 1374 776 1313 776 c 0
 1251 776 1206 748 1180 694 c 0
 1152 638 1139 554 1139 440 c 0
1630 440 m 0
 1630 287 1603 172 1549 95 c 0
 1495 18 1416 -20 1313 -20 c 0
 1214 -20 1137 20 1082 99 c 0
 1028 178 1001 292 1001 440 c 0
 1001 745 1105 897 1313 897 c 0
 1413 897 1491 858 1546 779 c 0
 1602 700 1630 587 1630 440 c 0
EndSplineSet
EndChar

StartChar: second
Encoding: 600 8243 531
Width: 805
Flags: W
LayerCount: 3
Fore
SplineSet
319 1462 m 1
 279 934 l 1
 174 934 l 1
 133 1462 l 1
 319 1462 l 1
688 1462 m 1
 647 934 l 1
 543 934 l 1
 502 1462 l 1
 688 1462 l 1
EndSplineSet
EndChar

StartChar: guilsinglleft
Encoding: 601 8249 532
Width: 623
Flags: W
LayerCount: 3
Fore
SplineSet
82 551 m 1
 424 958 l 1
 543 889 l 1
 254 539 l 1
 543 188 l 1
 424 117 l 1
 82 524 l 1
 82 551 l 1
EndSplineSet
EndChar

StartChar: guilsinglright
Encoding: 602 8250 533
Width: 623
Flags: W
LayerCount: 3
Fore
SplineSet
541 524 m 1
 197 117 l 1
 80 188 l 1
 367 539 l 1
 80 889 l 1
 197 958 l 1
 541 551 l 1
 541 524 l 1
EndSplineSet
EndChar

StartChar: exclamdbl
Encoding: 603 8252 534
Width: 995
Flags: W
LayerCount: 3
Fore
SplineSet
326 403 m 1
 221 403 l 1
 170 1462 l 1
 377 1462 l 1
 326 403 l 1
152 106 m 0
 152 197 192 242 272 242 c 0
 311 242 340 230 362 207 c 0
 382 184 393 150 393 106 c 0
 393 63 382 30 361 6 c 0
 340 -17 310 -29 272 -29 c 0
 237 -29 209 -18 186 2 c 0
 163 24 152 58 152 106 c 0
775 403 m 1
 670 403 l 1
 619 1462 l 1
 826 1462 l 1
 775 403 l 1
601 106 m 0
 601 197 641 242 721 242 c 0
 760 242 790 230 810 207 c 0
 832 184 842 150 842 106 c 0
 842 63 831 30 810 6 c 0
 789 -17 759 -29 721 -29 c 0
 686 -29 658 -18 635 2 c 0
 612 24 601 58 601 106 c 0
EndSplineSet
EndChar

StartChar: fraction
Encoding: 604 8260 535
Width: 266
Flags: W
LayerCount: 3
Fore
SplineSet
655 1462 m 1
 -248 0 l 1
 -391 0 l 1
 512 1462 l 1
 655 1462 l 1
EndSplineSet
EndChar

StartChar: nsuperior
Encoding: 605 8319 536
Width: 807
Flags: W
LayerCount: 3
Fore
SplineSet
588 801 m 1
 588 1221 l 2
 588 1277 575 1317 549 1340 c 0
 523 1364 483 1376 430 1376 c 0
 354 1376 301 1358 270 1324 c 0
 240 1288 225 1230 225 1149 c 2
 225 801 l 1
 109 801 l 1
 109 1466 l 1
 205 1466 l 1
 219 1378 l 1
 229 1378 l 1
 279 1445 352 1479 449 1479 c 0
 621 1479 707 1396 707 1229 c 2
 707 801 l 1
 588 801 l 1
EndSplineSet
EndChar

StartChar: franc
Encoding: 606 8355 537
Width: 1171
Flags: W
LayerCount: 3
Fore
SplineSet
440 395 m 1
 748 395 l 1
 748 266 l 1
 440 266 l 1
 440 0 l 1
 274 0 l 1
 274 266 l 1
 98 266 l 1
 98 395 l 1
 274 395 l 1
 274 1462 l 1
 1059 1462 l 1
 1059 1311 l 1
 440 1311 l 1
 440 776 l 1
 1020 776 l 1
 1020 625 l 1
 440 625 l 1
 440 395 l 1
EndSplineSet
EndChar

StartChar: afii08941
Encoding: 607 8356 538
Width: 1171
Flags: W
LayerCount: 3
Fore
SplineSet
688 1481 m 0
 822 1481 942 1454 1047 1401 c 1
 987 1270 l 1
 886 1317 786 1341 688 1341 c 0
 607 1341 545 1318 503 1274 c 0
 461 1228 440 1163 440 1077 c 2
 440 891 l 1
 860 891 l 1
 860 762 l 1
 440 762 l 1
 440 596 l 1
 860 596 l 1
 860 467 l 1
 440 467 l 1
 440 434 l 2
 440 367 429 311 408 266 c 0
 386 221 350 183 301 154 c 1
 1096 154 l 1
 1096 0 l 1
 68 0 l 1
 68 141 l 1
 205 173 274 270 274 432 c 2
 274 467 l 1
 74 467 l 1
 74 596 l 1
 274 596 l 1
 274 762 l 1
 74 762 l 1
 74 891 l 1
 274 891 l 1
 274 1098 l 2
 274 1217 311 1310 386 1378 c 0
 461 1447 561 1481 688 1481 c 0
EndSplineSet
EndChar

StartChar: peseta
Encoding: 608 8359 539
Width: 1563
Flags: W
LayerCount: 3
Fore
SplineSet
1358 117 m 0
 1381 117 1406 119 1435 124 c 0
 1464 129 1482 132 1489 135 c 1
 1489 10 l 1
 1449 -10 1392 -20 1319 -20 c 0
 1246 -20 1188 3 1146 48 c 0
 1102 93 1081 162 1081 254 c 2
 1081 717 l 1
 924 717 l 1
 924 797 l 1
 1081 866 l 1
 1143 1057 l 1
 1241 1057 l 1
 1241 846 l 1
 1462 846 l 1
 1462 717 l 1
 1241 717 l 1
 1241 276 l 2
 1241 225 1250 185 1267 158 c 0
 1284 131 1315 117 1358 117 c 0
926 1036 m 0
 926 885 880 770 788 692 c 0
 695 614 560 575 383 575 c 2
 319 575 l 1
 319 0 l 1
 154 0 l 1
 154 1462 l 1
 416 1462 l 2
 587 1462 714 1427 799 1356 c 0
 884 1286 926 1179 926 1036 c 0
319 721 m 1
 371 721 l 2
 504 721 602 745 664 794 c 0
 725 842 756 920 756 1028 c 0
 756 1125 727 1197 670 1244 c 0
 613 1291 523 1315 401 1315 c 2
 319 1315 l 1
 319 721 l 1
EndSplineSet
EndChar

StartChar: Euro
Encoding: 609 8364 540
Width: 1208
Flags: W
LayerCount: 3
Fore
SplineSet
795 1333 m 0
 582 1333 450 1199 397 930 c 1
 907 930 l 1
 907 801 l 1
 383 801 l 1
 381 744 l 1
 381 680 l 1
 383 635 l 1
 846 635 l 1
 846 506 l 1
 399 506 l 1
 424 386 470 293 538 228 c 0
 605 162 696 129 809 129 c 0
 913 129 1016 151 1118 195 c 1
 1118 45 l 1
 1021 2 915 -20 801 -20 c 0
 643 -20 516 25 420 114 c 0
 323 204 260 335 229 506 c 1
 63 506 l 1
 63 635 l 1
 215 635 l 1
 213 677 l 1
 213 721 l 1
 215 801 l 1
 63 801 l 1
 63 930 l 1
 227 930 l 1
 253 1104 315 1240 412 1337 c 0
 509 1434 637 1483 795 1483 c 0
 929 1483 1051 1451 1161 1386 c 1
 1090 1247 l 1
 979 1304 881 1333 795 1333 c 0
EndSplineSet
EndChar

StartChar: afii61248
Encoding: 610 8453 541
Width: 1688
Flags: W
LayerCount: 3
Fore
SplineSet
1311 1462 m 1
 500 0 l 1
 352 0 l 1
 1163 1462 l 1
 1311 1462 l 1
1546 334 m 0
 1546 228 1518 144 1462 84 c 0
 1405 22 1328 -8 1229 -8 c 0
 1136 -8 1062 23 1005 84 c 0
 948 146 920 229 920 334 c 0
 920 439 948 523 1004 584 c 0
 1059 645 1136 676 1235 676 c 0
 1329 676 1404 645 1461 583 c 0
 1518 521 1546 438 1546 334 c 0
1055 334 m 0
 1055 175 1114 96 1233 96 c 0
 1350 96 1409 175 1409 334 c 0
 1409 491 1350 569 1233 569 c 0
 1114 569 1055 491 1055 334 c 0
489 788 m 0
 378 788 293 818 232 876 c 0
 171 936 141 1019 141 1126 c 0
 141 1238 172 1324 235 1384 c 0
 298 1443 386 1473 500 1473 c 0
 569 1473 633 1461 692 1438 c 1
 659 1335 l 1
 605 1356 551 1366 498 1366 c 0
 349 1366 274 1287 274 1128 c 0
 274 971 347 893 494 893 c 0
 559 893 622 904 682 926 c 1
 682 825 l 1
 630 800 566 788 489 788 c 0
EndSplineSet
EndChar

StartChar: afii61289
Encoding: 611 8467 542
Width: 1065
Flags: W
LayerCount: 3
Fore
SplineSet
637 111 m 0
 753 111 817 182 829 324 c 1
 924 324 l 1
 919 213 890 128 840 69 c 0
 788 10 716 -20 621 -20 c 0
 521 -20 444 10 391 70 c 0
 338 131 311 217 311 330 c 2
 311 573 l 1
 247 550 183 531 119 516 c 1
 119 629 l 1
 171 643 235 663 311 688 c 1
 311 1186 l 2
 311 1278 336 1350 386 1404 c 0
 436 1456 506 1483 596 1483 c 0
 674 1483 736 1456 780 1402 c 0
 826 1349 848 1276 848 1184 c 0
 848 1061 814 948 745 847 c 0
 676 746 584 670 467 621 c 1
 467 338 l 2
 467 269 481 214 508 172 c 0
 535 132 578 111 637 111 c 0
723 1178 m 0
 723 1307 681 1372 596 1372 c 0
 551 1372 519 1358 498 1329 c 0
 477 1300 467 1250 467 1178 c 2
 467 741 l 1
 638 832 723 978 723 1178 c 0
EndSplineSet
EndChar

StartChar: afii61352
Encoding: 612 8470 543
Width: 2087
Flags: W
LayerCount: 3
Fore
SplineSet
1223 0 m 1
 1036 0 l 1
 344 1227 l 1
 336 1227 l 1
 347 1035 352 903 352 831 c 2
 352 0 l 1
 201 0 l 1
 201 1462 l 1
 395 1462 l 1
 1077 240 l 1
 1085 240 l 1
 1076 403 1071 531 1071 623 c 2
 1071 1462 l 1
 1223 1462 l 1
 1223 0 l 1
1987 621 m 0
 1987 512 1960 427 1906 366 c 0
 1853 305 1777 274 1679 274 c 0
 1586 274 1513 305 1459 368 c 0
 1405 430 1378 514 1378 621 c 0
 1378 730 1405 814 1458 874 c 0
 1512 935 1588 965 1686 965 c 0
 1779 965 1852 934 1906 872 c 0
 1960 809 1987 726 1987 621 c 0
1509 621 m 0
 1509 545 1522 487 1550 448 c 0
 1576 409 1621 389 1683 389 c 0
 1744 389 1787 408 1814 448 c 0
 1840 486 1853 544 1853 621 c 0
 1853 698 1840 755 1814 792 c 0
 1787 829 1744 848 1683 848 c 0
 1622 848 1577 829 1550 792 c 0
 1523 755 1509 698 1509 621 c 0
1423 0 m 1
 1423 135 l 1
 1935 135 l 1
 1935 0 l 1
 1423 0 l 1
EndSplineSet
EndChar

StartChar: trademark
Encoding: 613 8482 544
Width: 1589
Flags: W
LayerCount: 3
Fore
SplineSet
369 741 m 1
 246 741 l 1
 246 1356 l 1
 37 1356 l 1
 37 1462 l 1
 580 1462 l 1
 580 1356 l 1
 369 1356 l 1
 369 741 l 1
969 741 m 1
 768 1300 l 1
 760 1300 l 1
 766 1171 l 1
 766 741 l 1
 647 741 l 1
 647 1462 l 1
 834 1462 l 1
 1030 903 l 1
 1233 1462 l 1
 1413 1462 l 1
 1413 741 l 1
 1286 741 l 1
 1286 1161 l 1
 1292 1298 l 1
 1284 1298 l 1
 1073 741 l 1
 969 741 l 1
EndSplineSet
EndChar

StartChar: Omega
Encoding: 614 8486 545
Width: 1602
Flags: W
LayerCount: 3
Fore
SplineSet
801 1333 m 0
 642 1333 521 1290 438 1204 c 0
 355 1119 313 992 313 823 c 0
 313 673 342 542 400 432 c 0
 457 320 546 221 666 133 c 1
 666 0 l 1
 80 0 l 1
 80 152 l 1
 444 152 l 1
 343 231 266 328 213 445 c 0
 160 562 133 688 133 823 c 0
 133 1030 192 1192 310 1309 c 0
 428 1426 592 1485 801 1485 c 0
 1011 1485 1175 1427 1293 1312 c 0
 1411 1196 1470 1034 1470 825 c 0
 1470 687 1444 560 1391 445 c 0
 1338 330 1262 232 1161 152 c 1
 1524 152 l 1
 1524 0 l 1
 938 0 l 1
 938 133 l 1
 1060 222 1149 323 1206 434 c 0
 1262 545 1290 675 1290 823 c 0
 1290 991 1248 1118 1166 1204 c 0
 1082 1290 961 1333 801 1333 c 0
EndSplineSet
EndChar

